<svg width="184" height="55" viewBox="0 0 184 55" fill="none" xmlns="http://www.w3.org/2000/svg">
<rect width="184" height="55" fill="#F5F5F5"/>
<rect x="-147" y="-113" width="488" height="274" fill="white"/>
<path fill-rule="evenodd" clip-rule="evenodd" d="M59.67 47.15C59.386 47.2549 59.074 47.2549 58.79 47.15C58.7045 47.1303 58.6156 47.1303 58.53 47.15C58.1325 47.2049 57.731 47.2249 57.33 47.21C57.0177 47.1749 56.7024 47.1749 56.39 47.21C56.3001 47.215 56.2099 47.215 56.12 47.21C55.7847 47.2193 55.4505 47.2528 55.12 47.31C55.0772 47.3198 55.0328 47.3198 54.99 47.31H54.19C54.0534 47.3123 53.9186 47.2778 53.8 47.21C53.7123 47.1564 53.6126 47.1255 53.51 47.12C53.22 47.12 52.94 47.12 52.66 47.06C52.38 47 52.88 47.06 52.66 47.06C52.497 47.0747 52.333 47.0747 52.17 47.06C52.0559 47.0252 51.9341 47.0252 51.82 47.06C51.6756 47.1355 51.5121 47.1668 51.35 47.15H50.99C50.8708 47.1642 50.7504 47.1359 50.65 47.07C50.5208 46.9927 50.367 46.9676 50.22 47C49.497 47.1235 48.7626 47.1671 48.03 47.13H47C46.7941 47.1551 46.5859 47.1551 46.38 47.13C46.3338 47.1203 46.2862 47.1203 46.24 47.13C46.0218 47.17 45.7982 47.17 45.58 47.13C45.4743 47.1102 45.3657 47.1102 45.26 47.13C44.9654 47.1796 44.6646 47.1796 44.37 47.13C44.284 47.1151 44.196 47.1151 44.11 47.13H43.71C43.3375 47.1649 42.9625 47.1649 42.59 47.13C42.13 47.13 41.67 47.13 41.21 47.13H40.72C40.5581 47.0999 40.3919 47.0999 40.23 47.13C40.1743 47.1449 40.1157 47.1449 40.06 47.13C39.76 47.07 39.47 47.19 39.17 47.13L38.51 47C38.3823 46.9651 38.2477 46.9651 38.12 47C37.83 47 37.55 47 37.27 47C37.2272 47.0098 37.1828 47.0098 37.14 47C36.9907 46.9799 36.8393 46.9799 36.69 47C36.6634 47.0125 36.6344 47.019 36.605 47.019C36.5756 47.019 36.5466 47.0125 36.52 47C36.4715 46.9665 36.414 46.9485 36.355 46.9485C36.296 46.9485 36.2385 46.9665 36.19 47C36.081 47.0514 35.959 47.0689 35.84 47.05L35.49 47C35.1571 46.9766 34.8229 46.9766 34.49 47C34.2089 47.0502 33.9211 47.0502 33.64 47C33.5843 46.9852 33.5257 46.9852 33.47 47C33.2249 47.0698 32.9651 47.0698 32.72 47C32.648 46.98 32.572 46.98 32.5 47C32.33 47 32.15 47 31.97 47C31.7939 47.02 31.6161 47.02 31.44 47C31.03 47 30.63 46.95 30.23 46.94C30.0378 46.9102 29.8422 46.9102 29.65 46.94C29.5347 46.9649 29.4153 46.9649 29.3 46.94C29 46.94 28.71 46.94 28.41 46.94H28.06C28.0004 46.9306 27.9396 46.9306 27.88 46.94C27.6279 46.975 27.3721 46.975 27.12 46.94C26.7023 46.9384 26.2849 46.9618 25.87 47.01C25.7369 47.0204 25.6031 47.0204 25.47 47.01H23.77C23.6381 47.0393 23.5002 47.0216 23.38 46.96C23.355 46.9428 23.3254 46.9336 23.295 46.9336C23.2646 46.9336 23.235 46.9428 23.21 46.96C22.9819 47.0379 22.7389 47.0618 22.5 47.03C22.3679 47.0049 22.2321 47.0049 22.1 47.03C21.7677 47.0663 21.4323 47.0663 21.1 47.03C21.0006 47.0149 20.8994 47.0149 20.8 47.03C20.6645 47.0548 20.5255 47.0548 20.39 47.03C20.1588 46.985 19.9212 46.985 19.69 47.03C19.4671 47.05 19.2429 47.05 19.02 47.03C18.6874 46.9987 18.3526 46.9987 18.02 47.03C17.7072 47.055 17.3928 47.055 17.08 47.03C16.9769 47.0204 16.8731 47.0204 16.77 47.03L15.57 47.17C15.4254 47.2048 15.2746 47.2048 15.13 47.17C15.0574 47.1555 14.9826 47.1555 14.91 47.17C14.6874 47.195 14.4626 47.195 14.24 47.17C13.73 47.17 13.24 47.17 12.72 47.17H12.45C12.3636 47.18 12.2764 47.18 12.19 47.17C11.95 47.17 11.71 47.17 11.48 47.17C11.4508 47.1601 11.4192 47.1601 11.39 47.17C11.0115 47.2462 10.6261 47.2831 10.24 47.28C10.1501 47.2747 10.0599 47.2747 9.97 47.28C9.76703 47.3353 9.55297 47.3353 9.35 47.28H9.17C8.874 47.2737 8.58872 47.168 8.36 46.98C8.33309 46.964 8.31187 46.9399 8.29932 46.9112C8.28676 46.8825 8.28351 46.8506 8.29 46.82C8.29 46.76 8.34 46.71 8.36 46.65C8.36288 46.6361 8.36278 46.6218 8.35969 46.6079C8.3566 46.5941 8.3506 46.581 8.34209 46.5697C8.33357 46.5583 8.32274 46.5489 8.31032 46.5421C8.29789 46.5352 8.28414 46.5311 8.27 46.53C8.21 46.53 8.13 46.53 8.13 46.62C8.12517 46.6766 8.12517 46.7334 8.13 46.79C8.13206 46.956 8.10845 47.1213 8.06 47.28C8.04581 47.3306 8.01765 47.3762 7.97874 47.4116C7.93983 47.447 7.89175 47.4707 7.84 47.48H7.76C7.58963 47.4201 7.44493 47.3036 7.35 47.15C7.30911 47.0871 7.28177 47.0164 7.26971 46.9424C7.25766 46.8683 7.26117 46.7926 7.28 46.72C7.34919 46.4619 7.38944 46.197 7.4 45.93C7.39504 45.8835 7.39504 45.8365 7.4 45.79C7.49015 45.2336 7.55024 44.6728 7.58 44.11V44.02C7.555 43.5704 7.555 43.1197 7.58 42.67C7.59 42.5836 7.59 42.4964 7.58 42.41C7.53966 42.1281 7.53966 41.8419 7.58 41.56C7.58496 41.5001 7.58496 41.4399 7.58 41.38C7.56501 41.0835 7.56501 40.7865 7.58 40.49C7.58136 40.2512 7.60818 40.0132 7.66 39.78C7.68026 39.634 7.68026 39.486 7.66 39.34C7.69094 39.2208 7.73805 39.1064 7.8 39C7.86224 38.7687 7.88921 38.5293 7.88 38.29C7.87858 38.0846 7.90209 37.8798 7.95 37.68C7.96485 37.5605 7.96485 37.4395 7.95 37.32C7.95 37.08 7.95 36.84 7.95 36.61C8 36.18 8.05 35.75 8.07 35.32C8.07 35.16 8.13 35 8.14 34.84C8.15 34.68 8.14 34.51 8.09 34.34C8.04 34.17 8.09 33.9 8.09 33.68L8.03 32.87C8.02462 32.7968 8.02462 32.7232 8.03 32.65C8.02515 32.173 7.97493 31.6975 7.88 31.23C7.87016 31.1872 7.87016 31.1428 7.88 31.1C7.91986 30.8482 7.91986 30.5918 7.88 30.34C7.87015 30.2369 7.87015 30.1331 7.88 30.03C7.91019 29.8849 7.91019 29.7351 7.88 29.59C7.8497 29.4889 7.8497 29.3811 7.88 29.28C7.93683 28.9259 7.9129 28.5636 7.81 28.22C7.8013 28.1469 7.8013 28.0731 7.81 28C7.81 27.67 7.75 27.35 7.75 27C7.73964 26.8969 7.73964 26.7931 7.75 26.69C7.8036 26.3355 7.83699 25.9783 7.85 25.62C7.86033 25.5638 7.86033 25.5062 7.85 25.45C7.78478 25.284 7.74761 25.1082 7.74 24.93C7.65985 24.4436 7.60976 23.9526 7.59 23.46C7.59 23.37 7.59 23.29 7.59 23.19C7.56663 23.0126 7.59438 22.8322 7.67 22.67C7.68542 22.6242 7.71017 22.582 7.74269 22.5462C7.77522 22.5104 7.81481 22.4817 7.85897 22.462C7.90314 22.4423 7.95091 22.4319 7.99928 22.4316C8.04765 22.4312 8.09556 22.4409 8.14 22.46C8.28681 22.5304 8.4472 22.5679 8.61 22.57C8.83339 22.5647 9.05619 22.5951 9.27 22.66C9.32918 22.674 9.39082 22.674 9.45 22.66C9.61272 22.6399 9.77729 22.6399 9.94 22.66C10.3396 22.685 10.7404 22.685 11.14 22.66C11.5 22.66 11.86 22.66 12.21 22.66C12.76 22.66 13.31 22.66 13.87 22.66C14.4026 22.62 14.9374 22.62 15.47 22.66H15.61C16.0563 22.6352 16.5037 22.6352 16.95 22.66H18.69C18.8831 22.6747 19.0769 22.6747 19.27 22.66C19.3555 22.64 19.4445 22.64 19.53 22.66C19.7083 22.6948 19.8917 22.6948 20.07 22.66C20.3062 22.6401 20.5438 22.6401 20.78 22.66C21.1126 22.6912 21.4474 22.6912 21.78 22.66C22.35 22.66 22.91 22.61 23.48 22.61C23.78 22.61 24.07 22.61 24.37 22.61H25.98C26.2 22.61 26.43 22.61 26.65 22.61C27.24 22.61 27.84 22.61 28.44 22.61H29.02C29.38 22.61 29.73 22.61 30.09 22.61C30.45 22.61 30.74 22.61 31.09 22.61C31.1666 22.615 31.2434 22.615 31.32 22.61C31.8985 22.5582 32.4795 22.5415 33.06 22.56H34.62H34.85C35.5149 22.4924 36.185 22.4924 36.85 22.56C36.9524 22.58 37.0576 22.58 37.16 22.56C37.435 22.4954 37.7186 22.4751 38 22.5C38.24 22.5 38.48 22.5 38.71 22.5H39.25H39.61H40.73C41.3225 22.5449 41.9175 22.5449 42.51 22.5C42.8 22.5 43.11 22.5 43.4 22.5C43.5485 22.5299 43.7015 22.5299 43.85 22.5C44.084 22.45 44.326 22.45 44.56 22.5C44.9759 22.535 45.3941 22.535 45.81 22.5H46.12L47.32 22.57C47.4999 22.5799 47.6801 22.5799 47.86 22.57C48.0186 22.54 48.1814 22.54 48.34 22.57C48.4294 22.5842 48.5206 22.5842 48.61 22.57C49.0261 22.54 49.4439 22.54 49.86 22.57C50.61 22.57 51.35 22.57 52.1 22.57C52.2463 22.555 52.3937 22.555 52.54 22.57C52.84 22.64 52.44 22.57 52.73 22.57H53.09C53.2822 22.5998 53.4778 22.5998 53.67 22.57C53.7853 22.5451 53.9047 22.5451 54.02 22.57C54.2252 22.6045 54.4348 22.6045 54.64 22.57H55.27C55.39 22.57 55.51 22.57 55.63 22.57C55.8581 22.6402 56.1019 22.6402 56.33 22.57L57 22.62C57.1141 22.6548 57.2359 22.6548 57.35 22.62C57.5025 22.5597 57.6661 22.5324 57.83 22.54C58.113 22.5601 58.397 22.5601 58.68 22.54C58.753 22.53 58.827 22.53 58.9 22.54L59.47 22.65C59.7068 22.6987 59.9524 22.6814 60.18 22.6C60.3639 22.5394 60.5564 22.509 60.75 22.51C60.9132 22.52 61.0768 22.52 61.24 22.51C61.3722 22.4856 61.5078 22.4856 61.64 22.51C61.713 22.5204 61.787 22.5204 61.86 22.51C62.0831 22.525 62.3069 22.525 62.53 22.51C62.91 22.51 62.4 22.51 62.78 22.43C63.015 22.3903 63.255 22.3903 63.49 22.43C63.7126 22.455 63.9374 22.455 64.16 22.43C64.61 22.43 65.06 22.43 65.51 22.38H66.76C66.8162 22.3701 66.8738 22.3701 66.93 22.38C67.133 22.4348 67.347 22.4348 67.55 22.38C67.8152 22.3401 68.0848 22.3401 68.35 22.38C68.7189 22.4202 69.0911 22.4202 69.46 22.38C69.94 22.38 70.46 22.38 70.9 22.38H71.08C71.5245 22.3817 71.9685 22.4085 72.41 22.46C72.6758 22.4896 72.9442 22.4896 73.21 22.46C73.21 22.46 72.37 22.46 72.39 22.46C72.86 22.54 73.39 22.51 73.81 22.55C74.23 22.59 74.71 22.55 75.15 22.55C75.3889 22.5331 75.629 22.5567 75.86 22.62C75.9196 22.6299 75.9804 22.6299 76.04 22.62C76.38 22.62 76.72 22.62 77.04 22.62H77.53C77.603 22.61 77.677 22.61 77.75 22.62C78.0826 22.6513 78.4174 22.6513 78.75 22.62C79.0204 22.6313 79.2907 22.5975 79.55 22.52C79.6179 22.4906 79.691 22.4754 79.765 22.4754C79.839 22.4754 79.9122 22.4906 79.98 22.52C80.0992 22.577 80.223 22.6238 80.35 22.66C80.4926 22.7024 80.6328 22.7524 80.77 22.81C80.8799 22.8623 80.9658 22.9544 81.0103 23.0677C81.0549 23.1809 81.0548 23.3068 81.01 23.42C80.9692 23.4981 80.9325 23.5782 80.9 23.66C80.8509 23.7451 80.825 23.8417 80.825 23.94C80.825 24.0383 80.8509 24.1349 80.9 24.22C80.9491 24.296 80.9752 24.3845 80.9752 24.475C80.9752 24.5655 80.9491 24.654 80.9 24.73C80.8127 24.9209 80.7749 25.1307 80.79 25.34C80.795 25.3832 80.795 25.4268 80.79 25.47C80.73 25.87 80.73 26.27 80.7 26.67C80.7 26.73 80.7 26.79 80.7 26.85C80.614 27.1777 80.5571 27.5123 80.53 27.85C80.4602 28.1256 80.4602 28.4144 80.53 28.69C80.5799 28.9711 80.5799 29.2589 80.53 29.54C80.4833 29.9382 80.4666 30.3393 80.48 30.74C80.48 31.19 80.48 31.64 80.48 32.08C80.48 32.27 80.48 32.47 80.42 32.66C80.36 32.85 80.42 33.04 80.42 33.24C80.4206 33.5746 80.3972 33.9088 80.35 34.24C80.2985 34.6547 80.2717 35.0721 80.27 35.49C80.2719 35.9509 80.2485 36.4116 80.2 36.87C80.1802 36.9589 80.1802 37.0511 80.2 37.14C80.2249 37.2722 80.2249 37.4078 80.2 37.54C80.2 37.95 80.11 38.37 80.09 38.78C80.0747 38.9263 80.0747 39.0737 80.09 39.22C80.1 39.3398 80.1 39.4602 80.09 39.58C80.0599 39.8157 80.0599 40.0543 80.09 40.29C80.1051 40.3659 80.1051 40.4441 80.09 40.52C80.0707 40.6794 80.0707 40.8406 80.09 41C80.09 41.2 80.09 41.39 80.09 41.59C80.1083 42.1546 80.0815 42.7197 80.01 43.28C80.005 43.3699 80.005 43.4601 80.01 43.55V44.35C80.0249 44.4057 80.0249 44.4643 80.01 44.52C79.9881 44.5598 79.9766 44.6046 79.9766 44.65C79.9766 44.6955 79.9881 44.7402 80.01 44.78C80.0449 44.8448 80.0654 44.9165 80.07 44.99C80.07 45.31 80.07 45.64 80.16 45.99C80.1852 46.1389 80.1852 46.2911 80.16 46.44C80.0946 46.6537 80.0642 46.8766 80.07 47.1C80.08 47.2932 80.08 47.4868 80.07 47.68C80.07 47.78 80.07 47.68 79.97 47.68L79.82 47.9C79.7732 47.9674 79.7102 48.0219 79.6368 48.0586C79.5634 48.0953 79.482 48.113 79.4 48.11C79.3103 48.1198 79.2197 48.1198 79.13 48.11C79.0002 48.0806 78.8731 48.0405 78.75 47.99C78.4995 47.8865 78.2377 47.8127 77.97 47.77C77.9121 47.7654 77.8567 47.7446 77.81 47.71C77.59 47.55 77.33 47.85 77.06 47.78C76.95 47.78 76.84 47.88 76.72 47.85C76.5944 47.8015 76.4635 47.768 76.33 47.75C76.18 47.75 76.13 47.85 76 47.75C75.87 47.65 75.68 47.75 75.57 47.75C75.2381 47.711 74.9042 47.6909 74.57 47.69C74.4669 47.6999 74.3631 47.6999 74.26 47.69C74.024 47.6649 73.786 47.6649 73.55 47.69H72.55C72.43 47.69 73.19 47.69 73.08 47.6C73.0153 47.5659 72.9485 47.5358 72.88 47.51C72.7994 47.4703 72.7096 47.453 72.62 47.46C72.3981 47.4952 72.1719 47.4952 71.95 47.46C71.8472 47.4451 71.7428 47.4451 71.64 47.46C71.2246 47.505 70.8055 47.505 70.39 47.46H70.08C69.8585 47.4999 69.6316 47.4999 69.41 47.46C69.162 47.415 68.908 47.415 68.66 47.46C68.6004 47.4699 68.5396 47.4699 68.48 47.46C68.2137 47.44 67.9463 47.44 67.68 47.46C67.5916 47.454 67.5043 47.4372 67.42 47.41C67.2597 47.3652 67.0903 47.3652 66.93 47.41C66.6963 47.4656 66.4509 47.4446 66.23 47.35C66.1751 47.3301 66.1149 47.3301 66.06 47.35C65.9274 47.3699 65.7926 47.3699 65.66 47.35C65.261 47.3099 64.859 47.3099 64.46 47.35C64.3707 47.3653 64.2794 47.3653 64.19 47.35C64.0276 47.3248 63.8624 47.3248 63.7 47.35H62.9C62.73 47.35 63.47 47.35 63.31 47.35C63.1375 47.2955 62.9525 47.2955 62.78 47.35C62.6097 47.3959 62.4303 47.3959 62.26 47.35C62.1706 47.3351 62.0794 47.3351 61.99 47.35C61.5486 47.4092 61.1014 47.4092 60.66 47.35H60.52C60.374 47.4013 60.2164 47.4098 60.0657 47.3744C59.9151 47.3389 59.7778 47.2611 59.67 47.15V47.15ZM32.67 37.36L33.38 37.77C33.419 37.7932 33.4502 37.8274 33.4698 37.8684C33.4894 37.9093 33.4964 37.9551 33.49 38C33.4996 38.1031 33.4996 38.2069 33.49 38.31C33.4431 38.4796 33.4162 38.6541 33.41 38.83C33.4031 39.0553 33.3763 39.2795 33.33 39.5C33.254 39.7116 33.2167 39.9352 33.22 40.16C33.22 40.4 33.12 40.62 33.12 40.86C33.12 40.92 33.12 40.98 33.12 41.03C33.1303 41.1063 33.1303 41.1837 33.12 41.26C33.0783 41.4027 33.0614 41.5516 33.07 41.7C33.0802 41.8164 33.0802 41.9336 33.07 42.05C33.035 42.3624 33.035 42.6776 33.07 42.99C33.1601 43.2901 33.1601 43.61 33.07 43.91C33.051 43.9651 33.051 44.0249 33.07 44.08C33.0451 44.7302 32.941 45.375 32.76 46V46C32.7572 46.0224 32.7589 46.045 32.7649 46.0667C32.771 46.0884 32.7813 46.1087 32.7953 46.1264C32.8092 46.1441 32.8265 46.1588 32.8462 46.1697C32.8659 46.1806 32.8876 46.1875 32.91 46.19H33.49C33.61 46.19 33.28 46.19 33.39 46.19C33.624 46.24 33.866 46.24 34.1 46.19C34.1726 46.1752 34.2474 46.1752 34.32 46.19C34.67 46.19 34.46 46.13 34.8 46.19C34.872 46.2095 34.948 46.2095 35.02 46.19C35.1681 46.1558 35.3219 46.1558 35.47 46.19C35.6382 46.2495 35.8218 46.2495 35.99 46.19C36.0626 46.1755 36.1374 46.1755 36.21 46.19C36.3596 46.1837 36.5077 46.1568 36.65 46.11C36.9561 46.0402 37.2739 46.0402 37.58 46.11C37.68 46.22 37.81 46.21 37.95 46.22H38.58C38.6699 46.225 38.7601 46.225 38.85 46.22H39.56C39.6631 46.2101 39.7669 46.2101 39.87 46.22C40.0268 46.265 40.1932 46.265 40.35 46.22C40.4096 46.2101 40.4704 46.2101 40.53 46.22H41.2C41.4687 46.237 41.7384 46.2134 42 46.15C42.216 46.0904 42.444 46.0904 42.66 46.15C42.8282 46.2095 43.0118 46.2095 43.18 46.15C43.2816 46.1012 43.3943 46.0802 43.5067 46.089C43.6191 46.0977 43.7272 46.136 43.82 46.2C43.8829 46.2396 43.9557 46.2604 44.03 46.26C44.2348 46.3011 44.4472 46.2802 44.64 46.2C44.7506 46.1541 44.871 46.1369 44.99 46.15H45.26C45.3944 46.1381 45.5288 46.1735 45.64 46.25C45.6881 46.2858 45.7435 46.3107 45.8022 46.3228C45.861 46.3349 45.9217 46.3339 45.98 46.32H46.11C46.2732 46.3106 46.4368 46.3106 46.6 46.32C46.73 46.32 46.86 46.32 47 46.32H47.39C47.4498 46.3136 47.5102 46.3136 47.57 46.32C47.7786 46.3549 47.9915 46.3549 48.2 46.32C48.4357 46.29 48.6743 46.29 48.91 46.32H49.86C49.9807 46.3269 50.1012 46.3028 50.21 46.25C50.3571 46.1824 50.5184 46.1515 50.68 46.16C50.718 46.1562 50.7563 46.1604 50.7925 46.1725C50.8287 46.1846 50.8619 46.2042 50.89 46.23C50.9138 46.2598 50.9443 46.2835 50.9791 46.2992C51.0139 46.3148 51.0519 46.322 51.09 46.32C51.37 46.32 51.65 46.32 51.93 46.32C52.0458 46.2994 52.1642 46.2994 52.28 46.32C52.46 46.32 51.95 46.32 52.13 46.32C52.65 46.32 53.13 46.32 53.69 46.32C53.7761 46.3345 53.8639 46.3345 53.95 46.32C54.4673 46.1768 55.0088 46.1427 55.54 46.22C55.5995 46.2087 55.6605 46.2087 55.72 46.22C55.8951 46.3012 56.0872 46.3389 56.28 46.33C56.52 46.33 56.76 46.33 56.99 46.39C57.0626 46.4048 57.1374 46.4048 57.21 46.39C57.4189 46.3601 57.6311 46.3601 57.84 46.39C58.2254 46.435 58.6146 46.435 59 46.39C59.1153 46.3651 59.2347 46.3651 59.35 46.39C59.6155 46.4251 59.8845 46.4251 60.15 46.39C60.48 46.39 60.8 46.33 61.15 46.31C61.4322 46.2749 61.7178 46.2749 62 46.31C62.2047 46.3499 62.4153 46.3499 62.62 46.31C62.82 46.31 62.13 46.31 62.34 46.31C62.4726 46.3299 62.6074 46.3299 62.74 46.31C62.8729 46.2951 63.0071 46.2951 63.14 46.31C63.67 46.31 64.21 46.31 64.75 46.31C64.8658 46.3306 64.9842 46.3306 65.1 46.31C65.4011 46.2188 65.7159 46.1816 66.03 46.2C66.3125 46.1815 66.5961 46.2085 66.87 46.28C66.9128 46.2898 66.9572 46.2898 67 46.28C67.16 46.28 67.33 46.28 67.49 46.28C67.6753 46.2203 67.8747 46.2203 68.06 46.28C68.146 46.2953 68.234 46.2953 68.32 46.28L69.53 46.23C69.6194 46.2151 69.7106 46.2151 69.8 46.23C70.022 46.265 70.248 46.265 70.47 46.23C70.601 46.2084 70.7353 46.2331 70.85 46.3C70.9859 46.3689 71.1379 46.4 71.29 46.39C71.55 46.39 71.82 46.39 72.09 46.39C72.2728 46.37 72.4572 46.37 72.64 46.39C72.7625 46.3904 72.884 46.4106 73 46.45C73.1851 46.5034 73.3775 46.527 73.57 46.52C74.1505 46.5017 74.7315 46.5184 75.31 46.57C75.76 46.57 76.2 46.3 76.63 46.46H76.8C77.0366 46.4714 77.2713 46.5082 77.5 46.57C77.6446 46.5967 77.7856 46.6403 77.92 46.7L78.21 46.84H78.33C78.52 46.84 78.61 46.84 78.62 46.65C78.6446 46.368 78.6846 46.0876 78.74 45.81C78.74 45.59 78.74 45.36 78.82 45.14C78.8348 45.0843 78.8348 45.0257 78.82 44.97C78.77 44.7057 78.77 44.4343 78.82 44.17C78.82 43.74 78.82 43.31 78.82 42.87C78.82 42.71 78.82 42.55 78.82 42.38C78.82 42.21 78.82 41.82 78.89 41.53C78.96 41.24 78.89 41.03 78.89 40.77C78.8649 40.5206 78.8649 40.2694 78.89 40.02C78.92 39.7676 78.92 39.5124 78.89 39.26C78.89 39.26 78.89 39.17 78.89 39.13C78.89 39.09 78.89 38.77 78.89 38.59C78.89 38.17 78.89 37.76 78.89 37.34C78.8802 37.267 78.8802 37.193 78.89 37.12C78.9053 36.9737 78.9053 36.8263 78.89 36.68C78.89 36.47 78.89 36.26 78.89 36.05C78.9485 35.5788 78.9819 35.1048 78.99 34.63C78.99 34.2 78.99 33.76 78.99 33.33C78.9751 33.0769 78.9751 32.8231 78.99 32.57C79.0002 32.4235 79.0002 32.2765 78.99 32.13C78.9617 31.7973 78.9617 31.4627 78.99 31.13C79.005 30.9971 79.005 30.8629 78.99 30.73C78.9555 30.4778 78.9555 30.2222 78.99 29.97C79.015 29.8716 79.015 29.7684 78.99 29.67C78.9551 29.4011 78.9551 29.1289 78.99 28.86C79.005 28.7137 79.005 28.5663 78.99 28.42C78.982 28.3671 78.9574 28.3182 78.9196 28.2804C78.8818 28.2426 78.8329 28.218 78.78 28.21H78.51C78.172 28.1992 77.8363 28.1489 77.51 28.06C77.2293 27.9633 76.9365 27.906 76.64 27.89C76.4753 27.8862 76.3153 27.834 76.18 27.74C76.0922 27.6803 75.9984 27.63 75.9 27.59C75.5357 27.4589 75.1785 27.3087 74.83 27.14C74.7372 27.0963 74.64 27.0628 74.54 27.04C74.38 27.04 74.22 26.98 74.06 26.95C73.8654 26.9369 73.6751 26.8859 73.5 26.8C73.369 26.7297 73.227 26.6823 73.08 26.66C73.0197 26.6602 72.9606 26.6429 72.91 26.61C72.7102 26.5078 72.4932 26.4433 72.27 26.42C72.1811 26.4061 72.0939 26.3826 72.01 26.35C71.8 26.27 72.46 26.23 72.23 26.21L71.17 26.07C70.7819 26.0215 70.3911 25.9981 70 26C69.8203 26.0149 69.6397 26.0149 69.46 26C69.104 25.97 68.746 25.97 68.39 26C68.0941 26.0299 67.7959 26.0299 67.5 26C67.4404 25.9905 67.3796 25.9905 67.32 26C67.1308 26.025 66.9392 26.025 66.75 26C66.5223 25.9949 66.2951 25.9749 66.07 25.94C65.7092 25.919 65.3511 25.8655 65 25.78H64.83C64.75 25.78 64.68 25.78 64.61 25.78C64.17 25.78 63.74 25.78 63.31 25.78C62.88 25.78 63.38 25.78 62.97 25.91C62.8803 25.9203 62.7897 25.9203 62.7 25.91H62.3C62.0777 25.9399 61.8523 25.9399 61.63 25.91C61.557 25.9 61.483 25.9 61.41 25.91C61.1275 25.9402 60.8425 25.9402 60.56 25.91H59.39C59.2589 25.8752 59.1211 25.8752 58.99 25.91C58.7904 25.9654 58.5796 25.9654 58.38 25.91C58.3074 25.8952 58.2326 25.8952 58.16 25.91C57.9519 25.95 57.7381 25.95 57.53 25.91C57.1936 25.9102 56.8583 25.8733 56.53 25.8C56.4272 25.7851 56.3228 25.7851 56.22 25.8C55.86 25.85 55.5 25.8 55.15 25.8C55.0901 25.8048 55.0299 25.8048 54.97 25.8H54.75C54.5109 25.8037 54.2723 25.7768 54.04 25.72C53.9382 25.695 53.8318 25.695 53.73 25.72C53.6138 25.735 53.4962 25.735 53.38 25.72C53.2602 25.71 53.1398 25.71 53.02 25.72C52.71 25.72 52.4 25.78 52.09 25.84C51.78 25.9 51.91 26.02 51.46 26.03H51.33C51.0484 26.0749 50.7616 26.0749 50.48 26.03L49.58 26C49.345 26.0382 49.1079 26.0615 48.87 26.07C48.4731 26.138 48.0723 26.1814 47.67 26.2C47.2559 26.24 46.8383 26.2197 46.43 26.14C46.358 26.12 46.282 26.12 46.21 26.14C45.998 26.1472 45.7877 26.0989 45.6 26C45.4586 25.9443 45.3014 25.9443 45.16 26C44.8115 26.1266 44.4392 26.1744 44.07 26.14H44C43.7655 26.1849 43.5245 26.1849 43.29 26.14L42.65 26C42.38 26 42.12 25.94 41.85 25.89C41.4694 25.8251 41.0806 25.8251 40.7 25.89C40.6274 25.9051 40.5526 25.9051 40.48 25.89C40.1496 25.8277 39.8104 25.8277 39.48 25.89C39.4201 25.8947 39.3599 25.8947 39.3 25.89C39.06 25.89 38.83 25.89 38.59 25.89C38.35 25.89 37.94 25.89 37.59 25.89C37.2947 25.8501 36.9953 25.8501 36.7 25.89C36.2731 25.9568 35.842 25.9936 35.41 26C35.3369 25.9909 35.263 25.9909 35.19 26C34.8618 26.0721 34.5244 26.0923 34.19 26.06C34.0578 26.0351 33.9222 26.0351 33.79 26.06C33.5132 26.1195 33.2268 26.1195 32.95 26.06C32.8774 26.0452 32.8026 26.0452 32.73 26.06C32.4637 26.08 32.1963 26.08 31.93 26.06C31.8105 26.045 31.6895 26.045 31.57 26.06C31.1855 26.1102 30.7976 26.1302 30.41 26.12C30.3373 26.1336 30.2627 26.1336 30.19 26.12C30.081 26.0755 29.959 26.0755 29.85 26.12C29.7949 26.1445 29.7353 26.1572 29.675 26.1572C29.6147 26.1572 29.5551 26.1445 29.5 26.12C29.414 26.1049 29.326 26.1049 29.24 26.12C28.81 26.12 28.39 26.29 27.96 26.31C27.9307 26.3008 27.8993 26.3008 27.87 26.31C27.6773 26.3901 27.4676 26.421 27.26 26.4C27.0797 26.3859 26.8991 26.4241 26.74 26.51C26.6323 26.5655 26.5101 26.5864 26.39 26.57H26.22C25.9653 26.5818 25.7116 26.6085 25.46 26.65C25.4343 26.66 25.4057 26.66 25.38 26.65C25.2193 26.6065 25.0482 26.6243 24.9 26.7C24.74 26.77 24.56 26.62 24.37 26.7C24.2138 26.7443 24.0524 26.7678 23.89 26.77C23.5786 26.7764 23.2679 26.8031 22.96 26.85C22.9168 26.8551 22.8732 26.8551 22.83 26.85C22.6651 26.8256 22.4966 26.8427 22.34 26.9C22.1676 26.9551 21.9824 26.9551 21.81 26.9C21.6688 26.8649 21.5212 26.8649 21.38 26.9C21.2488 26.9363 21.1151 26.963 20.98 26.98C20.9074 26.9951 20.8326 26.9951 20.76 26.98C20.6713 26.9431 20.5761 26.9242 20.48 26.9242C20.3839 26.9242 20.2888 26.9431 20.2 26.98C20.0969 26.9703 19.9931 26.9703 19.89 26.98C19.6663 26.9909 19.4426 26.9604 19.23 26.89C19.0676 26.8653 18.9024 26.8653 18.74 26.89H18.43C18.2508 26.9144 18.0692 26.9144 17.89 26.89C17.731 26.8651 17.569 26.8651 17.41 26.89C17.0995 26.9499 16.7805 26.9499 16.47 26.89C16.2528 26.84 16.0272 26.84 15.81 26.89C15.6784 26.92 15.5416 26.92 15.41 26.89C15.368 26.8747 15.322 26.8747 15.28 26.89C15.1354 26.9248 14.9846 26.9248 14.84 26.89C14.7801 26.885 14.7199 26.885 14.66 26.89C14.25 26.89 13.83 26.89 13.41 26.89C13.2038 26.9099 12.9962 26.9099 12.79 26.89C12.5975 26.8649 12.4025 26.8649 12.21 26.89C11.8119 26.9707 11.4061 27.0076 11 27C10.9275 26.984 10.8525 26.984 10.78 27C10.5872 27.0808 10.3789 27.1184 10.17 27.11C9.94692 27.125 9.72308 27.125 9.5 27.11C9.31111 27.0732 9.12673 27.0162 8.95 26.94C8.9324 26.9319 8.9131 26.9281 8.89374 26.9291C8.87438 26.93 8.85553 26.9357 8.83883 26.9455C8.82212 26.9553 8.80804 26.9691 8.79779 26.9855C8.78755 27.002 8.78144 27.0207 8.78 27.04C8.77522 27.0999 8.77522 27.1601 8.78 27.22V27.93C8.78 28.05 8.78 28.17 8.78 28.29C8.76482 28.5138 8.79544 28.7384 8.87 28.95C8.96179 29.2171 9.00908 29.4975 9.01 29.78C8.96233 30.1851 8.95897 30.5942 9 31C9.01491 31.1028 9.01491 31.2072 9 31.31C8.98508 31.5197 8.98508 31.7303 9 31.94C9 32.32 9 32.7 9 33.09C9.00464 33.3012 9.0247 33.5117 9.06 33.72C9.07519 33.883 9.07519 34.047 9.06 34.21C9.06 34.69 9.06 35.21 9.01 35.63C9.01 35.9 8.95 36.17 8.92 36.43C8.91075 36.5059 8.89054 36.58 8.86 36.65C8.79152 36.7822 8.767 36.9329 8.79 37.08C8.81364 37.3493 8.7865 37.6207 8.71 37.88C8.69974 37.953 8.69974 38.027 8.71 38.1C8.77356 38.5142 8.74626 38.9374 8.63 39.34C8.60085 39.425 8.57747 39.5119 8.56 39.6C8.5 40.05 8.56 40.52 8.43 40.97V41.06C8.43 41.43 8.43 41.8 8.43 42.17V42.35C8.47496 42.8122 8.47496 43.2778 8.43 43.74C8.41497 43.8729 8.41497 44.0071 8.43 44.14C8.47967 44.3741 8.45879 44.6177 8.37 44.84C8.36655 44.8666 8.36655 44.8934 8.37 44.92C8.31813 45.3188 8.22427 45.711 8.09 46.09C8.0801 46.1192 8.0801 46.1508 8.09 46.18C8.10049 46.2223 8.11735 46.2628 8.14 46.3C8.14 46.3 8.25 46.3 8.3 46.3L8.42 46.17C8.44691 46.1336 8.4844 46.1064 8.52735 46.0921C8.5703 46.0777 8.61663 46.077 8.66 46.09C8.96568 46.1546 9.27762 46.1848 9.59 46.18C9.83 46.18 10.06 46.18 10.31 46.18C10.475 46.1674 10.6409 46.1843 10.8 46.23C10.8984 46.255 11.0016 46.255 11.1 46.23C11.2925 46.2049 11.4875 46.2049 11.68 46.23C11.88 46.23 12.09 46.23 12.3 46.23C12.493 46.2151 12.687 46.2151 12.88 46.23C12.9396 46.2399 13.0004 46.2399 13.06 46.23C13.4262 46.1551 13.8038 46.1551 14.17 46.23C14.5026 46.2613 14.8374 46.2613 15.17 46.23C15.3579 46.19 15.5521 46.19 15.74 46.23C15.9631 46.245 16.1869 46.245 16.41 46.23C16.483 46.22 16.557 46.22 16.63 46.23H17.26C17.5271 46.2176 17.7944 46.2514 18.05 46.33C18.11 46.33 18.63 46.33 18.69 46.33C18.7287 46.3446 18.7713 46.3446 18.81 46.33C18.9506 46.2432 19.1155 46.2046 19.28 46.22H21.19C21.2127 46.2215 21.2355 46.2181 21.2568 46.2101C21.278 46.202 21.2974 46.1896 21.3135 46.1735C21.3296 46.1574 21.342 46.1381 21.3501 46.1168C21.3581 46.0955 21.3615 46.0727 21.36 46.05C21.3712 45.8713 21.398 45.694 21.44 45.52C21.469 45.327 21.5125 45.1365 21.57 44.95C21.5947 44.8679 21.6147 44.7844 21.63 44.7V43.89C21.6449 43.697 21.6449 43.5031 21.63 43.31C21.6198 43.1201 21.6198 42.9299 21.63 42.74C21.63 42.62 21.63 42.5 21.63 42.38C21.6251 42.3034 21.6251 42.2266 21.63 42.15C21.6634 41.8175 21.6634 41.4825 21.63 41.15C21.625 41.1068 21.625 41.0632 21.63 41.02C21.663 40.6875 21.663 40.3525 21.63 40.02C21.62 39.8568 21.62 39.6932 21.63 39.53C21.63 39.21 21.63 38.88 21.69 38.53C21.6745 38.1442 21.7253 37.7586 21.84 37.39C21.84 37.39 21.84 37.33 21.84 37.29C21.8559 37.1712 21.9123 37.0614 21.9998 36.9794C22.0873 36.8974 22.2004 36.8482 22.32 36.84C22.69 36.84 23.06 36.77 23.43 36.72C23.5763 36.7052 23.7237 36.7052 23.87 36.72C24.2026 36.6888 24.5374 36.6888 24.87 36.72C24.9121 36.7345 24.9579 36.7345 25 36.72C25.24 36.65 25.51 36.72 25.75 36.63C25.7928 36.6202 25.8372 36.6202 25.88 36.63C26.0966 36.6846 26.3234 36.6846 26.54 36.63C26.9125 36.5951 27.2875 36.5951 27.66 36.63C27.86 36.63 28.07 36.7 28.28 36.71C28.49 36.72 28.72 36.65 28.95 36.71C29.39 36.71 29.83 36.71 30.28 36.8C30.4441 36.8092 30.6059 36.843 30.76 36.9C30.8439 36.9305 30.9312 36.9506 31.02 36.96C31.358 37.0102 31.6921 37.0837 32.02 37.18C32.46 37 32.46 37 32.65 37.36H32.67ZM23.96 37.74H23.51C23.3136 37.7259 23.117 37.7639 22.94 37.85C22.885 37.8707 22.8366 37.9057 22.7997 37.9515C22.7627 37.9972 22.7387 38.0519 22.73 38.11C22.6898 38.2838 22.6696 38.4616 22.67 38.64C22.6948 38.789 22.6948 38.941 22.67 39.09C22.6248 39.3542 22.6047 39.622 22.61 39.89C22.61 40.29 22.61 40.69 22.61 41.09C22.61 41.49 22.61 41.69 22.61 41.99C22.6501 42.1339 22.6501 42.2861 22.61 42.43C22.56 42.6303 22.56 42.8397 22.61 43.04C22.6298 43.1592 22.6298 43.2808 22.61 43.4C22.61 43.84 22.61 44.29 22.52 44.74C22.4929 44.9165 22.5172 45.097 22.59 45.26C22.6219 45.336 22.6383 45.4176 22.6383 45.5C22.6383 45.5824 22.6219 45.664 22.59 45.74C22.5641 45.8116 22.544 45.8852 22.53 45.96C22.5273 45.9887 22.5335 46.0176 22.5478 46.0427C22.5621 46.0677 22.5839 46.0878 22.61 46.1C22.867 46.1773 23.1321 46.2243 23.4 46.24C23.58 46.24 23.75 46.15 23.93 46.24C24.1222 46.2702 24.3178 46.2702 24.51 46.24H24.95C25.2013 46.2484 25.452 46.2111 25.69 46.13C25.8032 46.0896 25.9268 46.0896 26.04 46.13L26.16 46.19C26.3011 46.2393 26.4514 46.2564 26.6 46.24H27.23C27.3587 46.2144 27.4913 46.2144 27.62 46.24C27.7055 46.2597 27.7945 46.2597 27.88 46.24C28.1344 46.2152 28.3856 46.1649 28.63 46.09C28.6688 46.0706 28.7116 46.0606 28.755 46.0606C28.7984 46.0606 28.8412 46.0706 28.88 46.09C28.9546 46.127 29.0367 46.1463 29.12 46.1463C29.2033 46.1463 29.2854 46.127 29.36 46.09C29.5046 46.0552 29.6554 46.0552 29.8 46.09C29.8849 46.1074 29.9684 46.1307 30.05 46.16C30.3959 46.2712 30.7652 46.2885 31.12 46.21C31.2218 46.185 31.3282 46.185 31.43 46.21H31.65C31.65 46.21 31.74 46.15 31.73 46.11C31.7003 45.9044 31.7003 45.6956 31.73 45.49C31.7519 45.195 31.7886 44.9013 31.84 44.61C31.8867 44.3899 31.9036 44.1646 31.89 43.94C31.885 43.8501 31.885 43.7599 31.89 43.67C31.9 43.5068 31.9 43.3432 31.89 43.18C31.89 42.8 31.89 42.41 31.89 42.02C31.8801 41.8702 31.8801 41.7198 31.89 41.57C31.94 41.22 31.96 40.86 31.98 40.51C31.9845 40.3616 32.0047 40.2142 32.04 40.07C32.0693 39.9383 32.0693 39.8017 32.04 39.67C31.9999 39.5397 31.9999 39.4003 32.04 39.27C32.1375 38.9116 32.1846 38.5414 32.18 38.17C32.1813 38.1398 32.1767 38.1096 32.1664 38.0812C32.156 38.0528 32.1402 38.0267 32.1198 38.0044C32.0993 37.9821 32.0747 37.964 32.0473 37.9513C32.0199 37.9385 31.9902 37.9313 31.96 37.93H31.73C31.478 37.9663 31.2209 37.9423 30.98 37.86C30.8121 37.8042 30.6369 37.7739 30.46 37.77C30.2055 37.7616 29.9517 37.7382 29.7 37.7C29.17 37.61 28.64 37.62 28.1 37.55H28.01C27.7442 37.5796 27.4758 37.5796 27.21 37.55C27.1072 37.5348 27.0028 37.5348 26.9 37.55C26.4277 37.5949 25.9523 37.5949 25.48 37.55C25.3469 37.5396 25.2131 37.5396 25.08 37.55C24.777 37.6338 24.4643 37.6775 24.15 37.68L23.96 37.74ZM79.3 24.24H79.45C79.5152 24.2243 79.5734 24.1873 79.6151 24.1347C79.6567 24.0821 79.6796 24.0171 79.68 23.95C79.6866 23.8896 79.6709 23.8289 79.6359 23.7792C79.6009 23.7295 79.5491 23.6942 79.49 23.68C79.3449 23.6501 79.1951 23.6501 79.05 23.68C78.9007 23.6998 78.7493 23.6998 78.6 23.68H77.93C77.6472 23.7048 77.3628 23.7048 77.08 23.68C77.007 23.67 76.933 23.67 76.86 23.68C76.58 23.73 76.29 23.68 76.01 23.68H75.74H75.3C74.9413 23.6939 74.5828 23.6465 74.24 23.54C74.1714 23.5203 74.0986 23.5203 74.03 23.54C73.7822 23.6146 73.5157 23.5968 73.28 23.49C73.1789 23.4597 73.0711 23.4597 72.97 23.49C72.62 23.57 73.14 23.56 72.78 23.54H72.24C72.0019 23.5404 71.7665 23.4892 71.55 23.39C71.4687 23.3514 71.38 23.3309 71.29 23.33C71.0254 23.2952 70.7564 23.3156 70.5 23.39C70.3262 23.4353 70.1438 23.4353 69.97 23.39C69.7607 23.365 69.5493 23.365 69.34 23.39C69.2238 23.405 69.1062 23.405 68.99 23.39H68.41H68.01C67.8959 23.3552 67.7741 23.3552 67.66 23.39C67.4465 23.4573 67.2239 23.4911 67 23.49H66.06H65.16C65.0184 23.4588 64.8716 23.4588 64.73 23.49C64.5652 23.5248 64.3949 23.5248 64.23 23.49C64.0854 23.4552 63.9346 23.4552 63.79 23.49C63.5808 23.5152 63.3693 23.5152 63.16 23.49H62.94C62.78 23.49 62.62 23.49 62.45 23.49C62.04 23.49 62.52 23.49 62.1 23.49C61.8784 23.4953 61.657 23.4752 61.44 23.43C61.2656 23.3902 61.0844 23.3902 60.91 23.43C60.7735 23.4398 60.6365 23.4398 60.5 23.43C60.4437 23.4205 60.3863 23.4205 60.33 23.43C60.0347 23.5344 59.7163 23.5551 59.41 23.49C59.2902 23.4801 59.1698 23.4801 59.05 23.49H58.11C57.9938 23.4751 57.8762 23.4751 57.76 23.49C57.6446 23.514 57.5254 23.514 57.41 23.49C57.2175 23.4649 57.0225 23.4649 56.83 23.49C56.6935 23.5 56.5565 23.5 56.42 23.49H56.12C55.56 23.49 55.01 23.49 54.46 23.49C53.61 23.49 53.46 23.39 52.62 23.32C52.4411 23.2996 52.2599 23.3202 52.09 23.38C51.8223 23.4796 51.5277 23.4796 51.26 23.38C51.2189 23.3624 51.1747 23.3533 51.13 23.3533C51.0853 23.3533 51.0411 23.3624 51 23.38C50.7646 23.4841 50.5062 23.5255 50.25 23.5L49.25 23.43C49.1818 23.4299 49.1148 23.4124 49.0553 23.3792C48.9958 23.3459 48.9458 23.298 48.91 23.24C48.8837 23.2029 48.8444 23.1771 48.7998 23.1678C48.7553 23.1586 48.7089 23.1665 48.67 23.19C48.6036 23.2253 48.5331 23.2522 48.46 23.27C48.3184 23.3247 48.1616 23.3247 48.02 23.27C47.7815 23.1924 47.5288 23.1685 47.28 23.2C47.1752 23.2061 47.0714 23.2228 46.97 23.25C46.6315 23.3815 46.2594 23.399 45.91 23.3C45.7539 23.2502 45.5861 23.2502 45.43 23.3C45.357 23.3104 45.283 23.3104 45.21 23.3H44.3C44.1836 23.2898 44.0664 23.2898 43.95 23.3C43.7766 23.3477 43.5935 23.3477 43.42 23.3C43.2023 23.2387 42.9744 23.2217 42.75 23.25C42.6182 23.2553 42.4873 23.2754 42.36 23.31C42.15 23.31 42.15 23.31 42.06 23.16C42.0567 23.1368 42.0567 23.1132 42.06 23.09C42.0422 23.065 42.0179 23.0452 41.9897 23.0329C41.9615 23.0206 41.9305 23.0161 41.9 23.02C41.7973 23.0296 41.7015 23.0757 41.63 23.15C41.5523 23.2192 41.4819 23.2963 41.42 23.38C41.4054 23.4187 41.4054 23.4613 41.42 23.5C41.42 23.55 41.48 23.57 41.52 23.57C41.7884 23.5734 42.0547 23.6172 42.31 23.7C42.4688 23.7485 42.634 23.7721 42.8 23.77C43.0954 23.7725 43.3887 23.8197 43.67 23.91C43.9867 24.0397 44.3282 24.0978 44.67 24.08C44.743 24.0701 44.817 24.0701 44.89 24.08H45.2L46.04 24.19C46.1553 24.2149 46.2747 24.2149 46.39 24.19C46.5041 24.1552 46.6259 24.1552 46.74 24.19C46.8411 24.2203 46.9489 24.2203 47.05 24.19H47.28L48.28 24.25C48.4127 24.2536 48.5427 24.2878 48.66 24.35C48.7062 24.3745 48.7577 24.3873 48.81 24.3873C48.8623 24.3873 48.9138 24.3745 48.96 24.35C49.1338 24.3051 49.3162 24.3051 49.49 24.35C49.562 24.3696 49.638 24.3696 49.71 24.35C49.9194 24.2666 50.1477 24.2424 50.37 24.28C50.4426 24.2946 50.5174 24.2946 50.59 24.28C50.8254 24.2451 51.0646 24.2451 51.3 24.28C51.5816 24.3201 51.8656 24.3402 52.15 24.34C52.1928 24.3308 52.2372 24.3308 52.28 24.34C52.4252 24.3698 52.5722 24.3898 52.72 24.4C53.11 24.45 52.8 24.48 53.18 24.52C53.3427 24.5401 53.5073 24.5401 53.67 24.52C53.7597 24.51 53.8503 24.51 53.94 24.52C54.0266 24.5249 54.1134 24.5249 54.2 24.52C54.5364 24.5063 54.873 24.5399 55.2 24.62H55.33C55.643 24.64 55.957 24.64 56.27 24.62H56.94C57.2997 24.6235 57.6586 24.5866 58.01 24.51C58.083 24.4996 58.157 24.4996 58.23 24.51H58.85C59.1031 24.5252 59.3569 24.5252 59.61 24.51C59.9423 24.4737 60.2777 24.4737 60.61 24.51C60.7719 24.5401 60.9381 24.5401 61.1 24.51C61.275 24.4752 61.455 24.4752 61.63 24.51C61.9623 24.5464 62.2977 24.5464 62.63 24.51C62.7919 24.4799 62.9581 24.4799 63.12 24.51C63.41 24.59 62.8 24.61 63.12 24.59H63.65C63.7863 24.5752 63.9237 24.5752 64.06 24.59C64.4511 24.6721 64.8504 24.709 65.25 24.7C65.3531 24.6896 65.4569 24.6896 65.56 24.7L66.05 24.78C66.2235 24.8277 66.4066 24.8277 66.58 24.78C66.89 24.68 67.23 24.72 67.58 24.62C67.6391 24.6052 67.7009 24.6052 67.76 24.62H69.19C69.3064 24.6302 69.4236 24.6302 69.54 24.62C70.0258 24.5292 70.5242 24.5292 71.01 24.62C71.2429 24.6714 71.4822 24.6883 71.72 24.67C71.9636 24.6725 72.2063 24.6388 72.44 24.57V24.57C72.7528 24.545 73.0672 24.545 73.38 24.57C73.4221 24.5845 73.4679 24.5845 73.51 24.57C73.8226 24.5399 74.1374 24.5399 74.45 24.57C74.8507 24.5883 75.2522 24.5716 75.65 24.52C75.93 24.52 76.21 24.46 76.49 24.41C76.7401 24.3599 76.9952 24.3397 77.25 24.35C77.64 24.35 78.02 24.29 78.41 24.29C78.4699 24.2874 78.5282 24.2702 78.58 24.24C78.8158 24.1349 79.0805 24.1137 79.33 24.18L79.3 24.24ZM9.55 23.71H8.88C8.79757 23.7124 8.71901 23.7455 8.65979 23.8029C8.60056 23.8602 8.56496 23.9377 8.56 24.02C8.54503 24.1696 8.54503 24.3204 8.56 24.47C8.59687 24.7048 8.6136 24.9423 8.61 25.18C8.59572 25.2526 8.59572 25.3274 8.61 25.4C8.66551 25.5208 8.72898 25.6377 8.8 25.75C8.81796 25.7841 8.84355 25.8135 8.87478 25.8361C8.906 25.8586 8.94201 25.8737 8.98 25.88C9.09473 25.9101 9.21527 25.9101 9.33 25.88C9.51598 25.8247 9.71402 25.8247 9.9 25.88C10.1612 25.9466 10.4308 25.9736 10.7 25.96C11.1 25.9187 11.5037 25.9322 11.9 26C11.9894 26.0147 12.0806 26.0147 12.17 26C12.736 25.96 13.304 25.96 13.87 26H14H15.12C15.2231 25.9898 15.3269 25.9898 15.43 26L16.01 26.07C16.0994 26.0849 16.1906 26.0849 16.28 26.07C16.5291 26.04 16.7809 26.04 17.03 26.07L17.79 26.12H18.01C18.3404 26.1825 18.6796 26.1825 19.01 26.12C19.0941 26.0903 19.1859 26.0903 19.27 26.12C19.571 26.213 19.8896 26.2335 20.2 26.18C20.5982 26.1333 20.9993 26.1166 21.4 26.13C21.6209 26.1641 21.8467 26.147 22.06 26.08H22.2C22.62 26.08 23.04 26.08 23.45 26.01C23.596 25.99 23.744 25.99 23.89 26.01C24.0947 26.0499 24.3053 26.0499 24.51 26.01C24.6999 25.9648 24.8949 25.9446 25.09 25.95C25.3 25.95 25.5 25.95 25.71 25.95C25.8707 25.9209 26.0259 25.8669 26.17 25.79C26.17 25.79 26.17 25.79 26.17 25.79C25.9748 25.6729 25.7414 25.637 25.52 25.69C25.3329 25.733 25.1419 25.7564 24.95 25.76C24.63 25.76 24.32 25.76 24.01 25.76C23.9673 25.7702 23.9227 25.7702 23.88 25.76C23.5944 25.7251 23.3056 25.7251 23.02 25.76C22.6874 25.7919 22.3526 25.7919 22.02 25.76H21.39H20.05C19.8403 25.7656 19.632 25.7246 19.44 25.64C19.3277 25.5949 19.2023 25.5949 19.09 25.64H19C18.6618 25.6396 18.3251 25.6867 18 25.78C17.6 25.78 17.2 25.84 16.8 25.85C16.6389 25.8399 16.4786 25.8198 16.32 25.79C16.1597 25.6979 15.9729 25.6626 15.79 25.69H14.59C14.5168 25.695 14.4433 25.695 14.37 25.69C13.99 25.61 13.6 25.61 13.22 25.54C12.6733 25.455 12.1167 25.455 11.57 25.54C11.4672 25.5544 11.3628 25.5544 11.26 25.54C10.99 25.54 10.72 25.54 10.45 25.54C10.2889 25.5218 10.126 25.5496 9.98 25.62L9.7 25.76C9.58055 25.8248 9.44575 25.8559 9.31 25.85C9.24393 25.8522 9.17848 25.8367 9.12044 25.805C9.06241 25.7734 9.01391 25.7268 8.98 25.67C8.91634 25.5663 8.8754 25.4503 8.85989 25.3297C8.84437 25.209 8.85464 25.0864 8.89 24.97C8.90043 24.9202 8.92334 24.8739 8.95657 24.8355C8.98981 24.797 9.03228 24.7676 9.08 24.75H9.22L10.04 24.57H10.26H10.48C10.8146 24.6144 11.1548 24.5906 11.48 24.5C11.6782 24.4265 11.8888 24.3926 12.1 24.4C12.3676 24.392 12.6354 24.4088 12.9 24.45C13.0158 24.4706 13.1342 24.4706 13.25 24.45C13.4752 24.4409 13.6999 24.4784 13.91 24.56C14.0233 24.5996 14.1467 24.5996 14.26 24.56C14.4473 24.515 14.6427 24.515 14.83 24.56H15.18C15.3131 24.5702 15.4469 24.5702 15.58 24.56C15.73 24.56 15.87 24.64 16.02 24.65C16.1362 24.6649 16.2538 24.6649 16.37 24.65C16.5793 24.625 16.7907 24.625 17 24.65C17.23 24.65 17.47 24.65 17.71 24.65H18.03H18.47H19C19.1196 24.6354 19.2404 24.6354 19.36 24.65C19.6913 24.6951 20.0259 24.7118 20.36 24.7C20.7749 24.6868 21.1902 24.7136 21.6 24.78C21.79 24.78 21.98 24.85 22.18 24.78H23.07C23.1731 24.7697 23.2769 24.7697 23.38 24.78C23.5415 24.8149 23.7085 24.8149 23.87 24.78C24.1339 24.7261 24.4061 24.7261 24.67 24.78C24.7858 24.8006 24.9042 24.8006 25.02 24.78C25.166 24.7599 25.314 24.7599 25.46 24.78C25.5792 24.7998 25.7008 24.7998 25.82 24.78C26.1516 24.732 26.4884 24.732 26.82 24.78C27.27 24.78 27.72 24.78 28.16 24.78C28.6 24.78 28.82 24.72 29.16 24.71C29.3832 24.7027 29.6047 24.6692 29.82 24.61C30.0418 24.5207 30.2828 24.4897 30.52 24.52H30.61C31.03 24.46 31.44 24.44 31.85 24.35C32.2954 24.3083 32.7368 24.2314 33.17 24.12C33.2298 24.114 33.2901 24.114 33.35 24.12C33.4066 24.1248 33.4634 24.1248 33.52 24.12C33.6725 24.0597 33.8361 24.0324 34 24.04C34.37 24.04 34.74 24.04 35.12 23.98C35.3402 23.9686 35.5583 23.9317 35.77 23.87C35.7969 23.8653 35.8219 23.8529 35.8419 23.8342C35.8618 23.8155 35.8758 23.7913 35.8822 23.7647C35.8886 23.7381 35.887 23.7103 35.8778 23.6846C35.8685 23.6588 35.8519 23.6364 35.83 23.62C35.8034 23.5949 35.7719 23.5758 35.7375 23.5637C35.703 23.5516 35.6664 23.547 35.63 23.55C35.5701 23.5452 35.5099 23.5452 35.45 23.55L34.92 23.61C34.6515 23.5881 34.3844 23.5514 34.12 23.5C33.9884 23.47 33.8516 23.47 33.72 23.5C33.6671 23.4909 33.6129 23.4909 33.56 23.5C33.45 23.55 33.38 23.67 33.25 23.67C33.12 23.67 33.01 23.67 32.89 23.67H32.49C32.3613 23.6444 32.2287 23.6444 32.1 23.67L31.84 23.75C31.4719 23.8846 31.0681 23.8846 30.7 23.75C30.6161 23.7195 30.5288 23.6994 30.44 23.69C30.21 23.69 29.97 23.69 29.73 23.69H28.79C28.5356 23.6949 28.2832 23.7353 28.04 23.81L27.88 23.87C27.8054 23.907 27.7233 23.9263 27.64 23.9263C27.5567 23.9263 27.4746 23.907 27.4 23.87C27.362 23.8481 27.3189 23.8365 27.275 23.8365C27.2311 23.8365 27.188 23.8481 27.15 23.87C26.9291 23.9657 26.6822 23.9833 26.45 23.92C26.2717 23.885 26.0883 23.885 25.91 23.92C25.7523 23.9592 25.5859 23.9415 25.44 23.87C25.3437 23.8236 25.236 23.8062 25.13 23.82C24.8623 23.7962 24.5926 23.813 24.33 23.87C24.05 23.97 23.8 23.78 23.53 23.82H23.13C22.8217 23.7834 22.5092 23.8071 22.21 23.89C21.9343 23.9529 21.6527 23.9865 21.37 23.99C21 23.99 20.62 23.99 20.25 23.99C19.8756 24.01 19.5001 23.9899 19.13 23.93C19.0615 23.9097 18.9885 23.9097 18.92 23.93C18.7896 23.9695 18.6504 23.9695 18.52 23.93C18.4474 23.9149 18.3726 23.9149 18.3 23.93C18.0771 23.9502 17.8529 23.9502 17.63 23.93C17.4375 23.9053 17.2425 23.9053 17.05 23.93C16.9469 23.9402 16.8431 23.9402 16.74 23.93L15.45 23.85C15.3735 23.8537 15.2974 23.8364 15.23 23.8C15.0474 23.6691 14.8236 23.6087 14.6 23.63H14.24C14.0047 23.6619 13.7675 23.6786 13.53 23.68C13.4439 23.6857 13.3593 23.706 13.28 23.74C13.1864 23.7881 13.0847 23.8186 12.98 23.83C12.77 23.83 12.56 23.83 12.36 23.83C12.258 23.7833 12.1472 23.7591 12.035 23.7591C11.9228 23.7591 11.812 23.7833 11.71 23.83C11.6504 23.8403 11.5896 23.8403 11.53 23.83H10.77C10.6502 23.82 10.5298 23.82 10.41 23.83C10.1202 23.8174 9.83221 23.7772 9.55 23.71V23.71ZM78.55 26.91H79.21C79.2562 26.9079 79.3014 26.8962 79.3428 26.8755C79.3841 26.8548 79.4206 26.8257 79.45 26.79C79.4946 26.7511 79.5308 26.7036 79.5566 26.6503C79.5824 26.597 79.5971 26.5391 79.6 26.48C79.6 26.25 79.6 26.01 79.6 25.77C79.6057 25.7436 79.6057 25.7164 79.6 25.69C79.5967 25.6519 79.5813 25.6159 79.5561 25.5871C79.531 25.5584 79.4973 25.5384 79.46 25.53C79.2485 25.4551 79.0216 25.4344 78.8 25.47C78.5549 25.5398 78.2951 25.5398 78.05 25.47C77.8827 25.4052 77.6973 25.4052 77.53 25.47C77.3658 25.5392 77.1879 25.57 77.01 25.56C76.8774 25.5403 76.7426 25.5403 76.61 25.56C76.0778 25.6944 75.5278 25.745 74.98 25.71H74.8L74.65 25.79C74.65 25.79 74.65 25.84 74.65 25.87L74.9 25.95C75.223 26.0703 75.5584 26.1542 75.9 26.2C76.0759 26.2271 76.2474 26.2775 76.41 26.35C76.5867 26.4262 76.7711 26.4832 76.96 26.52C77.1225 26.5386 77.2811 26.5825 77.43 26.65C77.633 26.7354 77.8499 26.7829 78.07 26.79L78.55 26.91ZM37.07 25H37.16C37.6058 24.9599 38.0542 24.9599 38.5 25H38.63H39.21C39.2999 25.0049 39.3901 25.0049 39.48 25C39.649 24.9515 39.8242 24.928 40 24.93H40.18C40.2074 24.9217 40.2321 24.9061 40.2514 24.885C40.2708 24.8639 40.2841 24.838 40.29 24.81C40.2875 24.7875 40.2786 24.7661 40.2645 24.7484C40.2503 24.7307 40.2314 24.7174 40.21 24.71C40.0288 24.6382 39.8348 24.6041 39.64 24.61C39.3856 24.6186 39.131 24.6019 38.88 24.56C38.7605 24.545 38.6395 24.545 38.52 24.56C38.2123 24.6065 37.9009 24.6233 37.59 24.61C37.3046 24.6063 37.0197 24.6331 36.74 24.69C35.9802 24.8434 35.2037 24.8972 34.43 24.85H34.21C34.137 24.8405 34.063 24.8405 33.99 24.85C33.7929 24.9246 33.5884 24.9783 33.38 25.01L33.27 25.06C33.2537 25.0835 33.2449 25.1114 33.2449 25.14C33.2449 25.1686 33.2537 25.1965 33.27 25.22C33.2971 25.2484 33.3297 25.2711 33.3658 25.2866C33.4019 25.302 33.4407 25.31 33.48 25.31H33.87C34.01 25.31 34.14 25.26 34.27 25.25H35.03C35.19 25.25 35.35 25.25 35.52 25.2C35.6066 25.1947 35.6934 25.1947 35.78 25.2L37.07 25ZM41.26 24.88H41.47C41.47 24.88 41.47 24.88 41.47 24.81C41.3439 24.7445 41.2015 24.7167 41.06 24.73C41.0341 24.7209 41.0059 24.7209 40.98 24.73C40.98 24.73 40.98 24.73 40.98 24.8C40.98 24.87 40.98 24.86 40.98 24.86L41.26 24.88ZM38.11 23.21C38.11 23.21 37.99 23.21 37.99 23.29H38.1C38.1 23.29 38.1 23.24 38.11 23.23V23.21Z" fill="#231815"/>
<path fill-rule="evenodd" clip-rule="evenodd" d="M58.18 38.48C58.1873 38.5398 58.1873 38.6002 58.18 38.66C58.1573 38.7248 58.1568 38.7954 58.1785 38.8605C58.2002 38.9257 58.2429 38.9818 58.3 39.02C58.3274 39.0437 58.3496 39.0728 58.3651 39.1055C58.3806 39.1382 58.3891 39.1738 58.39 39.21C58.4298 39.4785 58.4298 39.7515 58.39 40.02C58.3455 40.204 58.3455 40.396 58.39 40.58C58.4506 40.7501 58.4811 40.9294 58.48 41.11C58.4888 41.215 58.4694 41.3205 58.4237 41.4155C58.378 41.5104 58.3076 41.5914 58.22 41.65C58.1238 41.7198 58.0152 41.7707 57.9 41.8C57.8288 41.8252 57.7512 41.8252 57.68 41.8C57.604 41.7681 57.5224 41.7517 57.44 41.7517C57.3576 41.7517 57.276 41.7681 57.2 41.8C57.0016 41.9001 56.7822 41.9515 56.56 41.95C56.3746 41.9785 56.1875 41.9952 56 42C55.8225 42.0042 55.6458 41.9737 55.48 41.91C55.4314 41.8876 55.3785 41.876 55.325 41.876C55.2715 41.876 55.2186 41.8876 55.17 41.91C54.8458 42.0205 54.4942 42.0205 54.17 41.91C54.1216 41.8748 54.0662 41.8503 54.0076 41.8382C53.9489 41.8262 53.8884 41.8268 53.83 41.84C53.7409 41.8485 53.6512 41.8314 53.5715 41.7906C53.4917 41.7499 53.4253 41.6872 53.38 41.61C53.3663 41.5712 53.3663 41.5288 53.38 41.49C53.37 41.3702 53.37 41.2498 53.38 41.13C53.4409 40.8002 53.4711 40.4654 53.47 40.13C53.4601 40.0704 53.4601 40.0096 53.47 39.95C53.5401 39.5271 53.5702 39.0985 53.56 38.67C53.5627 38.3109 53.6166 37.9539 53.72 37.61C53.734 37.5522 53.7698 37.502 53.82 37.47C53.9333 37.396 54.0647 37.3545 54.2 37.35C54.2684 37.3291 54.3416 37.3291 54.41 37.35C54.5457 37.441 54.7068 37.4866 54.87 37.48C55.1554 37.4763 55.4403 37.5031 55.72 37.56L56.08 37.61C56.1963 37.5962 56.3137 37.5962 56.43 37.61C56.7347 37.68 57.0488 37.7003 57.36 37.67C57.5971 37.726 57.8169 37.8393 58 38C58.0397 38.0231 58.0712 38.0581 58.09 38.1C58.1582 38.2145 58.1897 38.3471 58.18 38.48V38.48ZM55.73 41H56.17C56.442 40.9849 56.711 40.9345 56.97 40.85C57.0329 40.8305 57.0911 40.7982 57.141 40.7552C57.1909 40.7122 57.2314 40.6593 57.26 40.6C57.33 40.45 57.4 40.3 57.46 40.15C57.4795 40.078 57.4795 40.002 57.46 39.93C57.4097 39.7877 57.4097 39.6324 57.46 39.49C57.465 39.4468 57.465 39.4032 57.46 39.36C57.4647 39.3078 57.4514 39.2555 57.4223 39.2118C57.3932 39.1682 57.35 39.1358 57.3 39.12C57.06 39.04 56.8 39.01 56.57 38.91C56.34 38.81 56.2 38.81 56.02 38.75C55.8422 38.71 55.6578 38.71 55.48 38.75C55.3181 38.7801 55.1519 38.7801 54.99 38.75H54.9C54.8554 38.7518 54.8123 38.767 54.7766 38.7938C54.7409 38.8206 54.7142 38.8577 54.7 38.9C54.6537 39.088 54.617 39.2783 54.59 39.47C54.59 39.73 54.53 40 54.48 40.26C54.4701 40.3497 54.4701 40.4403 54.48 40.53C54.4924 40.5894 54.5199 40.6445 54.56 40.69C54.6404 40.7885 54.7409 40.8689 54.8546 40.9258C54.9684 40.9826 55.0929 41.0148 55.22 41.02L55.73 41Z" fill="#231815"/>
<path fill-rule="evenodd" clip-rule="evenodd" d="M69.29 42.05C69.1179 42.0207 68.9421 42.0207 68.77 42.05C68.4599 42.1051 68.1446 42.1252 67.83 42.11C67.757 42.1002 67.683 42.1002 67.61 42.11C67.511 42.1299 67.409 42.1299 67.31 42.11C67.2043 42.09 67.0957 42.09 66.99 42.11C66.8184 42.145 66.6416 42.145 66.47 42.11C66.4047 42.0965 66.3427 42.0701 66.2878 42.0323C66.2328 41.9946 66.186 41.9462 66.15 41.89C66.0773 41.8038 66.0243 41.7028 65.995 41.5939C65.9656 41.485 65.9605 41.3711 65.98 41.26C66.0097 41.1759 66.0097 41.0841 65.98 41C65.9404 40.8867 65.9404 40.7633 65.98 40.65C65.9752 40.6068 65.9752 40.5632 65.98 40.52C66.0782 40.1963 66.1188 39.8578 66.1 39.52C66.0798 39.2336 66.1102 38.9458 66.19 38.67C66.19 38.51 66.25 38.35 66.28 38.19C66.3117 38.0282 66.4037 37.8844 66.5373 37.7879C66.671 37.6913 66.8364 37.6492 67 37.67C67.1353 37.6902 67.2668 37.7306 67.39 37.79C67.5215 37.8554 67.6638 37.896 67.81 37.91C67.8695 37.8995 67.9305 37.8995 67.99 37.91C68.3326 38.0191 68.6904 38.0731 69.05 38.07C69.2863 38.0895 69.5237 38.0895 69.76 38.07L69.93 38.01L70.07 37.91C70.1266 37.8734 70.1926 37.8539 70.26 37.8539C70.3274 37.8539 70.3934 37.8734 70.45 37.91L70.78 38.06C70.8118 38.0787 70.8361 38.1079 70.8489 38.1425C70.8616 38.1771 70.862 38.2151 70.85 38.25C70.78 38.52 70.69 38.79 70.62 39.06C70.5808 39.1587 70.5605 39.2638 70.56 39.37C70.5897 39.5622 70.5897 39.7578 70.56 39.95C70.5057 40.1191 70.5057 40.3009 70.56 40.47V40.65C70.5719 40.8734 70.6088 41.0948 70.67 41.31C70.7017 41.4424 70.6823 41.5819 70.6155 41.7006C70.5488 41.8193 70.4396 41.9084 70.31 41.95C69.9809 42.0549 69.6332 42.089 69.29 42.05V42.05ZM68.08 40.93H68.25C68.4975 40.9798 68.7525 40.9798 69 40.93C69.066 40.9217 69.1274 40.8916 69.1745 40.8445C69.2216 40.7974 69.2517 40.736 69.26 40.67C69.2742 40.4466 69.3249 40.227 69.41 40.02C69.4568 39.8777 69.4837 39.7297 69.49 39.58C69.497 39.5209 69.4828 39.4613 69.4498 39.4118C69.4168 39.3623 69.3672 39.3262 69.31 39.31C69.0428 39.2144 68.7633 39.1571 68.48 39.14C68.2865 39.1402 68.0941 39.1098 67.91 39.05C67.779 39.0148 67.641 39.0148 67.51 39.05C67.4526 39.0584 67.399 39.0839 67.3562 39.1231C67.3134 39.1624 67.2834 39.2135 67.27 39.27C67.27 39.55 67.18 39.83 67.11 40.1C67.0724 40.3048 67.0491 40.512 67.04 40.72C67.0403 40.765 67.055 40.8087 67.082 40.8448C67.109 40.8808 67.1469 40.9071 67.19 40.92C67.4146 40.9981 67.6544 41.0221 67.89 40.99L68.08 40.93Z" fill="#231815"/>
<path fill-rule="evenodd" clip-rule="evenodd" d="M39.27 40.76C39.27 40.52 39.27 40.28 39.27 40.05C39.2645 39.9601 39.2645 39.8699 39.27 39.78C39.27 39.63 39.27 39.48 39.27 39.34C39.3069 39.0131 39.4313 38.7022 39.63 38.44C39.6581 38.395 39.6983 38.3589 39.7461 38.3358C39.7939 38.3128 39.8473 38.3039 39.9 38.31C40.26 38.31 40.62 38.31 40.97 38.31C41.0532 38.3444 41.1468 38.3444 41.23 38.31C41.4478 38.2065 41.6919 38.1716 41.93 38.21C42.2689 38.2453 42.6037 38.3122 42.93 38.41C43.0324 38.43 43.1376 38.43 43.24 38.41C43.3731 38.4 43.5069 38.4 43.64 38.41H43.82C43.865 38.4134 43.9088 38.4263 43.9485 38.4478C43.9882 38.4694 44.0228 38.4991 44.0502 38.5349C44.0776 38.5708 44.0971 38.6121 44.1074 38.6561C44.1177 38.7 44.1186 38.7457 44.11 38.79C44.0949 38.8894 44.0949 38.9906 44.11 39.09C44.1523 39.2813 44.1202 39.4816 44.02 39.65C43.9398 39.8112 43.9019 39.9901 43.91 40.17C43.91 40.53 43.91 40.89 43.91 41.24C43.9165 41.3452 43.8888 41.4497 43.8312 41.538C43.7735 41.6263 43.689 41.6936 43.59 41.73H43.46C43.328 41.7379 43.1988 41.7719 43.08 41.83C42.9907 41.8453 42.8994 41.8453 42.81 41.83C42.3504 41.8596 41.8983 41.9608 41.47 42.13C41.1534 42.2592 40.8105 42.3106 40.47 42.28C40.3801 42.2849 40.2899 42.2849 40.2 42.28C40.0262 42.2351 39.8438 42.2351 39.67 42.28C39.6144 42.2953 39.5556 42.2953 39.5 42.28C39.4472 42.2795 39.3961 42.2615 39.3545 42.229C39.3129 42.1965 39.2832 42.1511 39.27 42.1C39.1794 41.8602 39.132 41.6063 39.13 41.35V40.64L39.27 40.76ZM40.95 41.28L41.45 41.12C41.5659 41.1006 41.6841 41.1006 41.8 41.12C42.0395 41.1135 42.2749 41.0555 42.49 40.95C42.6585 40.8837 42.7947 40.7546 42.87 40.59C42.9645 40.3727 43.009 40.1368 43 39.9C43.0038 39.8617 42.9975 39.8231 42.9817 39.788C42.9659 39.7529 42.9412 39.7225 42.91 39.7C42.7741 39.6095 42.6208 39.5482 42.46 39.52L42.05 39.47C41.8482 39.4351 41.6418 39.4351 41.44 39.47C41.2612 39.4998 41.081 39.5198 40.9 39.53H40.73C40.6699 39.5397 40.6143 39.5681 40.5712 39.6112C40.5281 39.6543 40.4997 39.7099 40.49 39.77C40.49 40.02 40.49 40.27 40.49 40.52C40.485 40.5665 40.485 40.6135 40.49 40.66C40.48 41.12 40.46 41.13 41 41.28H40.95Z" fill="#231815"/>
<path fill-rule="evenodd" clip-rule="evenodd" d="M70 34.15H69.77H69.64C69.2687 34.1428 68.8974 34.1662 68.53 34.22C68.1862 34.2247 67.8466 34.296 67.53 34.43H67.45C67.37 34.4511 67.2856 34.4481 67.2074 34.4214C67.1291 34.3947 67.0604 34.3455 67.01 34.28C67.01 34.21 66.93 34.12 66.88 34.05C66.838 33.9716 66.816 33.884 66.816 33.795C66.816 33.706 66.838 33.6184 66.88 33.54C66.9783 33.2601 67.0323 32.9666 67.04 32.67C67.0595 32.5811 67.0595 32.4889 67.04 32.4C66.9719 32.1733 66.9481 31.9357 66.97 31.7C66.97 31.48 66.97 31.25 66.97 31.03C66.9785 30.8661 67.0303 30.7074 67.12 30.57C67.1828 30.4589 67.2706 30.364 67.3765 30.2928C67.4824 30.2217 67.6034 30.1762 67.73 30.16C67.8341 30.1459 67.9353 30.1156 68.03 30.07C68.2068 29.9837 68.4063 29.9557 68.6 29.99C68.7316 30.0036 68.8619 30.027 68.99 30.06C69.2214 30.1217 69.4607 30.1486 69.7 30.14C70.0697 30.16 70.4403 30.16 70.81 30.14C70.8997 30.1302 70.9903 30.1302 71.08 30.14C71.1839 30.1519 71.2844 30.1846 71.3755 30.2361C71.4665 30.2877 71.5463 30.357 71.61 30.44C71.6555 30.4907 71.6862 30.5531 71.6985 30.6201C71.7109 30.6872 71.7045 30.7564 71.68 30.82C71.62 30.96 71.56 31.09 71.49 31.22C71.3787 31.4161 71.3138 31.635 71.3 31.86C71.3 32.13 71.3 32.39 71.3 32.66C71.3 32.73 71.3 32.81 71.3 32.88C71.2845 33.0163 71.3052 33.1543 71.36 33.28C71.3802 33.3361 71.3844 33.3967 71.372 33.455C71.3596 33.5133 71.3312 33.567 71.29 33.61L71.19 33.71C71.1093 33.8262 70.9991 33.9188 70.8709 33.9786C70.7427 34.0383 70.6009 34.0629 70.46 34.05L70 34.15ZM68 32.27V32.49C68.005 32.5799 68.005 32.6701 68 32.76C68.0012 32.8495 68.034 32.9357 68.0925 33.0033C68.1511 33.071 68.2316 33.1159 68.32 33.13C68.4341 33.1648 68.5559 33.1648 68.67 33.13C68.825 33.0792 68.9869 33.0522 69.15 33.05H69.69C69.7563 33.0479 69.8206 33.0271 69.8754 32.9899C69.9303 32.9528 69.9735 32.9008 70 32.84C70.1388 32.5829 70.1746 32.2825 70.1 32C70.08 31.8105 70.08 31.6195 70.1 31.43C70.113 31.3866 70.1123 31.3403 70.0979 31.2974C70.0836 31.2544 70.0564 31.2169 70.02 31.19C69.9774 31.1785 69.9326 31.1785 69.89 31.19C69.6537 31.2087 69.416 31.1815 69.19 31.11C69.118 31.0905 69.042 31.0905 68.97 31.11C68.7895 31.1748 68.6012 31.2152 68.41 31.23C68.2773 31.2549 68.1561 31.3218 68.0642 31.4208C67.9724 31.5199 67.9148 31.6458 67.9 31.78C67.92 31.94 67.91 32.1 67.91 32.27H68Z" fill="#231815"/>
<path fill-rule="evenodd" clip-rule="evenodd" d="M58.16 33.72C58.0245 33.6945 57.8855 33.6945 57.75 33.72C57.4772 33.81 57.1828 33.81 56.91 33.72C56.7652 33.6873 56.6148 33.6873 56.47 33.72C56.2784 33.7598 56.0791 33.7388 55.9 33.66C55.8323 33.6347 55.7577 33.6347 55.69 33.66C55.4676 33.6924 55.2406 33.6683 55.03 33.59L54.6 33.46C54.4797 33.4225 54.3752 33.3463 54.3028 33.2432C54.2305 33.1401 54.1943 33.0159 54.2 32.89C54.2031 32.6369 54.2367 32.3851 54.3 32.14C54.3102 32.0973 54.3102 32.0527 54.3 32.01C54.3405 31.6404 54.4006 31.2732 54.48 30.91C54.4949 30.8072 54.4949 30.7028 54.48 30.6C54.4794 30.4654 54.5176 30.3335 54.59 30.22C54.6577 30.1192 54.7311 30.0223 54.81 29.93C54.8519 29.8786 54.9056 29.838 54.9665 29.8119C55.0275 29.7858 55.0939 29.7748 55.16 29.78C55.2796 29.7946 55.4004 29.7946 55.52 29.78C55.593 29.77 55.667 29.77 55.74 29.78C56.03 29.84 56.33 29.84 56.62 29.88C56.7947 29.9148 56.972 29.9348 57.15 29.94C57.2999 29.9323 57.4489 29.967 57.58 30.04C57.6691 30.0878 57.7689 30.1119 57.87 30.11C58.0069 30.1228 58.1396 30.1636 58.26 30.23L58.76 30.51C58.8259 30.5485 58.8865 30.5955 58.94 30.65C59.0165 30.7121 59.0698 30.7982 59.0916 30.8943C59.1134 30.9904 59.1022 31.091 59.06 31.18V31.26C58.9231 31.5424 58.8777 31.8605 58.93 32.17C58.93 32.32 58.93 32.47 58.99 32.61C59.05 32.75 58.99 32.88 58.99 33.01C58.9949 33.0866 58.9949 33.1634 58.99 33.24C58.9704 33.3955 58.8944 33.5384 58.7765 33.6417C58.6585 33.7449 58.5067 33.8012 58.35 33.8L58.16 33.72ZM57.06 32.59H57.51C57.5647 32.5733 57.6157 32.5462 57.66 32.51C57.7274 32.4609 57.7837 32.3981 57.825 32.3257C57.8664 32.2533 57.8919 32.173 57.9 32.09C57.9 31.95 57.9 31.8 57.9 31.65C57.9135 31.567 57.8967 31.4819 57.8526 31.4103C57.8086 31.3387 57.7402 31.2853 57.66 31.26L57.2 31.09C57.1024 31.0572 57.002 31.0338 56.9 31.02C56.7368 31.01 56.5732 31.01 56.41 31.02L56 31C55.9178 31.0089 55.8405 31.0438 55.7794 31.0995C55.7183 31.1552 55.6765 31.229 55.66 31.31C55.6 31.58 55.56 31.84 55.52 32.1C55.5096 32.173 55.5096 32.247 55.52 32.32C55.5209 32.3494 55.531 32.3778 55.549 32.4012C55.5669 32.4245 55.5918 32.4416 55.62 32.45L56.29 32.55C56.3766 32.5451 56.4634 32.5451 56.55 32.55C56.7168 32.5901 56.889 32.6036 57.06 32.59Z" fill="#231815"/>
<path fill-rule="evenodd" clip-rule="evenodd" d="M40.18 33.21C40.2385 32.7354 40.2719 32.2581 40.28 31.78C40.2848 31.7234 40.2848 31.6666 40.28 31.61C40.2318 31.2761 40.2522 30.9358 40.34 30.61C40.34 30.51 40.34 30.41 40.41 30.31C40.44 30.1788 40.5052 30.0582 40.5986 29.9613C40.6919 29.8644 40.81 29.7948 40.94 29.76H41.07C41.2744 29.8607 41.504 29.899 41.73 29.87C41.8478 29.8581 41.9665 29.8825 42.07 29.94L42.23 30.01C42.3765 30.0192 42.5235 30.0192 42.67 30.01C42.802 30.0369 42.938 30.0369 43.07 30.01C43.4169 29.9147 43.7831 29.9147 44.13 30.01C44.2643 30.0522 44.3806 30.1381 44.4604 30.2541C44.5401 30.3701 44.5787 30.5095 44.57 30.65C44.5794 30.7096 44.5794 30.7704 44.57 30.83C44.5502 30.8596 44.5397 30.8944 44.5397 30.93C44.5397 30.9656 44.5502 31.0004 44.57 31.03C44.664 31.1161 44.7351 31.2243 44.777 31.3447C44.8189 31.4652 44.8303 31.5941 44.81 31.72C44.765 32.0284 44.765 32.3416 44.81 32.65C44.8201 32.7564 44.8201 32.8636 44.81 32.97C44.8121 33.0441 44.7958 33.1175 44.7627 33.1838C44.7295 33.2501 44.6805 33.3072 44.62 33.35L44.38 33.55C44.3255 33.5997 44.2594 33.6349 44.1878 33.6524C44.1161 33.6698 44.0412 33.669 43.97 33.65C43.7952 33.6158 43.618 33.5957 43.44 33.59C43.1422 33.6016 42.8467 33.6486 42.56 33.73L41.87 33.9C41.7811 33.9198 41.6889 33.9198 41.6 33.9C41.4256 33.8602 41.2444 33.8602 41.07 33.9C40.951 33.921 40.8286 33.9109 40.7147 33.8706C40.6008 33.8303 40.4993 33.7612 40.42 33.67L40.27 33.52C40.2337 33.4777 40.2069 33.4282 40.1914 33.3747C40.1759 33.3213 40.172 33.2651 40.18 33.21ZM43.78 31.6C43.78 31.53 43.78 31.45 43.78 31.36C43.7755 31.3304 43.7641 31.3024 43.7468 31.278C43.7294 31.2537 43.7065 31.2338 43.68 31.22C43.61 31.1895 43.5358 31.1693 43.46 31.16H43.2C42.8413 31.1885 42.4804 31.1615 42.13 31.08C42.0574 31.0652 41.9826 31.0652 41.91 31.08C41.66 31.19 41.42 31.32 41.43 31.65C41.4403 31.7062 41.4403 31.7638 41.43 31.82C41.4052 32.0125 41.4052 32.2075 41.43 32.4C41.4224 32.4968 41.4494 32.5931 41.5062 32.6718C41.5629 32.7506 41.6458 32.8066 41.74 32.83C41.8617 32.88 41.9983 32.88 42.12 32.83C42.474 32.6716 42.8531 32.5768 43.24 32.55C43.2966 32.5548 43.3534 32.5548 43.41 32.55C43.4838 32.5427 43.5547 32.5169 43.6158 32.475C43.677 32.433 43.7266 32.3763 43.76 32.31C43.8168 32.2042 43.854 32.089 43.87 31.97C43.829 31.8496 43.7988 31.7258 43.78 31.6V31.6Z" fill="#231815"/>
<path fill-rule="evenodd" clip-rule="evenodd" d="M13.34 34.33C13.3753 34.0379 13.3953 33.7442 13.4 33.45C13.4 33.17 13.34 32.89 13.33 32.61C13.3236 32.3729 13.2866 32.1376 13.22 31.91C13.1649 31.7376 13.1649 31.5524 13.22 31.38C13.22 31.25 13.3 31.13 13.33 31C13.337 30.9633 13.3536 30.9291 13.3783 30.901C13.4029 30.8728 13.4345 30.8518 13.47 30.84C13.61 30.79 13.74 30.7 13.88 30.65C14.2044 30.541 14.5556 30.541 14.88 30.65C14.9653 30.678 15.0521 30.7014 15.14 30.72L16.07 30.78H16.16C16.3186 30.75 16.4814 30.75 16.64 30.78C16.7441 30.7857 16.8442 30.8219 16.9278 30.8841C17.0114 30.9464 17.0748 31.0319 17.11 31.13C17.2213 31.3261 17.2862 31.545 17.3 31.77C17.3092 31.9341 17.3429 32.0959 17.4 32.25C17.5 32.56 17.53 32.89 17.6 33.2C17.6101 33.2596 17.6101 33.3204 17.6 33.38C17.5703 33.5554 17.5703 33.7346 17.6 33.91C17.615 34.0997 17.615 34.2903 17.6 34.48C17.5922 34.5438 17.5642 34.6034 17.52 34.65C17.4291 34.7645 17.3078 34.8511 17.17 34.9C17.098 34.9195 17.022 34.9195 16.95 34.9C16.7292 34.8583 16.5045 34.8415 16.28 34.85C16.1769 34.8596 16.0731 34.8596 15.97 34.85C15.7474 34.825 15.5226 34.825 15.3 34.85C15.1974 34.8564 15.0995 34.8949 15.02 34.96C14.9261 35.035 14.8102 35.0771 14.69 35.08C14.6 35.08 14.51 35.08 14.43 35.08C14.2636 35.0734 14.0993 35.1188 13.96 35.21C13.9205 35.2194 13.8795 35.2194 13.84 35.21C13.7826 35.2246 13.7223 35.2229 13.6659 35.2053C13.6094 35.1876 13.5589 35.1546 13.52 35.11L13.41 35C13.3615 34.9259 13.337 34.8386 13.34 34.75C13.33 34.61 13.34 34.47 13.34 34.33ZM14.34 32.71C14.3639 32.9795 14.3639 33.2505 14.34 33.52C14.3247 33.6228 14.3247 33.7272 14.34 33.83C14.3486 33.8753 14.3719 33.9164 14.4062 33.9471C14.4406 33.9778 14.4841 33.9964 14.53 34C14.7228 34.0329 14.9209 34.0086 15.1 33.93C15.3512 33.7963 15.641 33.7539 15.92 33.81C16.0353 33.8352 16.1547 33.8352 16.27 33.81C16.3079 33.8008 16.3422 33.7808 16.3689 33.7524C16.3955 33.724 16.4133 33.6884 16.42 33.65C16.4253 33.5935 16.4253 33.5365 16.42 33.48C16.42 33.26 16.42 33.04 16.37 32.81C16.3446 32.5909 16.3045 32.3737 16.25 32.16C16.25 32.1 16.25 32.04 16.25 31.98C16.2375 31.8907 16.191 31.8096 16.1202 31.7537C16.0494 31.6978 15.9598 31.6714 15.87 31.68C15.5855 31.7598 15.2845 31.7598 15 31.68C14.8577 31.6297 14.7023 31.6297 14.56 31.68C14.4859 31.6941 14.4192 31.734 14.3716 31.7925C14.324 31.8511 14.2987 31.9246 14.3 32L14.34 32.71Z" fill="#231815"/>
<path fill-rule="evenodd" clip-rule="evenodd" d="M30.45 30.94C30.3935 31.3374 30.4173 31.742 30.52 32.13C30.5298 32.203 30.5298 32.277 30.52 32.35C30.5086 32.5756 30.5323 32.8016 30.59 33.02C30.6188 33.1118 30.62 33.2101 30.5933 33.3026C30.5666 33.3951 30.5133 33.4776 30.44 33.54L30.35 33.64C30.2692 33.7305 30.1597 33.7905 30.04 33.81L29 34C28.8492 34.0176 28.7013 34.0546 28.56 34.11C28.3716 34.1947 28.1665 34.2357 27.96 34.23C27.8397 34.2278 27.7223 34.1932 27.62 34.13C27.5725 34.0931 27.5167 34.0684 27.4574 34.0579C27.3982 34.0475 27.3373 34.0516 27.28 34.07C27.1934 34.095 27.1018 34.0972 27.0141 34.0761C26.9265 34.0551 26.8458 34.0116 26.78 33.95C26.7105 33.8976 26.6369 33.8508 26.56 33.81C26.5216 33.7862 26.4891 33.7541 26.4648 33.716C26.4406 33.6779 26.4253 33.6348 26.42 33.59C26.405 33.4404 26.405 33.2896 26.42 33.14C26.445 32.9776 26.445 32.8124 26.42 32.65C26.4049 32.5774 26.4049 32.5026 26.42 32.43C26.4314 32.2209 26.4077 32.0113 26.35 31.81C26.3198 31.6649 26.3198 31.5151 26.35 31.37C26.35 31.12 26.35 30.87 26.42 30.61C26.43 30.4634 26.4783 30.3221 26.56 30.2C26.5989 30.1273 26.6546 30.0649 26.7224 30.0179C26.7902 29.971 26.8682 29.9408 26.95 29.93C27.13 29.93 27.3 29.85 27.48 29.84C27.6616 29.8407 27.8427 29.8608 28.02 29.9C28.1064 29.8903 28.1936 29.8903 28.28 29.9C28.6059 29.9865 28.9452 30.0103 29.28 29.97C29.3228 29.9792 29.3672 29.9792 29.41 29.97C29.5031 29.9234 29.6058 29.8991 29.71 29.8991C29.8142 29.8991 29.9169 29.9234 30.01 29.97L30.27 30.04C30.351 30.0621 30.4224 30.1104 30.473 30.1773C30.5237 30.2442 30.5507 30.3261 30.55 30.41C30.44 30.57 30.45 30.76 30.45 30.94ZM29.4 31.84V31.39C29.4013 31.3493 29.3946 31.3087 29.3803 31.2706C29.3659 31.2325 29.3442 31.1975 29.3163 31.1678C29.2885 31.1381 29.255 31.1142 29.2179 31.0974C29.1808 31.0806 29.1407 31.0713 29.1 31.07H28.87C28.6935 31.0659 28.5198 31.025 28.36 30.95H28.23C28.1415 30.9228 28.0481 30.9157 27.9565 30.9294C27.865 30.943 27.7776 30.9769 27.7009 31.0287C27.6242 31.0805 27.56 31.1488 27.5131 31.2286C27.4663 31.3085 27.4379 31.3978 27.43 31.49C27.43 31.74 27.43 31.99 27.43 32.25C27.4397 32.4558 27.4698 32.6602 27.52 32.86C27.5337 32.921 27.565 32.9766 27.61 33.02C27.6673 33.08 27.7378 33.1258 27.816 33.1536C27.8941 33.1813 27.9777 33.1904 28.06 33.18H28.23L29.16 32.86C29.2224 32.8362 29.2769 32.7956 29.3175 32.7426C29.3582 32.6896 29.3832 32.6264 29.39 32.56C29.38 32.26 29.39 32 29.4 31.84V31.84Z" fill="#231815"/>
<path fill-rule="evenodd" clip-rule="evenodd" d="M13.1 40.63C13.1 40.3 13.1 39.98 13.1 39.63C13.0607 39.3344 13.0881 39.0337 13.18 38.75C13.18 38.59 13.26 38.43 13.29 38.27C13.3033 38.2108 13.3314 38.1559 13.3716 38.1104C13.4118 38.065 13.4629 38.0304 13.52 38.01L13.72 37.91C13.7879 37.8856 13.8621 37.8856 13.93 37.91C14.27 37.96 14.62 37.91 14.93 37.91C15.003 37.9002 15.077 37.9002 15.15 37.91C15.2179 37.9395 15.291 37.9546 15.365 37.9546C15.439 37.9546 15.5121 37.9395 15.58 37.91V37.91C15.9508 37.8893 16.3224 37.9298 16.68 38.03C16.763 38.0654 16.8327 38.1259 16.8793 38.2031C16.926 38.2802 16.9472 38.3701 16.94 38.46C16.9345 38.5499 16.9345 38.6401 16.94 38.73C16.9337 38.8239 16.9545 38.9176 17 39C17.0927 39.2848 17.1465 39.5808 17.16 39.88C17.17 40.0719 17.2105 40.2609 17.28 40.44C17.36 40.66 17.4 40.9 17.5 41.12C17.5202 41.219 17.5202 41.321 17.5 41.42C17.5047 41.4665 17.5 41.5134 17.4863 41.5581C17.4726 41.6027 17.45 41.6442 17.42 41.68L17.37 41.75C17.3036 41.8773 17.1908 41.9743 17.0549 42.0208C16.9191 42.0673 16.7705 42.0599 16.64 42C16.4978 41.975 16.3522 41.975 16.21 42H15.85C15.6735 41.9899 15.4965 41.9899 15.32 42H14.7C14.4612 42.012 14.2219 41.9884 13.99 41.93C13.9 41.93 13.82 41.93 13.74 42.01C13.6738 42.0435 13.5989 42.0556 13.5255 42.0449C13.4521 42.0342 13.3838 42.001 13.33 41.95C13.2297 41.8718 13.1512 41.7691 13.1022 41.6517C13.0531 41.5343 13.0352 41.4063 13.05 41.28L13.1 40.63ZM15.31 40.88L16.06 40.8C16.0967 40.793 16.1309 40.7764 16.159 40.7517C16.1872 40.7271 16.2082 40.6955 16.22 40.66C16.2657 40.5815 16.2833 40.4898 16.27 40.4C16.1922 40.0718 16.1453 39.737 16.13 39.4C16.1244 39.3472 16.1034 39.2973 16.0696 39.2564C16.0359 39.2155 15.9908 39.1854 15.94 39.17C15.8838 39.1597 15.8262 39.1597 15.77 39.17C15.4633 39.13 15.1533 39.1 14.84 39.08C14.7069 39.0699 14.5731 39.0699 14.44 39.08C14.3797 39.0834 14.3224 39.107 14.277 39.1469C14.2317 39.1867 14.2011 39.2407 14.19 39.3C14.1314 39.4998 14.0879 39.7037 14.06 39.91C14.0298 40.1921 14.0819 40.4769 14.21 40.73C14.2342 40.7782 14.2713 40.8187 14.3172 40.847C14.3632 40.8752 14.4161 40.8901 14.47 40.89C14.6722 40.8603 14.8777 40.8603 15.08 40.89C15.1568 40.8916 15.2336 40.8883 15.31 40.88V40.88Z" fill="#231815"/>
<path fill-rule="evenodd" clip-rule="evenodd" d="M80.26 15.26L80.17 17.26C80.17 17.35 80.17 17.45 80.17 17.55C80.17 17.65 80.17 17.89 79.94 17.93C79.8438 17.9489 79.7441 17.939 79.6534 17.9017C79.5627 17.8643 79.485 17.8012 79.43 17.72C79.367 17.5954 79.3168 17.4647 79.28 17.33C79.22 17.09 79.21 16.85 79.13 16.62C78.9589 16.09 78.8252 15.5487 78.73 15C78.6842 14.7891 78.6137 14.5844 78.52 14.39C78.5112 14.3636 78.497 14.3394 78.4783 14.3188C78.4597 14.2982 78.4369 14.2817 78.4115 14.2704C78.3861 14.2591 78.3586 14.2533 78.3308 14.2532C78.303 14.2531 78.2755 14.2588 78.25 14.27L78.13 14.32C77.32 14.62 76.52 14.93 75.7 15.2C75.15 15.38 74.58 15.49 74.02 15.62C73.73 15.69 73.64 15.62 73.63 15.28C73.6143 15.1303 73.6418 14.9792 73.7091 14.8446C73.7764 14.7099 73.8808 14.5973 74.01 14.52C74.452 14.2154 74.873 13.8813 75.27 13.52C75.68 13.16 76.07 12.75 76.47 12.37C76.6395 12.2368 76.8165 12.1132 77 12C77.08 11.95 77.16 11.92 77.23 11.87C77.2589 11.8521 77.2828 11.827 77.2994 11.7973C77.3159 11.7675 77.3246 11.7341 77.3246 11.7C77.3246 11.666 77.3159 11.6325 77.2994 11.6027C77.2828 11.573 77.2589 11.5479 77.23 11.53C77.0423 11.3854 76.8374 11.2644 76.62 11.17C76.5492 11.1441 76.4844 11.1042 76.4294 11.0526C76.3744 11.0011 76.3304 10.939 76.3 10.87C76.2394 10.7474 76.1543 10.6384 76.05 10.55L75.26 9.86L74.93 9.59C74.8238 9.50854 74.7532 9.38929 74.7327 9.25705C74.7122 9.12481 74.7435 8.98976 74.82 8.88C74.8705 8.83563 74.9333 8.80772 75 8.8C75.1624 8.81544 75.3231 8.84556 75.48 8.89C76.2081 9.03406 76.9262 9.22445 77.63 9.46C77.8265 9.52546 78.033 9.55592 78.24 9.55C78.47 9.55 78.57 9.46 78.64 9.23C78.9264 8.24577 79.1469 7.24355 79.3 6.23C79.3396 5.97998 79.4391 5.74326 79.59 5.54C79.6392 5.47334 79.7087 5.42457 79.7882 5.4011C79.8676 5.37763 79.9525 5.38076 80.03 5.41C80.1111 5.4268 80.1834 5.47265 80.2331 5.53894C80.2828 5.60523 80.3066 5.6874 80.3 5.77C80.3 6.41 80.52 7.02 80.54 7.65C80.54 7.97 80.68 8.28 80.73 8.6C80.7449 8.81975 80.7449 9.04025 80.73 9.26C80.73 9.54 80.73 9.61 81.07 9.6H82.07C82.42 9.6 82.77 9.6 83.07 9.6C83.5563 9.575 84.0437 9.575 84.53 9.6C84.9457 9.64998 85.3399 9.81249 85.67 10.07C85.79 10.18 85.81 10.27 85.67 10.37C85.2644 10.7939 84.8115 11.1697 84.32 11.49C83.72 11.8 83.16 12.18 82.57 12.49C82.4363 12.5612 82.2956 12.6181 82.15 12.66C82.04 12.66 81.91 12.71 81.8 12.75C81.5 12.88 81.48 13.08 81.8 13.28C82.06 13.73 82.57 13.91 82.88 14.28C83.0331 14.4511 83.204 14.6053 83.39 14.74C83.4617 14.8051 83.5285 14.8753 83.59 14.95C83.76 15.15 83.71 15.3 83.45 15.38C83.2144 15.4339 82.9674 15.4057 82.75 15.3C82.19 15.05 81.64 14.79 81.08 14.56C80.8527 14.4852 80.618 14.4349 80.38 14.41C80.23 14.41 80.16 14.49 80.15 14.63C80.14 14.77 80.15 14.98 80.15 15.15L80.26 15.26Z" fill="#F8B742"/>
<path d="M116.38 36.92C115.85 41.12 110.98 45.57 107.2 46.77C105.95 47.16 104.92 45.15 106.42 44.65C109.29 43.74 113.42 40.45 114.35 36.98C110.87 36.73 109.7 35.03 109.76 33.56C109.81 32.9395 110.082 32.3578 110.527 31.9223C110.971 31.4867 111.559 31.2266 112.18 31.19C114.1 31.02 115.74 32.81 116.3 34.95C117.853 34.4549 119.285 33.637 120.5 32.55C121.61 31.61 122.17 30.3 120.66 30.3C117.38 30.3 109.34 30.3 107.4 30.3C107.108 30.3 106.828 30.1841 106.622 29.9778C106.416 29.7715 106.3 29.4917 106.3 29.2C106.3 28.9083 106.416 28.6285 106.622 28.4222C106.828 28.2159 107.108 28.1 107.4 28.1C112.35 28.1 118.13 28.1 120.78 28.1C124.09 28.1 125.12 31.53 121.83 34.1C120.249 35.438 118.386 36.4019 116.38 36.92V36.92ZM112.38 33C112.231 32.9989 112.085 33.0414 111.961 33.1224C111.836 33.2033 111.738 33.3191 111.678 33.4554C111.618 33.5916 111.6 33.7424 111.625 33.889C111.651 34.0356 111.718 34.1715 111.82 34.28C112.554 34.8822 113.481 35.1983 114.43 35.17C114.1 34.06 113.21 33 112.35 33H112.38Z" fill="#231815"/>
<path d="M165.46 37C165.475 37.1607 165.456 37.3228 165.405 37.4758C165.354 37.6289 165.271 37.7696 165.162 37.8889C165.054 38.0082 164.921 38.1035 164.774 38.1687C164.626 38.2339 164.466 38.2676 164.305 38.2676C164.144 38.2676 163.984 38.2339 163.836 38.1687C163.689 38.1035 163.556 38.0082 163.448 37.8889C163.339 37.7696 163.256 37.6289 163.205 37.4758C163.154 37.3228 163.135 37.1607 163.15 37V29.44C163.135 29.2793 163.154 29.1172 163.205 28.9642C163.256 28.8111 163.339 28.6704 163.448 28.5511C163.556 28.4318 163.689 28.3365 163.836 28.2713C163.984 28.2061 164.144 28.1724 164.305 28.1724C164.466 28.1724 164.626 28.2061 164.774 28.2713C164.921 28.3365 165.054 28.4318 165.162 28.5511C165.271 28.6704 165.354 28.8111 165.405 28.9642C165.456 29.1172 165.475 29.2793 165.46 29.44V37ZM174.28 34.82C174.16 38.55 173.83 41.34 171.77 44.12C170.429 45.7344 168.712 46.9947 166.77 47.79C165.35 48.46 164.29 46.34 165.65 45.79C167.365 45.1972 168.893 44.1624 170.08 42.79C171.66 40.68 172.08 38.43 172.19 35.42C170.33 33.17 168.19 29.86 169.86 27.63C170.079 27.3057 170.377 27.0421 170.725 26.8639C171.074 26.6856 171.462 26.5984 171.853 26.6103C172.244 26.6223 172.626 26.7331 172.963 26.9324C173.3 27.1316 173.581 27.4129 173.78 27.75C174.134 28.3234 174.318 28.9859 174.31 29.66C174.3 31.91 174.3 33.47 174.28 34.83V34.82ZM172.16 32.57C172.16 31.57 172.16 30.63 172.16 29.71C172.16 27.96 171.05 28.48 171.05 29.38C171.085 30.5348 171.473 31.6513 172.16 32.58V32.57Z" fill="#231815"/>
<path d="M141.12 28.68C141.101 28.5326 141.113 28.383 141.156 28.2406C141.198 28.0982 141.269 27.9661 141.365 27.8528C141.461 27.7395 141.58 27.6475 141.714 27.5825C141.847 27.5176 141.993 27.4811 142.141 27.4756C142.29 27.47 142.438 27.4954 142.576 27.5501C142.714 27.6049 142.839 27.6878 142.943 27.7935C143.048 27.8993 143.129 28.0256 143.182 28.1645C143.234 28.3033 143.258 28.4517 143.25 28.6V29.78C143.25 29.78 143.25 30.95 143.16 31.67H146.69C147.184 31.6334 147.68 31.7119 148.138 31.8994C148.596 32.0869 149.005 32.3783 149.332 32.7505C149.658 33.1227 149.894 33.5657 150.02 34.0445C150.147 34.5234 150.16 35.025 150.06 35.51C149.72 37.93 148.86 42.51 147.19 44.24C146.745 44.7041 146.19 45.0489 145.577 45.243C144.964 45.437 144.313 45.474 143.682 45.3506C143.05 45.2272 142.461 44.9473 141.966 44.5366C141.471 44.1259 141.087 43.5975 140.85 43C140.24 41.78 142.19 40.63 142.85 42C142.936 42.2695 143.091 42.5118 143.3 42.7027C143.509 42.8937 143.764 43.0266 144.04 43.0883C144.316 43.15 144.604 43.1383 144.874 43.0544C145.144 42.9705 145.387 42.8173 145.58 42.61C146.88 41.3 147.69 36.27 147.83 35.32C147.875 35.1437 147.878 34.9594 147.84 34.7816C147.802 34.6038 147.723 34.4372 147.61 34.2949C147.496 34.1526 147.352 34.0383 147.187 33.9612C147.022 33.884 146.842 33.846 146.66 33.85H142.8C141.63 39.27 138.35 43.08 133.9 46.2C132.78 46.98 131.28 45.31 132.62 44.36C136.45 41.61 139.37 38.63 140.62 33.87H137.62C136.33 33.87 137.68 33.87 135.73 33.87C135.438 33.87 135.158 33.7541 134.952 33.5478C134.746 33.3415 134.63 33.0617 134.63 32.77C134.63 32.4783 134.746 32.1985 134.952 31.9922C135.158 31.7859 135.438 31.67 135.73 31.67H141C141.076 31.0061 141.113 30.3383 141.11 29.67L141.12 28.68Z" fill="#231815"/>
<path d="M108.44 16C107.898 15.8747 107.332 15.8955 106.8 16.06C106.53 16.1533 106.282 16.2995 106.07 16.49C105.867 16.6844 105.706 16.9195 105.6 17.18C105.373 17.7723 105.373 18.4277 105.6 19.02C105.706 19.2805 105.867 19.5156 106.07 19.71C106.274 19.9014 106.516 20.0479 106.78 20.14C107.064 20.2308 107.362 20.2747 107.66 20.27C107.803 20.2803 107.947 20.2803 108.09 20.27L108.45 20.19C108.55 20.1628 108.647 20.126 108.74 20.08C108.813 20.0515 108.881 20.0109 108.94 19.96C108.969 19.933 108.99 19.8983 109 19.86V19.52C109 19.4899 108.995 19.46 108.982 19.4324C108.97 19.4048 108.952 19.3801 108.93 19.36C108.899 19.3339 108.86 19.3196 108.82 19.3196C108.78 19.3196 108.741 19.3339 108.71 19.36L108.52 19.5L108.28 19.64C108.187 19.686 108.09 19.7228 107.99 19.75C107.694 19.8247 107.383 19.8037 107.1 19.69C106.939 19.6279 106.792 19.5325 106.67 19.41C106.536 19.2626 106.434 19.0889 106.37 18.9C106.223 18.404 106.223 17.8761 106.37 17.38C106.431 17.1929 106.534 17.022 106.67 16.88C106.789 16.7513 106.936 16.652 107.1 16.59C107.39 16.5006 107.7 16.5006 107.99 16.59C108.085 16.6178 108.176 16.6581 108.26 16.71C108.339 16.7506 108.413 16.801 108.48 16.86L108.61 16.99C108.642 17.0067 108.678 17.0154 108.715 17.0154C108.752 17.0154 108.788 17.0067 108.82 16.99C108.849 16.9809 108.874 16.9639 108.894 16.9409C108.913 16.9179 108.926 16.8898 108.93 16.86C108.93 16.8 108.93 16.73 108.93 16.64C108.926 16.5834 108.926 16.5266 108.93 16.47C108.94 16.4497 108.945 16.4275 108.945 16.405C108.945 16.3825 108.94 16.3603 108.93 16.34C108.914 16.2963 108.882 16.2605 108.84 16.24C108.713 16.1495 108.58 16.0692 108.44 16V16Z" fill="#231815"/>
<path d="M113.12 17.5C112.975 17.3725 112.805 17.277 112.62 17.22C112.268 17.1101 111.892 17.1101 111.54 17.22C111.356 17.2794 111.187 17.3746 111.04 17.5C110.883 17.6326 110.76 17.8005 110.68 17.99C110.493 18.4518 110.493 18.9682 110.68 19.43C110.76 19.6195 110.883 19.7874 111.04 19.92C111.187 20.0482 111.361 20.1407 111.55 20.19C111.722 20.2403 111.901 20.2672 112.08 20.27C112.263 20.2681 112.445 20.2412 112.62 20.19C112.805 20.1383 112.975 20.046 113.12 19.92C113.277 19.7874 113.4 19.6195 113.48 19.43C113.667 18.9682 113.667 18.4518 113.48 17.99C113.4 17.8005 113.277 17.6326 113.12 17.5V17.5ZM111.75 19.69C111.661 19.639 111.585 19.5669 111.53 19.48C111.472 19.3738 111.432 19.259 111.41 19.14C111.357 18.8558 111.357 18.5642 111.41 18.28C111.433 18.1615 111.474 18.0469 111.53 17.94C111.585 17.8531 111.661 17.781 111.75 17.73C111.851 17.6741 111.965 17.6465 112.08 17.65C112.195 17.6454 112.31 17.6731 112.41 17.73C112.503 17.7755 112.58 17.8489 112.63 17.94C112.69 18.0451 112.731 18.1603 112.75 18.28C112.803 18.5642 112.803 18.8558 112.75 19.14C112.733 19.2601 112.692 19.3757 112.63 19.48C112.58 19.5711 112.503 19.6445 112.41 19.69C112.308 19.7443 112.195 19.7727 112.08 19.7727C111.965 19.7727 111.852 19.7443 111.75 19.69V19.69Z" fill="#231815"/>
<path d="M116.69 18.39H115.27C115.182 18.39 115.11 18.4616 115.11 18.55V18.91C115.11 18.9984 115.182 19.07 115.27 19.07H116.69C116.778 19.07 116.85 18.9984 116.85 18.91V18.55C116.85 18.4616 116.778 18.39 116.69 18.39Z" fill="#231815"/>
<path d="M121 19.61C120.981 19.5901 120.957 19.5752 120.931 19.5665C120.905 19.5578 120.877 19.5556 120.85 19.56C120.595 19.5987 120.338 19.6188 120.08 19.62H119.48V18.85C119.48 18.5 119.48 18.09 119.48 17.62C119.48 17.37 119.48 17.13 119.48 16.89V16.16C119.481 16.1352 119.476 16.1105 119.465 16.0879C119.455 16.0653 119.439 16.0455 119.42 16.03C119.4 16.0202 119.377 16.0152 119.355 16.0152C119.332 16.0152 119.31 16.0202 119.29 16.03H119.15C119.074 16.0401 118.996 16.0401 118.92 16.03H118.79C118.768 16.0206 118.744 16.0158 118.72 16.0158C118.696 16.0158 118.672 16.0206 118.65 16.03C118.639 16.0498 118.633 16.0722 118.633 16.095C118.633 16.1178 118.639 16.1402 118.65 16.16V16.89C118.65 17.13 118.65 17.37 118.65 17.62V18.62C118.65 18.86 118.65 19.11 118.65 19.35V20.06C118.641 20.0787 118.636 20.0992 118.636 20.12C118.636 20.1408 118.641 20.1612 118.65 20.18C118.686 20.211 118.732 20.2286 118.78 20.23H120.86C120.886 20.2296 120.911 20.2231 120.934 20.2109C120.956 20.1987 120.976 20.1812 120.99 20.16C121.002 20.1387 121.009 20.1146 121.009 20.09C121.009 20.0654 121.002 20.0413 120.99 20.02C120.983 19.9836 120.983 19.9464 120.99 19.91C120.99 19.91 120.99 19.85 120.99 19.79C121.01 19.7645 121.021 19.7336 121.023 19.7015C121.025 19.6694 121.017 19.6375 121 19.61V19.61Z" fill="#231815"/>
<path d="M125 17.53C124.882 17.4067 124.739 17.3111 124.58 17.25C124.396 17.1742 124.199 17.1368 124 17.14C123.796 17.1277 123.592 17.1617 123.403 17.2397C123.214 17.3176 123.046 17.4374 122.91 17.59C122.652 17.9354 122.521 18.3593 122.54 18.79C122.54 18.9918 122.577 19.1918 122.65 19.38C122.727 19.5574 122.839 19.7173 122.98 19.85C123.117 19.9903 123.285 20.0965 123.47 20.16C123.665 20.2337 123.872 20.271 124.08 20.27C124.278 20.2692 124.475 20.2319 124.66 20.16C124.829 20.0982 124.988 20.0105 125.13 19.9C125.161 19.8707 125.182 19.8322 125.19 19.79V19.52C125.19 19.4839 125.181 19.4484 125.164 19.4169C125.146 19.3854 125.121 19.3589 125.09 19.34C125.06 19.3165 125.023 19.3037 124.985 19.3037C124.947 19.3037 124.91 19.3165 124.88 19.34L124.73 19.48L124.55 19.59L124.34 19.66C124.165 19.7173 123.975 19.7173 123.8 19.66C123.707 19.6142 123.623 19.5533 123.55 19.48C123.485 19.3994 123.434 19.3081 123.4 19.21C123.36 19.0942 123.34 18.9725 123.34 18.85H125.13C125.171 18.8501 125.21 18.8346 125.24 18.8067C125.269 18.7789 125.287 18.7407 125.29 18.7C125.294 18.6635 125.294 18.6265 125.29 18.59C125.295 18.5502 125.295 18.5099 125.29 18.47C125.289 18.3002 125.262 18.1315 125.21 17.97C125.171 17.8103 125.1 17.6605 125 17.53V17.53ZM123.44 18.18C123.468 18.0851 123.508 17.9943 123.56 17.91C123.608 17.8327 123.673 17.7676 123.75 17.72C123.831 17.6735 123.922 17.649 124.015 17.649C124.108 17.649 124.199 17.6735 124.28 17.72C124.348 17.7651 124.403 17.8271 124.44 17.9C124.482 17.9814 124.509 18.0694 124.52 18.16C124.52 18.21 124.52 18.26 124.52 18.3H124.31C124.06 18.3 123.83 18.3 123.57 18.3H123.39L123.44 18.18Z" fill="#231815"/>
<path d="M129.27 19.71H129.21C129.21 19.71 129.21 19.66 129.21 19.63V19.49C129.21 19.25 129.21 19.03 129.21 18.82C129.21 18.61 129.21 18.39 129.21 18.17C129.214 18.0291 129.187 17.8889 129.13 17.76C129.078 17.64 129.004 17.5313 128.91 17.44C128.808 17.3503 128.689 17.2822 128.56 17.24C128.261 17.1401 127.939 17.1401 127.64 17.24C127.455 17.302 127.282 17.3968 127.13 17.52C127.109 17.535 127.092 17.5545 127.08 17.577C127.068 17.5995 127.061 17.6245 127.06 17.65V17.95C127.06 17.9719 127.064 17.9935 127.073 18.0136C127.082 18.0337 127.094 18.0518 127.11 18.0668C127.126 18.0818 127.145 18.0934 127.166 18.1008C127.186 18.1082 127.208 18.1114 127.23 18.11H127.29C127.32 18.1105 127.349 18.1022 127.374 18.0862C127.399 18.0702 127.418 18.0471 127.43 18.02C127.481 17.9259 127.562 17.8518 127.66 17.81C127.746 17.7711 127.84 17.751 127.935 17.751C128.03 17.751 128.124 17.7711 128.21 17.81C128.266 17.8322 128.315 17.8704 128.35 17.92C128.385 17.969 128.411 18.023 128.43 18.08C128.44 18.1564 128.44 18.2336 128.43 18.31C128.43 18.37 128.43 18.39 128.43 18.4L128.22 18.46L127.75 18.55C127.504 18.5773 127.272 18.6744 127.08 18.83C126.99 18.9119 126.919 19.0126 126.873 19.125C126.826 19.2373 126.805 19.3585 126.81 19.48C126.808 19.609 126.839 19.7365 126.9 19.85C126.952 19.9502 127.019 20.0413 127.1 20.12C127.191 20.1947 127.297 20.2492 127.41 20.28C127.514 20.3119 127.621 20.3288 127.73 20.33C127.923 20.3339 128.115 20.2928 128.29 20.21L128.55 20.05L128.61 20.12C128.663 20.1696 128.727 20.2076 128.795 20.2317C128.864 20.2558 128.937 20.2654 129.01 20.26C129.086 20.2703 129.164 20.2703 129.24 20.26C129.308 20.2503 129.375 20.2335 129.44 20.21C129.466 20.194 129.488 20.1721 129.503 20.146C129.519 20.1199 129.528 20.0904 129.53 20.06V19.93C129.53 19.9017 129.523 19.8738 129.509 19.8492C129.495 19.8246 129.475 19.8042 129.45 19.79C129.435 19.7572 129.408 19.731 129.375 19.7163C129.342 19.7016 129.305 19.6994 129.27 19.71V19.71ZM128.42 19.43C128.36 19.5065 128.289 19.5739 128.21 19.63C128.135 19.6909 128.042 19.7242 127.945 19.7242C127.848 19.7242 127.755 19.6909 127.68 19.63C127.645 19.5924 127.619 19.5483 127.601 19.5002C127.584 19.4521 127.577 19.401 127.58 19.35C127.568 19.294 127.568 19.236 127.58 19.18C127.606 19.1312 127.644 19.0898 127.69 19.06C127.746 19.0222 127.806 18.9919 127.87 18.97L128.11 18.91H128.37L128.42 19.43Z" fill="#231815"/>
<path d="M132.66 17.15H132.55C132.335 17.1592 132.132 17.2484 131.98 17.4V17.4C131.991 17.3782 131.996 17.3543 131.996 17.33C131.996 17.3057 131.991 17.2818 131.98 17.26C131.958 17.2501 131.934 17.2449 131.91 17.2449C131.886 17.2449 131.862 17.2501 131.84 17.26H131.73C131.67 17.2701 131.61 17.2701 131.55 17.26H131.44C131.418 17.2486 131.394 17.2427 131.37 17.2427C131.346 17.2427 131.322 17.2486 131.3 17.26C131.281 17.2755 131.265 17.2954 131.255 17.3179C131.244 17.3405 131.239 17.3652 131.24 17.39C131.24 17.63 131.24 17.85 131.24 18.04C131.24 18.23 131.24 18.4 131.24 18.55V18.73C131.24 19.05 131.24 19.32 131.24 19.54C131.252 19.7098 131.252 19.8802 131.24 20.05C131.24 20.0981 131.257 20.1446 131.29 20.18C131.305 20.199 131.326 20.2135 131.348 20.2223C131.371 20.2311 131.396 20.2337 131.42 20.23C131.563 20.21 131.707 20.21 131.85 20.23V20.23C131.895 20.2289 131.938 20.211 131.97 20.18C131.979 20.1578 131.984 20.134 131.984 20.11C131.984 20.086 131.979 20.0622 131.97 20.04C131.964 19.9401 131.964 19.8399 131.97 19.74C131.97 19.6 131.97 19.41 131.97 19.16V18.54C131.955 18.4506 131.955 18.3594 131.97 18.27C131.988 18.2016 132.018 18.1371 132.06 18.08C132.089 18.0305 132.13 17.9892 132.18 17.96C132.223 17.9372 132.271 17.9253 132.32 17.9253C132.369 17.9253 132.417 17.9372 132.46 17.96C132.46 17.96 132.46 17.96 132.46 17.96C132.49 17.9881 132.529 18.0038 132.57 18.0038C132.611 18.0038 132.65 17.9881 132.68 17.96V17.96C132.701 17.945 132.718 17.9255 132.73 17.903C132.742 17.8805 132.749 17.8555 132.75 17.83V17.58C132.75 17.48 132.75 17.44 132.75 17.43C132.76 17.4115 132.765 17.3909 132.765 17.37C132.765 17.3491 132.76 17.3285 132.75 17.31C132.745 17.2881 132.734 17.268 132.718 17.2521C132.702 17.2362 132.682 17.2251 132.66 17.22C132.662 17.1967 132.662 17.1733 132.66 17.15V17.15Z" fill="#231815"/>
<path d="M136.72 17.38C136.616 17.2957 136.497 17.2313 136.37 17.19C136.205 17.1381 136.031 17.121 135.858 17.14C135.686 17.1589 135.52 17.2134 135.37 17.3L135.25 17.38C135.25 17.3319 135.233 17.2854 135.2 17.25C135.178 17.2406 135.154 17.2358 135.13 17.2358C135.106 17.2358 135.082 17.2406 135.06 17.25H134.93C134.83 17.2637 134.73 17.2637 134.63 17.25C134.608 17.2406 134.584 17.2358 134.56 17.2358C134.536 17.2358 134.512 17.2406 134.49 17.25C134.479 17.2718 134.474 17.2957 134.474 17.32C134.474 17.3443 134.479 17.3682 134.49 17.39C134.49 17.55 134.49 17.72 134.49 17.9V19.54C134.49 19.72 134.49 19.89 134.49 20.03C134.479 20.0518 134.474 20.0757 134.474 20.1C134.474 20.1243 134.479 20.1482 134.49 20.17C134.507 20.187 134.527 20.2003 134.55 20.2089C134.572 20.2175 134.596 20.2213 134.62 20.22C134.779 20.2 134.941 20.2 135.1 20.22C135.148 20.2204 135.195 20.2025 135.23 20.17C135.239 20.1478 135.244 20.124 135.244 20.1C135.244 20.076 135.239 20.0522 135.23 20.03C135.23 19.89 135.23 19.72 135.23 19.54C135.23 19.36 135.23 19.18 135.23 19.01V18.53C135.22 18.3259 135.272 18.1235 135.38 17.95C135.435 17.8864 135.505 17.8369 135.583 17.8055C135.661 17.7742 135.746 17.7621 135.83 17.77C135.892 17.7672 135.953 17.7794 136.008 17.8055C136.064 17.8317 136.113 17.8709 136.15 17.92C136.251 18.0849 136.296 18.2775 136.28 18.47V18.81C136.28 19.03 136.28 19.24 136.28 19.44V20.05C136.28 20.0951 136.298 20.1383 136.33 20.1702C136.362 20.2021 136.405 20.22 136.45 20.22V20.22C136.596 20.2 136.744 20.2 136.89 20.22C136.914 20.2237 136.939 20.2211 136.962 20.2123C136.984 20.2035 137.005 20.189 137.02 20.17C137.053 20.1346 137.07 20.0881 137.07 20.04C137.07 19.99 137.07 19.94 137.07 19.88V19.34C137.07 19.15 137.07 18.97 137.07 18.8C137.07 18.63 137.07 18.46 137.07 18.3C137.077 18.1116 137.043 17.9238 136.97 17.75C136.916 17.6094 136.83 17.4829 136.72 17.38V17.38Z" fill="#231815"/>
<path d="M139.19 16.06C139.146 16.1006 139.11 16.15 139.086 16.2051C139.062 16.2603 139.05 16.3198 139.05 16.38C139.051 16.44 139.064 16.4992 139.088 16.5541C139.112 16.6091 139.147 16.6587 139.19 16.7C139.272 16.7827 139.384 16.8294 139.5 16.83C139.62 16.83 139.736 16.7829 139.822 16.6988C139.908 16.6147 139.957 16.5003 139.96 16.38C139.96 16.3198 139.948 16.2603 139.924 16.2051C139.9 16.15 139.864 16.1006 139.82 16.06C139.779 16.018 139.73 15.9846 139.676 15.9618C139.622 15.939 139.564 15.9272 139.505 15.9272C139.446 15.9272 139.388 15.939 139.334 15.9618C139.28 15.9846 139.231 16.018 139.19 16.06V16.06Z" fill="#231815"/>
<path d="M139.89 17.89C139.879 17.7202 139.879 17.5498 139.89 17.38C139.901 17.3582 139.906 17.3343 139.906 17.31C139.906 17.2857 139.901 17.2618 139.89 17.24C139.868 17.2306 139.844 17.2258 139.82 17.2258C139.796 17.2258 139.772 17.2306 139.75 17.24C139.601 17.2699 139.449 17.2699 139.3 17.24C139.278 17.2306 139.254 17.2258 139.23 17.2258C139.206 17.2258 139.182 17.2306 139.16 17.24C139.149 17.2618 139.144 17.2857 139.144 17.31C139.144 17.3343 139.149 17.3582 139.16 17.38C139.171 17.5498 139.171 17.7202 139.16 17.89C139.16 18.07 139.16 18.25 139.16 18.42V19C139.16 19.17 139.16 19.35 139.16 19.53C139.171 19.6931 139.171 19.8569 139.16 20.02C139.151 20.0422 139.146 20.066 139.146 20.09C139.146 20.114 139.151 20.1378 139.16 20.16C139.196 20.191 139.242 20.2086 139.29 20.21C139.449 20.19 139.611 20.19 139.77 20.21V20.21C139.815 20.2089 139.858 20.191 139.89 20.16C139.899 20.1378 139.904 20.114 139.904 20.09C139.904 20.066 139.899 20.0422 139.89 20.02C139.879 19.8569 139.879 19.6931 139.89 19.53C139.89 19.35 139.89 19.17 139.89 19V18.42C139.88 18.25 139.88 18.07 139.89 17.89Z" fill="#231815"/>
<path d="M144.2 17.38C144.097 17.2938 143.978 17.2292 143.85 17.19C143.685 17.1381 143.511 17.121 143.338 17.14C143.166 17.1589 143 17.2134 142.85 17.3L142.73 17.38C142.73 17.3319 142.713 17.2854 142.68 17.25C142.658 17.2406 142.634 17.2358 142.61 17.2358C142.586 17.2358 142.562 17.2406 142.54 17.25H142.41C142.31 17.2637 142.21 17.2637 142.11 17.25C142.088 17.2406 142.064 17.2358 142.04 17.2358C142.016 17.2358 141.992 17.2406 141.97 17.25C141.951 17.2675 141.936 17.2895 141.928 17.3138C141.919 17.3382 141.916 17.3644 141.92 17.39C141.92 17.55 141.92 17.72 141.92 17.9V19.54C141.92 19.72 141.92 19.89 141.92 20.03C141.916 20.0556 141.919 20.0818 141.928 20.1062C141.936 20.1305 141.951 20.1525 141.97 20.17C141.987 20.187 142.007 20.2003 142.03 20.2089C142.052 20.2175 142.076 20.2213 142.1 20.22C142.259 20.2 142.421 20.2 142.58 20.22C142.628 20.2204 142.675 20.2025 142.71 20.17C142.727 20.1512 142.741 20.1291 142.749 20.1051C142.758 20.081 142.761 20.0555 142.76 20.03C142.748 19.8669 142.748 19.7031 142.76 19.54C142.76 19.36 142.76 19.18 142.76 19.01V18.53C142.75 18.3259 142.802 18.1235 142.91 17.95C142.965 17.8864 143.035 17.8369 143.113 17.8055C143.191 17.7742 143.276 17.7621 143.36 17.77C143.421 17.7672 143.483 17.7794 143.538 17.8055C143.594 17.8317 143.643 17.8709 143.68 17.92C143.781 18.0849 143.826 18.2775 143.81 18.47V18.81C143.81 19.03 143.81 19.24 143.81 19.44V20.05C143.81 20.0951 143.828 20.1383 143.86 20.1702C143.892 20.2021 143.935 20.22 143.98 20.22V20.22C144.126 20.2 144.274 20.2 144.42 20.22C144.444 20.2237 144.469 20.2211 144.492 20.2123C144.514 20.2035 144.535 20.189 144.55 20.17C144.565 20.128 144.565 20.082 144.55 20.04C144.545 19.9868 144.545 19.9332 144.55 19.88V19.34C144.55 19.15 144.55 18.97 144.55 18.8C144.55 18.63 144.55 18.46 144.55 18.3C144.557 18.1116 144.523 17.9238 144.45 17.75C144.396 17.6094 144.31 17.4829 144.2 17.38V17.38Z" fill="#231815"/>
<path d="M148.79 19.78C148.683 19.6962 148.561 19.635 148.43 19.6C148.274 19.5542 148.112 19.5307 147.95 19.53H147.32C147.271 19.5419 147.219 19.5419 147.17 19.53C147.159 19.4975 147.159 19.4625 147.17 19.43C147.166 19.4206 147.163 19.4104 147.163 19.4C147.163 19.3896 147.166 19.3794 147.17 19.37C147.196 19.3609 147.224 19.3609 147.25 19.37H147.56C147.873 19.3852 148.181 19.2896 148.43 19.1C148.544 19.0029 148.634 18.8815 148.695 18.7448C148.755 18.608 148.784 18.4595 148.78 18.31C148.776 18.1355 148.731 17.9644 148.65 17.81V17.81H148.87C148.89 17.8198 148.912 17.8248 148.935 17.8248C148.957 17.8248 148.98 17.8198 149 17.81C149.011 17.7884 149.017 17.7644 149.017 17.74C149.017 17.7156 149.011 17.6916 149 17.67V17.49C149.011 17.4667 149.017 17.441 149.017 17.415C149.017 17.389 149.011 17.3633 149 17.34C148.952 17.3205 148.898 17.3205 148.85 17.34C148.707 17.3533 148.563 17.3533 148.42 17.34H148.27H148.04H147.79C147.562 17.3164 147.332 17.3333 147.11 17.39C146.967 17.4341 146.831 17.5017 146.71 17.59C146.591 17.6793 146.495 17.7959 146.43 17.93C146.358 18.0831 146.324 18.2511 146.33 18.42C146.325 18.6357 146.384 18.848 146.5 19.03C146.562 19.1105 146.632 19.1842 146.71 19.25L146.65 19.3C146.601 19.357 146.56 19.4211 146.53 19.49C146.497 19.5657 146.48 19.6474 146.48 19.73C146.476 19.8666 146.518 20.0007 146.6 20.11V20.17C146.53 20.2112 146.466 20.2617 146.41 20.32C146.345 20.4026 146.291 20.4934 146.25 20.59C146.201 20.6929 146.177 20.806 146.18 20.92C146.177 21.0663 146.211 21.2111 146.279 21.3406C146.347 21.4701 146.447 21.58 146.57 21.66C146.871 21.8407 147.22 21.9245 147.57 21.9C147.799 21.9045 148.027 21.8637 148.24 21.78C148.417 21.7114 148.577 21.6057 148.71 21.47C148.829 21.3511 148.921 21.2078 148.98 21.05C149.039 20.9037 149.069 20.7476 149.07 20.59C149.072 20.4724 149.048 20.3559 148.999 20.2488C148.951 20.1416 148.879 20.0464 148.79 19.97V19.78ZM147.99 18.46C147.972 18.5316 147.942 18.5993 147.9 18.66C147.861 18.7108 147.814 18.7547 147.76 18.79C147.694 18.8025 147.626 18.8025 147.56 18.79C147.495 18.7956 147.429 18.7858 147.368 18.7615C147.308 18.7372 147.253 18.699 147.21 18.65C147.123 18.5129 147.081 18.3521 147.09 18.19C147.08 18.0294 147.126 17.8703 147.22 17.74C147.262 17.6886 147.316 17.648 147.377 17.6219C147.437 17.5958 147.504 17.5848 147.57 17.59C147.629 17.589 147.688 17.6 147.743 17.6223C147.798 17.6446 147.848 17.6779 147.89 17.72C147.987 17.8451 148.034 18.0022 148.02 18.16C148.027 18.2604 148.02 18.3614 148 18.46H147.99ZM146.99 20.93C146.956 20.8475 146.939 20.7591 146.94 20.67C146.94 20.4 147.06 20.33 147.09 20.31C147.268 20.228 147.464 20.1903 147.66 20.2C147.855 20.1851 148.051 20.2195 148.23 20.3C148.23 20.3 148.35 20.39 148.35 20.64C148.368 20.7223 148.368 20.8077 148.35 20.89C148.305 20.9567 148.251 21.0172 148.19 21.07C148.116 21.1185 148.035 21.1556 147.95 21.18C147.76 21.23 147.56 21.23 147.37 21.18C147.298 21.1643 147.23 21.1336 147.17 21.09C147.096 21.0584 147.036 21.0017 147 20.93H146.99Z" fill="#231815"/>
<path d="M156.68 17.92C156.537 17.8362 156.386 17.7659 156.23 17.71C156.09 17.6579 155.953 17.5978 155.82 17.53C155.713 17.4765 155.617 17.4017 155.54 17.31C155.475 17.2202 155.443 17.1106 155.45 17C155.435 16.9274 155.435 16.8526 155.45 16.78C155.475 16.7164 155.512 16.6586 155.56 16.61C155.615 16.5654 155.675 16.5284 155.74 16.5C155.879 16.4496 156.031 16.4496 156.17 16.5C156.225 16.525 156.276 16.5588 156.32 16.6C156.362 16.6355 156.397 16.6799 156.42 16.73L156.49 16.89C156.502 16.9198 156.523 16.9453 156.55 16.9631C156.576 16.981 156.608 16.9903 156.64 16.99H156.71C156.748 16.9929 156.786 16.981 156.816 16.9568C156.846 16.9327 156.865 16.898 156.87 16.86C156.888 16.7753 156.911 16.6918 156.94 16.61C156.959 16.5484 156.982 16.4882 157.01 16.43C157.033 16.4016 157.045 16.3664 157.045 16.33C157.045 16.2937 157.033 16.2584 157.01 16.23C156.886 16.1268 156.744 16.0487 156.59 16C156.238 15.895 155.862 15.895 155.51 16C155.347 16.0562 155.198 16.1446 155.07 16.26C154.943 16.3642 154.843 16.4981 154.78 16.65C154.711 16.8074 154.676 16.978 154.68 17.15C154.669 17.3681 154.725 17.5843 154.84 17.77C154.938 17.9197 155.068 18.046 155.22 18.14C155.364 18.2344 155.518 18.3116 155.68 18.37C155.818 18.4178 155.952 18.4781 156.08 18.55C156.186 18.6008 156.281 18.6722 156.36 18.76C156.433 18.8462 156.469 18.9576 156.46 19.07C156.459 19.1589 156.442 19.247 156.41 19.33C156.384 19.4044 156.344 19.4725 156.29 19.53C156.233 19.5887 156.165 19.6362 156.09 19.67C155.912 19.735 155.718 19.735 155.54 19.67C155.466 19.6418 155.395 19.6049 155.33 19.56C155.272 19.5143 155.222 19.4604 155.18 19.4C155.136 19.3447 155.099 19.2842 155.07 19.22C155.056 19.1921 155.035 19.1687 155.008 19.1527C154.982 19.1367 154.951 19.1288 154.92 19.13H154.85C154.811 19.1297 154.773 19.1438 154.743 19.1696C154.714 19.1954 154.695 19.2311 154.69 19.27C154.69 19.38 154.69 19.46 154.69 19.53C154.69 19.6 154.69 19.66 154.62 19.73C154.602 19.7585 154.593 19.7914 154.593 19.825C154.593 19.8586 154.602 19.8915 154.62 19.92C154.745 20.0181 154.883 20.0988 155.03 20.16C155.231 20.2353 155.445 20.2693 155.66 20.26C155.878 20.265 156.094 20.2311 156.3 20.16C156.483 20.0963 156.65 19.994 156.79 19.86C156.925 19.731 157.031 19.574 157.1 19.4C157.172 19.222 157.209 19.032 157.21 18.84C157.217 18.6304 157.157 18.424 157.04 18.25C156.942 18.1178 156.82 18.0057 156.68 17.92V17.92Z" fill="#231815"/>
<path d="M161.37 17.52C161.247 17.3966 161.101 17.2982 160.94 17.23C160.643 17.1206 160.317 17.1206 160.02 17.23C159.906 17.2757 159.798 17.3362 159.7 17.41V17.41C159.709 17.3835 159.71 17.3551 159.704 17.3279C159.697 17.3007 159.684 17.2759 159.664 17.2561C159.644 17.2364 159.619 17.2225 159.592 17.2161C159.565 17.2098 159.536 17.2111 159.51 17.22C159.361 17.2499 159.209 17.2499 159.06 17.22C159.038 17.2086 159.014 17.2027 158.99 17.2027C158.966 17.2027 158.942 17.2086 158.92 17.22C158.905 17.262 158.905 17.308 158.92 17.35C158.92 17.45 158.92 17.56 158.92 17.7C158.92 17.84 158.92 17.97 158.92 18.12C158.92 18.27 158.92 18.42 158.92 18.57V20.3C158.92 20.45 158.92 20.6 158.92 20.74C158.92 20.88 158.92 21.03 158.92 21.16C158.92 21.29 158.92 21.4 158.92 21.5C158.905 21.542 158.905 21.588 158.92 21.63C158.942 21.6414 158.966 21.6473 158.99 21.6473C159.014 21.6473 159.038 21.6414 159.06 21.63C159.209 21.6001 159.361 21.6001 159.51 21.63V21.63C159.545 21.6439 159.585 21.6439 159.62 21.63C159.639 21.6145 159.655 21.5947 159.665 21.5721C159.676 21.5495 159.681 21.5248 159.68 21.5C159.674 21.3867 159.674 21.2733 159.68 21.16C159.68 21.03 159.68 20.89 159.68 20.74C159.68 20.59 159.68 20.45 159.68 20.3V20C159.856 20.1255 160.062 20.2041 160.277 20.2286C160.492 20.2531 160.71 20.2226 160.91 20.14C161.082 20.0763 161.238 19.9775 161.37 19.85C161.504 19.7044 161.609 19.5347 161.68 19.35C161.765 19.1302 161.806 18.8957 161.8 18.66C161.803 18.4287 161.766 18.1986 161.69 17.98C161.614 17.8077 161.505 17.6516 161.37 17.52V17.52ZM160.94 18.69C160.956 18.8362 160.956 18.9838 160.94 19.13C160.918 19.2503 160.874 19.3656 160.81 19.47C160.766 19.5554 160.701 19.6278 160.62 19.68C160.536 19.7219 160.444 19.7425 160.35 19.74C160.07 19.74 159.69 19.64 159.69 18.74C159.674 18.6004 159.674 18.4596 159.69 18.32C159.713 18.2031 159.757 18.0914 159.82 17.99C159.872 17.9066 159.944 17.8378 160.03 17.79C160.121 17.7391 160.225 17.7148 160.33 17.72C160.403 17.7064 160.477 17.7064 160.55 17.72C160.622 17.7444 160.684 17.7897 160.73 17.85C160.8 17.9389 160.851 18.0409 160.88 18.15C160.928 18.3259 160.948 18.508 160.94 18.69V18.69Z" fill="#231815"/>
<path d="M165.78 19.71H165.72C165.714 19.6836 165.714 19.6564 165.72 19.63V19.49C165.72 19.25 165.72 19.03 165.72 18.82C165.72 18.61 165.72 18.39 165.72 18.17C165.72 18.0295 165.692 17.8904 165.64 17.76C165.588 17.6377 165.509 17.5284 165.41 17.44C165.311 17.3514 165.195 17.2834 165.07 17.24C164.771 17.1401 164.449 17.1401 164.15 17.24C163.962 17.3039 163.787 17.3985 163.63 17.52C163.611 17.5355 163.595 17.5553 163.585 17.5779C163.574 17.6005 163.569 17.6252 163.57 17.65V17.95C163.57 17.9924 163.587 18.0331 163.617 18.0631C163.647 18.0931 163.688 18.11 163.73 18.11H163.8C163.83 18.1105 163.859 18.1022 163.884 18.0862C163.909 18.0702 163.928 18.0471 163.94 18.02C163.99 17.9289 164.067 17.8555 164.16 17.81C164.248 17.7715 164.344 17.7516 164.44 17.7516C164.536 17.7516 164.632 17.7715 164.72 17.81C164.775 17.8351 164.823 17.8728 164.86 17.92C164.895 17.9674 164.919 18.0221 164.93 18.08C164.94 18.1564 164.94 18.2336 164.93 18.31C164.93 18.37 164.93 18.39 164.93 18.4L164.71 18.46L164.24 18.55C163.998 18.5791 163.769 18.6762 163.58 18.83C163.49 18.9119 163.419 19.0126 163.373 19.125C163.326 19.2373 163.305 19.3585 163.31 19.48C163.309 19.6077 163.336 19.734 163.39 19.85C163.445 19.9505 163.516 20.0416 163.6 20.12C163.689 20.1925 163.79 20.2469 163.9 20.28C164.007 20.3112 164.118 20.328 164.23 20.33C164.42 20.335 164.609 20.2938 164.78 20.21C164.861 20.1482 164.935 20.0778 165 20L165.07 20.07C165.122 20.1188 165.183 20.1564 165.25 20.1805C165.318 20.2046 165.389 20.2146 165.46 20.21C165.54 20.2207 165.62 20.2207 165.7 20.21L165.89 20.16C165.922 20.1466 165.949 20.1245 165.968 20.0961C165.988 20.0677 165.999 20.0344 166 20V19.87C166 19.8417 165.993 19.8138 165.979 19.7892C165.965 19.7646 165.945 19.7442 165.92 19.73C165.9 19.7154 165.877 19.706 165.853 19.7025C165.828 19.699 165.803 19.7016 165.78 19.71V19.71ZM164.92 19.43C164.863 19.5058 164.796 19.5731 164.72 19.63C164.645 19.6909 164.552 19.7242 164.455 19.7242C164.358 19.7242 164.265 19.6909 164.19 19.63C164.153 19.594 164.125 19.55 164.108 19.5015C164.09 19.453 164.084 19.4012 164.09 19.35C164.073 19.2946 164.073 19.2354 164.09 19.18C164.116 19.1312 164.154 19.0898 164.2 19.06C164.256 19.0222 164.316 18.9919 164.38 18.97L164.62 18.91H164.87L164.92 19.43Z" fill="#231815"/>
<path d="M168.53 17.93C168.593 17.8425 168.675 17.7706 168.77 17.72C168.947 17.6541 169.143 17.6541 169.32 17.72C169.381 17.74 169.439 17.7704 169.49 17.81C169.54 17.842 169.584 17.8826 169.62 17.93L169.71 18.04C169.722 18.0671 169.741 18.0902 169.766 18.1062C169.791 18.1222 169.82 18.1305 169.85 18.13H169.9C169.938 18.1307 169.974 18.118 170.004 18.0942C170.033 18.0704 170.053 18.037 170.06 18C170.072 17.9388 170.089 17.8786 170.11 17.82L170.17 17.66C170.19 17.6325 170.201 17.5992 170.201 17.565C170.201 17.5308 170.19 17.4975 170.17 17.47C170.05 17.3721 169.91 17.3006 169.76 17.26C169.372 17.1453 168.958 17.1453 168.57 17.26C168.38 17.3226 168.203 17.421 168.05 17.55C167.895 17.6848 167.772 17.8521 167.69 18.04C167.594 18.2606 167.546 18.4993 167.55 18.74C167.542 18.9865 167.586 19.2318 167.68 19.46C167.769 19.6465 167.895 19.8132 168.05 19.95C168.199 20.0688 168.369 20.1602 168.55 20.22C168.725 20.2712 168.907 20.2981 169.09 20.3C169.288 20.2983 169.485 20.261 169.67 20.19C169.836 20.1281 169.991 20.0404 170.13 19.93C170.149 19.9166 170.165 19.8986 170.175 19.8777C170.186 19.8567 170.191 19.8334 170.19 19.81V19.56C170.194 19.5219 170.187 19.4834 170.169 19.4495C170.152 19.4156 170.124 19.3879 170.09 19.37C170.06 19.3465 170.023 19.3337 169.985 19.3337C169.947 19.3337 169.91 19.3465 169.88 19.37C169.836 19.4191 169.789 19.4659 169.74 19.51C169.68 19.5525 169.617 19.5893 169.55 19.62L169.35 19.69H169.16C169.047 19.698 168.933 19.6807 168.828 19.6391C168.722 19.5976 168.627 19.533 168.55 19.45C168.394 19.2248 168.32 18.9531 168.34 18.68C168.324 18.5304 168.324 18.3796 168.34 18.23C168.381 18.1176 168.446 18.0153 168.53 17.93V17.93Z" fill="#231815"/>
<path d="M174.39 18C174.339 17.8403 174.253 17.6936 174.14 17.57C174.019 17.4509 173.876 17.3559 173.72 17.29C173.536 17.2153 173.339 17.1779 173.14 17.18C172.936 17.1662 172.731 17.1995 172.542 17.2776C172.353 17.3556 172.185 17.4762 172.05 17.63C171.787 17.973 171.656 18.3987 171.68 18.83C171.675 19.0322 171.712 19.2332 171.79 19.42C171.86 19.5988 171.969 19.7595 172.11 19.89C172.248 20.0284 172.416 20.1343 172.6 20.2C172.798 20.2739 173.008 20.3111 173.22 20.31C173.418 20.3074 173.615 20.2702 173.8 20.2C173.965 20.1359 174.12 20.0483 174.26 19.94C174.277 19.9271 174.292 19.9106 174.302 19.8916C174.312 19.8726 174.319 19.8516 174.32 19.83V19.56C174.32 19.5239 174.311 19.4884 174.294 19.4569C174.276 19.4254 174.251 19.3989 174.22 19.38C174.19 19.3565 174.153 19.3437 174.115 19.3437C174.077 19.3437 174.04 19.3565 174.01 19.38C173.965 19.4317 173.915 19.4786 173.86 19.52C173.805 19.5647 173.745 19.6017 173.68 19.63L173.48 19.7C173.305 19.7573 173.115 19.7573 172.94 19.7C172.846 19.6568 172.761 19.5956 172.69 19.52C172.622 19.4398 172.567 19.3485 172.53 19.25C172.49 19.1342 172.47 19.0125 172.47 18.89H174.26C174.281 18.8914 174.302 18.8885 174.322 18.8817C174.342 18.8749 174.36 18.8642 174.376 18.8503C174.392 18.8364 174.405 18.8195 174.414 18.8005C174.423 18.7816 174.429 18.761 174.43 18.74C174.425 18.7035 174.425 18.6665 174.43 18.63V18.51C174.443 18.339 174.43 18.1669 174.39 18V18ZM172.57 18.22C172.598 18.1251 172.638 18.0343 172.69 17.95C172.741 17.8722 172.81 17.8072 172.89 17.76C172.969 17.7134 173.058 17.6887 173.15 17.6887C173.241 17.6887 173.331 17.7134 173.41 17.76C173.481 17.8021 173.536 17.865 173.57 17.94C173.624 18.0673 173.658 18.2023 173.67 18.34H173.46C173.22 18.34 172.98 18.34 172.73 18.34H172.54L172.57 18.22Z" fill="#231815"/>
</svg>
