<svg width="117" height="38" viewBox="0 0 117 38" fill="none" xmlns="http://www.w3.org/2000/svg">
<g clip-path="url(#clip0)">
<path fill-rule="evenodd" clip-rule="evenodd" d="M53.1992 6.87204L53.1691 6.88632L53.1992 6.90069V6.87204ZM50.0331 6.6869C50.0209 6.67733 50.0137 6.65347 49.998 6.64986C49.9169 6.63793 49.8468 6.67733 49.8468 6.74302C49.848 6.75377 49.8697 6.78124 49.877 6.77763C49.9193 6.7657 49.969 6.74898 50.0137 6.73109C50.0234 6.72748 50.0258 6.70244 50.0331 6.6869ZM53.8417 8.68166C53.93 8.6673 54.0171 8.65772 54.097 8.63504C54.1164 8.63025 54.1309 8.58371 54.1466 8.55742C54.1466 8.54306 54.1309 8.51802 54.1236 8.50845C53.9699 8.42008 53.7993 8.39253 53.6251 8.40328C53.5889 8.40689 53.5562 8.42722 53.5295 8.45108C53.5114 8.47376 53.4824 8.50484 53.4824 8.53592C53.4824 8.56339 53.5114 8.60993 53.5344 8.61354C53.6336 8.64461 53.7377 8.66015 53.8417 8.68166ZM48.7711 8.82975V8.85008C48.8111 8.85008 48.8413 8.85008 48.8801 8.84647C49.416 8.8011 49.9544 8.76524 50.5013 8.81782C50.5521 8.82261 50.6041 8.81539 50.6634 8.80942C50.8957 8.79388 51.1267 8.77599 51.3627 8.76289C51.4716 8.75331 51.5829 8.75566 51.6845 8.7282C51.8926 8.66015 52.108 8.65419 52.3246 8.64579C52.3935 8.64461 52.4673 8.63025 52.5399 8.61715C52.6113 8.60396 52.6718 8.53231 52.6681 8.47376C52.656 8.40807 52.6161 8.37707 52.569 8.3591C52.3439 8.2767 52.1152 8.23251 51.8805 8.23965C51.5659 8.25284 51.2635 8.22294 50.961 8.18118C50.817 8.16565 50.6682 8.15128 50.5315 8.17522C50.1504 8.25284 49.7826 8.24326 49.3991 8.24326C49.0542 8.24326 48.7167 8.26838 48.3743 8.33289C47.4548 8.50845 46.5281 8.60396 45.5856 8.52634C45.4936 8.52273 45.4017 8.52273 45.3109 8.52634C45.2238 8.53592 45.1295 8.54188 45.0471 8.57775C44.8149 8.67444 44.5693 8.72341 44.314 8.76289C44.2669 8.77238 44.2197 8.80589 44.1748 8.82975C44.1229 8.862 44.1276 8.98263 44.1676 9.02085C44.2366 9.08897 44.3213 9.12358 44.4132 9.1188C44.5766 9.11762 44.7374 9.09847 44.8936 9.07822C45.0568 9.0615 45.219 9.01253 45.3727 9.00531C45.68 8.99817 45.9872 8.98263 46.2897 8.95399C46.4857 8.93366 46.6817 8.93366 46.8826 8.89662C46.9842 8.87629 47.0979 8.88108 47.2068 8.87755C47.7246 8.86201 48.2485 8.84647 48.7711 8.82975ZM98.9456 11.0837V11.0992C99.2118 11.0873 99.4819 11.0825 99.7512 11.0742C99.8641 11.0705 99.9546 11.0108 100.037 10.9344C100.146 10.8353 100.211 10.7087 100.216 10.5629C100.233 10.2786 100.233 9.99551 100.233 9.71125C100.233 9.67664 100.223 9.64195 100.211 9.60969C100.188 9.51654 100.131 9.44253 100.037 9.41977C99.779 9.34929 99.5169 9.29436 99.2412 9.35291C98.9432 9.41742 98.6357 9.43413 98.3362 9.33619C98.1201 9.26571 97.9048 9.30393 97.7069 9.38995C97.4988 9.47479 97.2906 9.50225 97.0737 9.49268C96.9061 9.47949 96.7543 9.50939 96.5938 9.53922C95.9391 9.67664 95.2868 9.79844 94.6131 9.72435C94.5455 9.71721 94.4669 9.72082 94.4009 9.73872C94.335 9.75425 94.2706 9.7913 94.211 9.82591C94.188 9.84263 94.188 9.88807 94.1832 9.9215C94.1832 9.93578 94.196 9.95729 94.211 9.95854C94.3127 9.99551 94.4121 10.0254 94.5138 10.0541C94.9071 10.1759 95.2964 10.3204 95.7127 10.3563C95.9185 10.3765 96.133 10.4542 96.3308 10.5378C96.5461 10.6286 96.7694 10.6895 96.9998 10.7313C97.1913 10.7612 97.3836 10.8137 97.5655 10.889C97.8182 10.987 98.0756 11.0586 98.3465 11.0646C98.5452 11.0705 98.7462 11.0777 98.9456 11.0837ZM15.4829 7.26264C15.2142 7.26264 14.942 7.25668 14.6698 7.26978C14.4556 7.27936 14.302 7.42863 14.2851 7.64484C14.2705 7.82041 14.2705 8.00075 14.2924 8.17522C14.3274 8.45948 14.3649 8.74374 14.3565 9.02799C14.3492 9.11283 14.3649 9.20599 14.4037 9.28722C14.4665 9.43178 14.5476 9.57147 14.6275 9.71125C14.6722 9.79365 14.7533 9.83548 14.8453 9.85934C14.9819 9.89403 15.1284 9.92864 15.2723 9.87731C15.4998 9.78769 15.7285 9.80802 15.9583 9.85699C16.2765 9.9215 16.6008 9.97644 16.9274 9.94897C17.3993 9.90117 17.8578 9.94175 18.3261 10.011C18.4301 10.0289 18.5414 10.0529 18.6515 10.0481C19.335 10.011 20.0174 10.0218 20.701 10.078C20.7712 10.084 20.845 10.0827 20.9127 10.0792C21.3688 10.0648 21.8189 10.0481 22.2726 10.0325C22.3948 10.029 22.523 10.0254 22.6452 10.0397C22.8812 10.0625 23.1086 10.0994 23.3421 10.127C23.4486 10.1376 23.5624 10.1508 23.664 10.127C23.9713 10.0541 24.2762 10.0994 24.5811 10.109C24.8859 10.1209 25.1933 10.1437 25.4957 10.1616C25.5877 10.1652 25.6796 10.1652 25.7619 10.1759C26.1635 10.2284 26.558 10.2284 26.9439 10.1245C27.0552 10.0982 27.1629 10.0792 27.2633 10.1186C27.6336 10.2536 28.0074 10.2237 28.3849 10.1927C28.8725 10.1508 29.3515 10.0935 29.8428 10.127C30.1125 10.1449 30.3848 10.1699 30.6437 10.0732C30.6982 10.0552 30.755 10.0625 30.8094 10.0552C31.3152 10.0254 31.8185 10.0289 32.3194 9.96929C32.4948 9.95132 32.6787 9.96568 32.859 9.98836C33.1094 10.0254 33.355 10.0218 33.6055 9.95854C33.8365 9.90957 34.0664 9.87253 34.3024 9.88446C34.5528 9.89403 34.8056 9.86892 35.0585 9.83784C35.2521 9.81877 35.4311 9.73754 35.6163 9.65396C35.6211 9.65035 35.6211 9.62045 35.6211 9.6002C35.6163 9.58701 35.6066 9.56794 35.5945 9.55954C35.3513 9.39952 35.0791 9.38995 34.8105 9.43774C34.5831 9.47949 34.3543 9.51301 34.1184 9.51772C33.7398 9.52729 33.3623 9.47949 32.986 9.52015C32.9267 9.52729 32.8723 9.51654 32.8227 9.50226C32.4803 9.44253 32.1355 9.46278 31.7931 9.48789C31.4023 9.51654 31.003 9.51175 30.6086 9.47353C30.3534 9.44488 30.1029 9.43178 29.85 9.42817C29.3117 9.41263 28.7732 9.40188 28.2263 9.39474C27.9735 9.38995 27.7279 9.37684 27.492 9.25496C27.3601 9.18566 27.2125 9.18692 27.071 9.21556C27.0358 9.22749 27.0008 9.23824 26.9645 9.24303C26.5725 9.28486 26.1708 9.26815 25.7885 9.40902C25.3058 9.43774 24.8218 9.47949 24.333 9.49629C24.1407 9.49982 23.9447 9.44253 23.7511 9.41742C23.555 9.28486 23.3349 9.30393 23.1183 9.3099C22.6355 9.32065 22.1492 9.33022 21.6628 9.3398C21.5745 9.34333 21.4802 9.35291 21.3906 9.3398C20.9321 9.24782 20.4614 9.23824 19.9992 9.1618C19.335 9.05311 18.6684 9.07461 18.0042 9.17256C17.8796 9.19288 17.7538 9.2227 17.6291 9.20599C17.3049 9.16541 16.9806 9.20599 16.6552 9.17256C16.4543 9.15223 16.2632 9.18566 16.0805 9.27285C15.968 9.32905 15.8518 9.37919 15.7405 9.43774C15.5942 9.52015 15.4405 9.54644 15.2723 9.54644C15.0932 9.54762 14.965 9.47 14.8706 9.32426C14.7085 9.0615 14.694 8.78557 14.7606 8.49652C14.7908 8.3675 14.8779 8.27669 15.0013 8.22654C15.0509 8.21461 15.1029 8.1979 15.1598 8.18354C15.4901 8.11188 15.8229 8.03662 16.1592 7.96497C16.2439 7.94943 16.3383 7.95539 16.4277 7.959C16.5161 7.96615 16.6008 7.99479 16.6927 8.00076C17.1089 8.02469 17.5203 8.06409 17.9244 7.91356C18.1579 7.82284 18.4155 7.79655 18.6684 7.79655C18.9927 7.79655 19.3181 7.79655 19.6375 7.86341C19.7742 7.89206 19.9231 7.91356 20.0646 7.90642C20.3417 7.8981 20.6067 7.93986 20.8631 8.03662C21.0034 8.08795 21.1402 8.11071 21.2818 8.06652C21.514 8.00075 21.7403 7.99 21.9762 8.0378C22.1189 8.06409 22.2654 8.05695 22.4045 8.08559C22.5727 8.12381 22.7276 8.04376 22.8836 8.0593C23.0639 8.07845 23.2356 8.15128 23.4135 8.168C23.5503 8.18118 23.7015 8.15725 23.8431 8.13456C24.0959 8.0987 24.3415 8.10231 24.5992 8.12381C24.8835 8.15128 25.169 8.15968 25.4643 8.168C25.5877 8.17278 25.7122 8.16564 25.8453 8.15968C26.0196 8.15128 26.1975 8.13692 26.3789 8.12617C26.5967 8.11188 26.8133 8.0987 27.0238 8.08559C27.1702 8.07845 27.319 8.03662 27.4569 8.06409C27.8695 8.14171 28.2832 8.11071 28.697 8.11785C29.2027 8.1202 29.7061 8.1202 30.2069 8.22058C30.4392 8.20143 30.6631 8.29584 30.9014 8.27669C31.2607 8.24687 31.6224 8.2373 31.9843 8.22654C32.1089 8.22293 32.2347 8.22294 32.3593 8.24687C32.5565 8.28745 32.7525 8.28266 32.9509 8.24326C33.2667 8.18118 33.5861 8.13221 33.9127 8.20026C34.0543 8.22655 34.2031 8.21697 34.3447 8.1979C34.5262 8.17161 34.6992 8.18118 34.8759 8.2074C35.021 8.22654 35.1722 8.24562 35.3114 8.21697C35.7251 8.12617 36.1377 8.1895 36.5467 8.21462C37.0887 8.24562 37.627 8.23965 38.1679 8.22058C38.5623 8.2074 38.9579 8.14767 39.3523 8.13221C39.6234 8.1202 39.8883 8.08559 40.1533 8.01512C40.4267 7.93985 40.7014 7.83712 40.999 7.90046C41.0316 7.9076 41.0703 7.89206 41.103 7.89206C41.6063 7.8288 42.1096 7.79412 42.6081 7.69617C43.1331 7.58748 43.6861 7.60301 44.1991 7.41435C44.2595 7.38806 44.3407 7.40234 44.4132 7.39402C44.4822 7.3868 44.5645 7.3868 44.6237 7.3558C44.8149 7.27096 45.0085 7.25668 45.2057 7.26264C45.6569 7.26617 46.1034 7.21602 46.5571 7.19452C46.8305 7.17663 47.0907 7.12404 47.3508 7.05357C47.4947 7.01174 47.5286 6.87204 47.4149 6.76452C47.3508 6.69883 47.2685 6.6654 47.1742 6.67137C47.1027 6.68094 47.0289 6.70362 46.9612 6.71194C46.7434 6.73941 46.5353 6.76452 46.3188 6.78603C46.0018 6.70715 45.6678 6.75974 45.3569 6.64868C45.1984 6.59493 45.0351 6.59846 44.8717 6.61164C44.8016 6.61525 44.7374 6.64146 44.6685 6.66776C44.5366 6.72151 44.4519 6.87204 44.2983 6.86961C44.1555 6.86961 44.0091 6.83382 43.8675 6.82189C43.7042 6.80157 43.5457 6.78964 43.3788 6.7741C43.2178 6.75974 43.0618 6.77166 42.9009 6.8171C42.7992 6.84575 42.6927 6.87557 42.5911 6.91505C42.1314 7.07272 41.6753 7.07272 41.2143 6.90908C41.1151 6.87557 41.0087 6.83382 40.9022 6.83021C40.6167 6.81585 40.3251 6.80871 40.0371 6.81585C39.6597 6.82189 39.2809 6.84575 38.9034 6.8434C38.5913 6.83979 38.2937 6.90069 37.9997 6.98788C37.9295 7.00821 37.863 7.03685 37.7989 7.06071C37.6004 7.12766 37.4093 7.14194 37.2254 7.03206C37.1262 6.97116 37.0149 6.94605 36.9132 6.99502C36.635 7.13001 36.3506 7.1169 36.0651 7.06071C35.8449 7.01896 35.6368 7.01896 35.4227 7.06675C35.2219 7.10733 35.0259 7.10254 34.8431 7.01174C34.7234 6.95327 34.6024 6.93773 34.4718 6.94605C34.1487 6.97595 33.8136 6.8959 33.5063 7.00821C33.1699 7.13001 32.865 6.90069 32.5444 6.95327C32.4754 6.96755 32.4028 6.95923 32.3315 6.95923C32.2419 6.95923 32.15 6.96755 32.0593 6.94731C31.677 6.88758 31.3104 6.94605 30.9401 7.03567C30.6013 7.10976 30.2687 7.15034 29.9214 7.14798C29.4726 7.14076 29.0189 7.15033 28.57 7.15033C28.1199 7.15033 27.6662 7.18141 27.2198 7.0775C27.1375 7.05357 27.0407 7.06071 26.956 7.08582C26.7951 7.14076 26.6439 7.16109 26.4781 7.13119C26.3886 7.1169 26.2942 7.10976 26.2083 7.13001C25.9397 7.17663 25.6724 7.16705 25.4002 7.16344C25.1667 7.15873 24.9355 7.15034 24.7008 7.20166C24.5811 7.22678 24.4504 7.21963 24.3233 7.21241C23.8056 7.1862 23.2793 7.15512 22.759 7.12043C22.6743 7.1169 22.5679 7.10372 22.5013 7.05357C22.2738 6.87557 22.0101 6.85172 21.7379 6.86011C21.5939 6.86247 21.4427 6.85171 21.3011 6.86961C21.0119 6.89354 20.7385 6.94134 20.4409 6.92337C20.3417 6.91623 20.2376 6.97116 20.1336 7.00342C20.0174 7.04164 19.8976 7.10372 19.7742 7.11094C19.5238 7.13119 19.2709 7.12404 19.0205 7.12765C18.7555 7.0261 18.493 7.03685 18.2365 7.15512C18.1724 7.18141 18.0913 7.17066 18.0236 7.17066C17.7138 7.17066 17.409 7.16705 17.0992 7.17066C16.9577 7.17066 16.8113 7.17066 16.6697 7.19452C16.2765 7.26021 15.8821 7.26978 15.4829 7.26264ZM99.8664 7.89206C99.9062 7.89206 99.9777 7.89206 100.054 7.88256C100.198 7.86341 100.325 7.70818 100.33 7.53733C100.339 7.38084 100.24 7.25424 100.101 7.21963C99.9252 7.17663 99.7393 7.16705 99.559 7.20166C99.3826 7.24114 99.2046 7.24593 99.0203 7.24349C98.7533 7.23988 98.4872 7.23517 98.2099 7.23988C97.8698 7.24114 97.5298 7.26021 97.1841 7.20527C97.0967 7.19452 97.0046 7.1862 96.9156 7.20166C96.5755 7.26264 96.2267 7.21603 95.8867 7.24593C95.7858 7.25425 95.6761 7.23392 95.5665 7.2256C95.3838 7.21241 95.205 7.18738 95.027 7.18141C94.5972 7.17066 94.1618 7.16344 93.7518 7.01174C93.6708 6.97831 93.5643 6.96999 93.4864 6.99267C93.1766 7.08221 92.8794 7.04282 92.5863 6.9258C92.4679 6.87683 92.3447 6.87557 92.2128 6.9043C91.7878 7.00342 92.4091 6.99031 91.9792 6.96159C91.7639 6.94487 91.5486 6.94487 91.3317 6.93412C91.0401 6.92337 90.7573 6.88633 90.4871 6.7657C90.3934 6.72269 90.2766 6.67733 90.1781 6.68329C89.8595 6.69883 89.5353 6.61525 89.2183 6.75973C89.0244 6.84575 88.7932 6.81232 88.5779 6.78603C88.3252 6.75973 88.075 6.74302 87.8223 6.78603C87.6833 6.80871 87.5315 6.79678 87.3925 6.78964C87.1581 6.78124 86.9245 6.7657 86.6885 6.75377C86.5296 6.74302 86.3644 6.73588 86.2055 6.70715C86.064 6.68094 85.925 6.6869 85.7812 6.73227C85.523 6.82189 85.2536 6.85172 84.9827 6.85289C84.6037 6.85533 84.2279 6.86247 83.8426 6.85532C83.4834 6.84575 83.1243 6.83382 82.7636 6.80157C82.5856 6.78485 82.4092 6.77166 82.2337 6.82189C82.0374 6.86961 81.8372 6.88036 81.6362 6.83735C81.463 6.79678 81.277 6.80635 81.0999 6.83735C80.8496 6.87557 80.6049 6.9043 80.3451 6.88279C80.2601 6.87557 80.1687 6.8959 80.0789 6.90069C79.8827 6.91623 79.6872 6.94134 79.4862 6.94134C78.9828 6.94487 79.5657 6.92933 79.0578 6.93412C78.788 6.93412 78.517 6.93294 78.2545 6.86247C78.0367 6.80635 77.8286 6.80871 77.6144 6.84575C77.4511 6.87557 77.2878 6.87683 77.1269 6.89111C77.0591 6.90069 76.9804 6.8959 76.9175 6.9258C76.5558 7.07986 76.1795 7.05121 75.7996 6.99981C75.6568 6.9783 75.508 6.96638 75.3689 6.96159C74.989 6.95806 74.6103 6.96159 74.2328 6.95327C74.0889 6.9473 73.9485 6.95327 73.8045 6.99031C73.6654 7.02131 73.519 7.05357 73.3799 7.03567C73.1367 7.00342 72.9165 7.03207 72.683 7.056C72.5197 7.07751 72.3515 7.06432 72.1906 7.056C72.0659 7.05357 71.9402 7.03206 71.818 7.03206C71.1489 7.03685 70.4798 7.01174 69.8156 6.9867C68.7885 6.94487 68.6057 6.87204 67.5858 6.78603C67.3656 6.7657 67.1575 6.78124 66.9446 6.85289C66.6167 6.96755 66.2816 7.00342 65.9404 6.87204C65.8315 6.83021 65.7238 6.84575 65.6246 6.89355C65.3427 7.03206 65.0354 7.04643 64.7233 7.03206C64.3313 7.00821 63.932 6.9867 63.5425 6.95084C63.3743 6.93891 63.2278 6.88036 63.1311 6.72748C63.0597 6.61996 62.9581 6.62122 62.8455 6.67019C62.7621 6.70362 62.6798 6.74302 62.5951 6.76452C62.4124 6.80635 62.2188 6.86247 62.0579 6.78603C61.7603 6.64743 61.4603 6.70244 61.1602 6.70244C61.0331 6.70244 60.9049 6.73109 60.7887 6.7657C60.3665 6.91623 59.9407 6.93891 59.5112 6.82189C59.3128 6.7657 59.1228 6.75377 58.9268 6.81585C58.8446 6.83979 58.7502 6.83979 58.6606 6.8434C58.282 6.85172 57.902 6.85171 57.5233 6.85532C57.3745 6.85532 57.2306 6.83021 57.0938 6.86011C56.8712 6.90069 56.6607 6.87557 56.4526 6.81585C56.1864 6.73941 55.9142 6.73109 55.6517 6.75377C55.4872 6.7657 55.331 6.79678 55.1726 6.83382C54.9173 6.88279 54.9173 6.88758 54.8084 6.65818C54.7915 6.626 54.7806 6.59493 54.7637 6.56267C54.731 6.50656 54.6354 6.47069 54.5749 6.48262C54.449 6.50177 54.3353 6.54713 54.2409 6.63793C54.149 6.72513 54.0668 6.81585 53.9881 6.91505C53.9579 6.94605 53.9385 7.01174 53.9409 7.056C53.9433 7.12043 54.0074 7.14194 54.0595 7.14194C54.3898 7.14194 54.7044 7.20645 55.0165 7.30204C55.2101 7.36059 55.4013 7.37487 55.6069 7.38327C55.9639 7.39637 56.3135 7.43459 56.6656 7.55051C57.0539 7.67828 57.458 7.79294 57.8802 7.74993C57.9698 7.74279 58.063 7.7679 58.1501 7.77983C58.2698 7.79411 58.4005 7.81209 58.5251 7.8288C58.8639 7.86938 59.199 7.90046 59.539 7.95539C59.6829 7.97808 59.8233 7.99 59.9648 7.95061C60.1088 7.91356 60.2552 7.90046 60.3943 7.94943C60.5177 7.99 60.6399 7.98765 60.7682 7.959C60.8481 7.94464 60.9424 7.93985 61.038 7.94464C61.43 7.96497 61.8269 7.99 62.2261 8.01033C62.3846 8.02469 62.5479 8.04376 62.6895 8.13221C62.8008 8.20025 62.9254 8.22294 63.0537 8.18118C63.2678 8.11785 63.4759 8.12381 63.6912 8.17279C63.7759 8.19311 63.8848 8.2074 63.9586 8.17757C64.2151 8.08559 64.4801 8.05216 64.7571 8.09635C64.8418 8.11071 64.9386 8.08559 65.0258 8.06652C65.31 8.00797 65.598 8.02108 65.8859 8.04376C66.2272 8.07963 66.5647 8.14171 66.912 8.12381C66.9615 8.1202 67.0184 8.13457 67.0728 8.15128C67.2422 8.2074 67.4249 8.20739 67.604 8.22654C68.0697 8.29106 67.6935 8.3197 68.1593 8.36985C68.3577 8.39136 68.5537 8.41404 68.7521 8.3806C68.8538 8.36153 68.9651 8.3806 69.0739 8.38657C69.1852 8.39253 69.2869 8.41647 69.3909 8.42243C69.795 8.43554 70.187 8.42008 70.5791 8.53592C70.6262 8.5502 70.6855 8.54306 70.7375 8.54667C71.1138 8.57775 71.4937 8.57171 71.8675 8.5502C72.1434 8.53827 72.4132 8.51677 72.683 8.50484C73.1125 8.48812 73.5468 8.47619 73.9727 8.37346C74.0598 8.35196 74.1469 8.35196 74.2401 8.34717C74.4881 8.34599 74.7482 8.35557 74.9987 8.35196C75.3048 8.34003 75.6145 8.34599 75.9145 8.2982C76.3077 8.2373 76.6997 8.22655 77.1014 8.25637C77.2975 8.27316 77.4958 8.2767 77.6919 8.22294C77.9048 8.16565 78.1201 8.16321 78.3343 8.19547C78.7299 8.25637 79.1243 8.25637 79.5212 8.22294C79.7198 8.20865 79.9208 8.20143 80.1115 8.25637C80.4611 8.35196 79.7293 8.3675 80.0972 8.34599C80.3101 8.33289 80.5302 8.34003 80.7455 8.33642C80.9076 8.33163 81.0665 8.35196 81.2294 8.3806C81.7085 8.45948 82.1844 8.55263 82.6802 8.51802C82.8033 8.50845 82.9304 8.53592 83.0536 8.55263C83.2522 8.58128 83.4485 8.60993 83.6447 8.65058C83.8624 8.69594 84.0754 8.68998 84.2843 8.62311C84.6633 8.50484 85.0717 8.54667 85.4546 8.4284C85.523 8.40807 85.6008 8.42243 85.6723 8.42722C86.246 8.43915 86.8252 8.45587 87.402 8.46662C87.5434 8.46905 87.6928 8.48098 87.8295 8.45587C88.4246 8.34238 89.0173 8.38657 89.6068 8.49652C89.892 8.54667 90.1781 8.57775 90.4665 8.55742C91.114 8.4977 90.7072 8.57296 91.3428 8.4284C91.3595 8.42722 91.3841 8.42722 91.3945 8.42722C91.7782 8.43915 92.1509 8.35196 92.5322 8.42243C92.5863 8.4284 92.6435 8.42722 92.6951 8.41404C93.0677 8.33281 93.4491 8.3591 93.8313 8.36153C94.3127 8.36389 94.7982 8.38186 95.2844 8.30534C95.6205 8.25284 95.9606 8.22654 96.2983 8.168C96.601 8.11188 96.9061 8.08198 97.2127 8.10231C97.6863 8.13221 98.1455 8.03066 98.6167 8.02108C98.6882 8.02108 98.7629 7.99722 98.8272 7.96976C99.1172 7.84073 99.4128 7.8288 99.7298 7.8897C99.76 7.89206 99.7965 7.89206 99.8664 7.89206ZM32.8868 24.0233V24.0329C32.7029 24.0329 32.5202 24.0483 32.3436 24.0304C32.1004 24.0053 31.8777 24.0627 31.66 24.1594C31.5233 24.2227 31.4265 24.3171 31.3974 24.4723C31.3599 24.6814 31.3152 24.8917 31.3345 25.1066C31.3551 25.2882 31.3321 25.4626 31.2946 25.6382C31.228 25.9559 31.2135 26.2725 31.2135 26.5973C31.2111 27.0739 31.1882 27.5565 31.1905 28.0366C31.1954 28.3914 31.2087 28.7497 31.2486 29.1021C31.2752 29.2801 31.2982 29.452 31.245 29.6289C31.1712 29.8737 31.1809 30.1162 31.2329 30.3671C31.2632 30.5032 31.2752 30.6501 31.2632 30.7899C31.2232 31.3238 31.2354 31.8565 31.1639 32.388C31.1337 32.6031 31.1494 32.8109 31.245 33.014C31.3321 33.2003 31.3273 33.3902 31.2559 33.5849C31.2232 33.6673 31.2039 33.7569 31.1882 33.8441C31.1688 33.911 31.2184 33.9946 31.2801 34.0149C31.5849 34.1248 31.9056 34.1534 32.2299 34.1797C32.45 34.1965 32.6594 34.0782 32.8723 34.1403C33.1045 34.2072 33.3405 34.1881 33.574 34.1845C33.7495 34.1797 33.9333 34.1607 34.1112 34.1607C34.4161 34.1559 34.7185 34.1367 35.0113 34.0305C35.1481 33.9791 35.292 33.9886 35.4288 34.0436C35.4832 34.0627 35.5304 34.0866 35.5788 34.1081C35.753 34.1774 35.9236 34.1965 36.1099 34.1774C36.3579 34.1523 36.6108 34.1535 36.866 34.1284C37.0294 34.1117 37.1806 34.1093 37.3416 34.1654C37.4407 34.1965 37.5605 34.2144 37.6573 34.1941C37.9549 34.1284 38.2695 34.1463 38.5574 34.0209C38.6615 33.9791 38.7728 33.9671 38.8696 34.0257C39.0584 34.1284 39.2507 34.1367 39.4443 34.0579C39.6185 33.9886 39.7963 33.9743 39.9754 33.9946C40.0819 34.0077 40.186 34.052 40.2851 34.0782C40.7158 34.1845 41.1356 34.2598 41.5712 34.1367C41.6885 34.0962 41.8192 34.1152 41.9463 34.1367C42.0322 34.1487 42.1217 34.1463 42.2113 34.1463C42.2536 34.1463 42.3201 34.071 42.3129 34.0352C42.2657 33.7844 42.325 33.5419 42.3552 33.2935C42.4 32.9423 42.3951 32.5816 42.4786 32.2328C42.5367 31.9736 42.5682 31.7072 42.5464 31.436C42.5367 31.3321 42.5585 31.2259 42.5609 31.1184C42.5754 30.9225 42.5936 30.7266 42.5936 30.5355C42.5936 30.0696 42.5779 29.6085 42.5779 29.1439C42.5779 28.9659 42.5911 28.7879 42.6154 28.6099C42.6795 28.1895 42.6976 27.7607 42.7291 27.3355C42.7424 27.1588 42.7545 26.9771 42.8017 26.8112C42.8489 26.6511 42.8634 26.4982 42.8307 26.3357C42.7944 26.1769 42.7944 26.0156 42.8634 25.8615C43.0388 25.4399 42.9674 24.9836 43.0218 24.5441C43.0388 24.3899 42.913 24.2681 42.7617 24.2622C42.6674 24.2562 42.5754 24.255 42.4871 24.2622C42.1786 24.2992 41.881 24.2777 41.5797 24.1726C41.3788 24.1033 41.1671 24.0758 40.9469 24.0663C40.6421 24.0507 40.3323 24.0304 40.0323 23.9851C39.3898 23.8799 38.7402 23.8919 38.0929 23.8059C38.059 23.8035 38.0239 23.8035 37.9888 23.8107C37.6622 23.8572 37.3367 23.8059 37.0173 23.7736C36.8915 23.7581 36.7693 23.7378 36.6386 23.7617C36.0676 23.8656 35.4929 23.8178 34.9169 23.819C34.7512 23.8238 34.5927 23.8357 34.4342 23.8728C34.07 23.9647 33.6998 24.0423 33.3163 24.0281C33.1748 24.0208 33.0235 24.0233 32.8868 24.0233ZM43.4332 23.5693C43.726 23.7342 44.0019 23.8931 44.2813 24.0519C44.3878 24.1176 44.4277 24.2167 44.418 24.3279C44.4084 24.4521 44.3902 24.5763 44.3563 24.6945C44.2958 24.9036 44.2741 25.1078 44.2644 25.3252C44.2547 25.5892 44.2293 25.8615 44.1652 26.1195C44.1059 26.3799 43.9982 26.6307 44.026 26.9043C44.066 27.1957 43.9099 27.4561 43.9051 27.7464C43.9026 27.8145 43.9051 27.8861 43.9003 27.9554C43.8966 28.045 43.8966 28.1358 43.8724 28.2206C43.8107 28.3962 43.8107 28.5717 43.8107 28.7497C43.8107 28.8931 43.7877 29.0316 43.7659 29.169C43.726 29.5428 43.6994 29.9156 43.7587 30.2846C43.8349 30.6621 43.8397 31.0312 43.6994 31.3883C43.6764 31.454 43.6498 31.5352 43.6667 31.5961C43.7406 31.8804 43.674 32.1683 43.6909 32.4477C43.7066 32.9315 43.6861 33.4081 43.5627 33.8775C43.5554 33.893 43.5554 33.911 43.5554 33.9265C43.5446 34.0388 43.6292 34.1487 43.7406 34.1487C43.9813 34.1487 44.2123 34.1367 44.4471 34.1367C44.5911 34.1367 44.187 34.1308 44.3237 34.1559C44.6092 34.2144 44.8936 34.2419 45.1863 34.1702C45.2686 34.1499 45.363 34.1403 45.4489 34.1487C45.8663 34.1702 45.6206 34.077 46.032 34.1702C46.1155 34.1905 46.2098 34.1726 46.297 34.1523C46.4785 34.1117 46.6539 34.1272 46.8354 34.169C47.0459 34.2191 47.2589 34.2395 47.4742 34.1523C47.5492 34.1177 47.6508 34.1177 47.738 34.1117C47.9206 34.1009 48.0924 34.0758 48.2654 34.0209C48.6429 33.9074 49.0216 33.9886 49.3906 34.0555C49.4087 34.0579 49.4233 34.071 49.4354 34.0806C49.5648 34.2072 49.7233 34.2012 49.8939 34.2072C50.1419 34.2144 50.3948 34.2347 50.6501 34.2418C50.7553 34.2466 50.8618 34.2514 50.9707 34.2466C51.2586 34.2347 51.5454 34.212 51.8333 34.2012C51.9615 34.1953 52.0862 34.1941 52.2121 34.2216C52.408 34.2658 52.6016 34.2896 52.7952 34.2275C52.8641 34.2072 52.9343 34.212 53.0129 34.2143C53.2791 34.2216 53.5514 34.2418 53.8187 34.2418C54.1466 34.2466 54.4781 34.2621 54.7866 34.1607C55.0564 34.0758 55.3189 34.0651 55.5815 34.1248C55.8029 34.1774 56.0014 34.1702 56.2143 34.0806C56.472 33.9743 56.7442 33.9743 56.9922 34.1367C57.0624 34.1797 57.1591 34.2072 57.2475 34.2143C57.4955 34.2347 57.7532 34.2514 57.9843 34.1367C58.1234 34.071 58.2638 34.0615 58.4102 34.077C58.5167 34.0914 58.6243 34.0914 58.7356 34.0949C58.8941 34.0985 59.0526 34.1177 59.1918 34.2251C59.3103 34.3123 59.4519 34.3326 59.6055 34.3063C59.6576 34.2932 59.7072 34.2789 59.7641 34.2717C59.9624 34.2466 60.1585 34.2144 60.352 34.2072C60.5153 34.2072 60.6739 34.2658 60.8324 34.2669C60.9944 34.2717 61.1505 34.2419 61.3138 34.2347C61.3901 34.2347 61.4603 34.2526 61.5316 34.2669C61.7797 34.3255 62.0325 34.3303 62.2854 34.3063C62.5733 34.2705 62.8564 34.2717 63.1431 34.298C63.292 34.3088 63.4335 34.3088 63.5775 34.3088C63.9768 34.3063 63.9042 34.2932 64.2986 34.2932C64.4474 34.2932 64.5842 34.2848 64.7173 34.212C64.8963 34.1117 65.0923 34.0985 65.2907 34.0962C65.3899 34.0962 65.4734 34.1177 65.5412 34.1881C65.6101 34.2514 65.6827 34.3015 65.7819 34.2884C66.1231 34.2418 66.4607 34.2932 66.803 34.2466C66.9421 34.2251 67.091 34.2466 67.2314 34.2705C67.4455 34.3123 66.82 34.3123 67.0389 34.3123C67.6681 34.3123 68.2972 34.2526 68.93 34.3063C69.0364 34.3088 69.1429 34.2896 69.247 34.2621C69.8773 34.077 70.5197 34.0579 71.1743 34.1367C71.2481 34.1439 71.3279 34.1487 71.3824 34.1797C71.5977 34.3088 71.8312 34.3015 72.0659 34.3111C72.3515 34.3255 72.6394 34.3613 72.9286 34.39C73.0157 34.396 73.1101 34.4198 73.1899 34.3983C73.4501 34.3386 73.6932 34.39 73.9485 34.396C74.4168 34.3983 74.8898 34.4497 75.3507 34.3386C75.4899 34.3063 75.6339 34.3291 75.7827 34.3505C76.0996 34.4031 76.4227 34.4198 76.7494 34.3828C77.1462 34.3386 77.5382 34.3195 77.9374 34.2896C78.2823 34.2621 78.6186 34.2837 78.961 34.3326C79.2138 34.3697 79.4568 34.3828 79.7047 34.3291C79.9581 34.2705 79.1194 34.2669 79.3772 34.3015C79.5331 34.3171 79.6999 34.3123 79.8564 34.2848C80.0169 34.2526 80.1782 34.2514 80.3363 34.2669C80.9863 34.3291 81.6362 34.3195 82.2909 34.3291C82.4323 34.3303 82.5737 34.3255 82.7143 34.2789C83.079 34.1535 83.4628 34.1487 83.833 34.1523C84.1747 34.1559 84.5219 34.1225 84.854 34.2418C84.8993 34.2562 84.9652 34.2562 85.0153 34.2431C85.2091 34.1941 85.4141 34.2395 85.6056 34.206C85.844 34.1654 86.0664 34.1726 86.2913 34.2658C86.3882 34.3028 86.5034 34.2932 86.6123 34.2896C87.1009 34.2717 87.584 34.2514 88.075 34.2323C88.179 34.2251 88.2927 34.212 88.3991 34.2275C88.6629 34.2789 88.9307 34.2789 89.2024 34.2431C89.3661 34.2251 89.5281 34.2418 89.672 34.3291C89.838 34.4246 90.0184 34.4413 90.1995 34.4378C90.5213 34.427 90.847 34.4413 91.1712 34.4031C91.7417 34.3398 91.2626 34.3816 91.8386 34.3756C91.984 34.3756 92.1302 34.4007 92.2645 34.4473C92.4981 34.5225 92.7205 34.5297 92.9541 34.5321C93.6636 34.5321 94.3652 34.501 95.0652 34.5871C95.6038 34.648 96.1378 34.2694 96.655 34.4569C96.7241 34.4784 96.7948 34.4975 96.8632 34.501C97.1563 34.5022 97.4304 34.5799 97.7165 34.6349C97.8929 34.6683 98.0613 34.7196 98.2266 34.7973C98.341 34.8475 98.4554 34.9024 98.5746 34.955C98.6167 34.9765 98.6683 34.9992 98.7207 35.0087C98.9456 35.0505 99.0505 34.9598 99.0656 34.7782C99.0989 34.4413 99.1498 34.1081 99.2165 33.776C99.2737 33.5168 99.2515 33.2421 99.3158 32.9829C99.3325 32.9172 99.3278 32.836 99.3158 32.7691C99.2141 32.3056 99.2737 32.2794 99.3015 31.8183C99.3373 31.3011 99.3476 30.7863 99.3476 30.2715C99.3476 30.0768 99.3532 29.8797 99.3675 29.685C99.3969 29.3458 99.4366 29.0101 99.4549 28.6709C99.4668 28.3711 99.4549 28.0665 99.462 27.7607C99.4668 27.4645 99.4366 27.1527 99.4962 26.8589C99.5526 26.5519 99.4891 26.2593 99.4795 25.9583C99.4795 25.9045 99.4891 25.8508 99.4891 25.8006C99.4819 25.5832 99.4795 25.373 99.474 25.1568C99.4668 24.6575 99.4819 24.1618 99.4891 23.6661C99.4891 23.5753 99.5018 23.4869 99.5264 23.3997C99.5685 23.2265 99.5804 23.0485 99.5804 22.8718C99.5884 22.6245 99.6003 22.3713 99.6281 22.1253C99.6797 21.5579 99.7465 20.9941 99.7417 20.4232C99.7393 19.9059 99.7743 19.3887 99.7838 18.874C99.791 18.5718 99.7965 18.2672 99.8434 17.9674C99.8641 17.7942 99.8641 17.6126 99.8617 17.4358C99.8569 17.0249 99.8291 16.6176 99.8927 16.2115C99.9157 16.0538 99.9062 15.8926 99.8974 15.7325C99.8831 15.4303 99.8688 15.1282 99.9427 14.8283C99.9705 14.7077 99.9729 14.5763 99.9499 14.4592C99.8879 14.1379 99.8831 13.8238 99.9062 13.5001C99.9157 13.3257 99.8998 13.1429 99.876 12.9697C99.8641 12.8467 99.7417 12.7368 99.6281 12.7201C99.5216 12.7058 99.4128 12.7046 99.3015 12.6974C98.8908 12.6759 98.4752 12.6413 98.0756 12.5182C97.7355 12.4155 97.3875 12.3211 97.0197 12.3163C96.8187 12.3092 96.6359 12.2459 96.4619 12.1348C96.3555 12.0691 96.249 11.9962 96.133 11.958C95.6865 11.8171 95.2678 11.6057 94.8379 11.4193C94.7243 11.3668 94.6067 11.3225 94.4836 11.2951C94.2897 11.2509 94.0943 11.2246 93.9004 11.1936C93.6636 11.1613 93.4348 11.1183 93.2219 11.0108C93.0582 10.9332 92.9001 10.8675 92.7134 10.8484C92.6435 10.8424 92.5648 10.8269 92.5052 10.7898C92.2692 10.6442 92.007 10.6035 91.7385 10.5593C91.6297 10.5438 91.528 10.5067 91.4263 10.4709C91.1688 10.3838 91.9649 10.336 91.6877 10.3025C91.2578 10.2559 90.8312 10.1974 90.4029 10.1401C89.8126 10.0625 89.2254 10.0075 88.6256 10.0314C88.4126 10.0397 88.1886 10.0254 87.9756 10.0015C87.5434 9.95132 87.1128 9.93704 86.6814 9.95854C86.3167 9.97879 85.9623 10.0409 85.6008 9.98836C85.5357 9.97643 85.4594 10.0039 85.3903 10.0218C85.1567 10.0732 84.9231 10.0648 84.6911 10.0541C84.4178 10.0397 84.1477 10.029 83.8775 9.9824C83.4389 9.91192 82.9877 9.88445 82.553 9.73872C82.4887 9.71721 82.4124 9.71721 82.3425 9.722C82.2527 9.72436 82.1645 9.75426 82.0779 9.75308C81.5488 9.7304 81.0307 9.76501 80.5111 9.78408C80.0003 9.80558 80.5922 9.8223 80.0972 9.93821C79.9955 9.96325 79.8827 9.95611 79.7714 9.95854C79.6133 9.96929 79.4474 9.97643 79.2865 9.98836C79.0154 10.0087 78.7432 10.0218 78.4771 9.97879C78.3911 9.96568 78.2943 9.94897 78.2048 9.96569C77.8624 10.0289 77.5225 9.96686 77.1837 9.96686C76.8038 9.96686 76.4227 9.97644 76.0476 9.97644C75.9557 9.97644 75.8601 9.97644 75.7802 9.95854C75.6145 9.93225 75.456 9.94897 75.2988 10.0075C75.0592 10.0863 74.8112 10.1186 74.5534 10.0672C74.4687 10.0529 74.3696 10.0362 74.2873 10.0552C74.0393 10.1234 73.7864 10.0863 73.5311 10.0684C73.1367 10.0409 72.741 10.0409 72.3515 9.93821C72.2378 9.90831 72.101 9.90596 71.98 9.91789C71.5433 9.974 71.1138 9.86892 70.6855 9.91193C70.6129 9.91671 70.5415 9.88807 70.4726 9.87849C70.3782 9.86892 70.2911 9.84859 70.1967 9.85102C69.9112 9.86295 69.6245 9.81877 69.3486 9.75308C69.2155 9.722 69.1005 9.70646 68.9699 9.7304C68.8235 9.7614 68.6844 9.74829 68.5404 9.7304C68.3988 9.71721 68.2488 9.70411 68.1049 9.72082C67.7322 9.75787 67.3559 9.79483 66.9857 9.85934C66.4534 9.95375 66.7679 10.0827 66.2223 10.0982C66.1703 10.0982 66.1134 10.109 66.0638 10.1186C65.7238 10.1723 65.3827 10.1508 65.0402 10.1078C64.6676 10.0625 64.2841 10.0314 63.9126 9.99551C63.8945 9.99315 63.8776 9.98837 63.857 9.99551C63.5775 10.0732 63.2824 10.0409 63.004 10.084C62.5189 10.1544 62.0398 10.2284 61.5546 10.2368C61.0489 10.2476 60.548 10.2953 60.0544 10.1591C59.9673 10.1329 59.8729 10.1401 59.787 10.1508C59.5463 10.1699 59.3151 10.1329 59.0998 10.0397C58.9219 9.96568 58.7526 9.96568 58.5674 10.0087C58.1355 10.1114 57.7012 10.2536 57.2451 10.1699C57.2051 10.1652 57.1688 10.1699 57.1338 10.1759C56.8482 10.2368 56.5615 10.189 56.2759 10.1437C56.0255 10.1078 55.7775 10.0792 55.5246 10.0481C55.2028 10.0075 54.8798 9.97644 54.5603 9.91193C54.0946 9.81516 53.6288 9.8223 53.1666 9.87849C53.0759 9.88807 52.9839 9.89756 52.8968 9.87849C52.5048 9.78769 52.1189 9.76736 51.7171 9.82591C51.647 9.83549 51.5756 9.8223 51.503 9.8223C51.2114 9.82591 50.9283 9.81877 50.6404 9.84262C50.2435 9.87849 49.848 9.80087 49.4511 9.82591C49.0942 9.74829 48.7313 9.80802 48.3743 9.8223C47.8541 9.84263 47.3508 9.99676 46.8172 9.95376C46.7361 9.94897 46.637 9.96568 46.5523 9.98601C46.1603 10.0648 45.7671 10.0863 45.3678 10.0529C45.2057 10.0362 45.0424 10.0362 44.8839 10.0719C44.5463 10.1508 44.2051 10.1544 43.8628 10.0899C43.7756 10.0719 43.6861 10.0541 43.5978 10.0672C43.2699 10.1078 42.948 10.0684 42.6226 10.0541C42.4786 10.0493 42.3383 10.0552 42.1919 10.084C41.7309 10.1699 41.264 10.1329 40.7933 10.1508C40.7111 10.1591 40.6167 10.1305 40.5283 10.1078C40.382 10.0648 40.2476 10.0684 40.1133 10.1401C39.9779 10.2117 39.8363 10.2368 39.6923 10.1927C39.5882 10.1591 39.4818 10.1675 39.3705 10.1759C38.8515 10.2237 38.3481 10.3765 37.8255 10.398C37.788 10.398 37.7492 10.4064 37.7166 10.4243C37.4855 10.5355 37.2326 10.5462 36.9797 10.5378C36.7572 10.5259 36.5467 10.5629 36.3506 10.6597C36.2188 10.7313 36.0821 10.7528 35.9308 10.7373C35.8619 10.7313 35.7857 10.7492 35.7179 10.7612C35.4154 10.809 35.1057 10.7755 34.8056 10.8556C34.7742 10.8639 34.7318 10.8627 34.6992 10.8508C34.4959 10.7946 34.3168 10.8376 34.1245 10.9177C33.9236 10.9965 33.712 10.8185 33.4869 10.9057C33.3102 10.975 33.0997 10.9643 32.9038 10.987C32.525 11.0335 32.1452 10.9833 31.7737 11.0789C31.7241 11.0932 31.66 11.0873 31.6128 11.0789C31.4095 11.049 31.2184 11.0789 31.032 11.1482C30.8167 11.2234 30.5965 11.2437 30.3872 11.1936C30.2021 11.1518 30.0363 11.1613 29.8597 11.2138C29.7061 11.2628 29.5403 11.2843 29.3818 11.3083C29.2923 11.3225 29.1955 11.3298 29.1132 11.3083C28.8857 11.2437 28.6644 11.1864 28.4345 11.2951C28.3147 11.2772 28.1865 11.2461 28.0594 11.2545C27.7872 11.2593 27.5222 11.2246 27.2585 11.1482C27.0661 11.0932 26.8677 11.0789 26.6717 11.0932C26.5423 11.1028 26.4164 11.0992 26.2942 11.1099C26.0765 11.1255 25.8611 11.1291 25.6421 11.0837C25.4521 11.0442 25.2513 11.0646 25.0553 11.0873C24.6779 11.1398 24.2967 11.1685 23.9241 11.0837C23.6446 11.0216 23.3893 11.0216 23.1231 11.0873C22.9646 11.1351 22.8086 11.1482 22.6452 11.1159C22.5908 11.1028 22.5339 11.0992 22.4795 11.1147C22.3029 11.1613 22.1298 11.1351 21.9484 11.0992C21.8794 11.0837 21.8092 11.0932 21.7354 11.0932C21.2321 11.1099 20.7264 11.1255 20.2183 11.1518C19.9678 11.1637 19.7222 11.1661 19.4669 11.1351C19.2383 11.1028 19.006 11.0741 18.77 11.1028C18.2498 11.1756 17.726 11.1864 17.2057 11.1482C17.1186 11.1422 17.0194 11.1518 16.9431 11.1864C16.7048 11.2843 16.4592 11.3357 16.2039 11.319C15.9365 11.2963 15.6632 11.344 15.3957 11.2891C15.1622 11.239 14.942 11.1781 14.7291 11.0837C14.6396 11.0479 14.5525 11.0992 14.5283 11.2043C14.5113 11.276 14.4908 11.344 14.4859 11.4158C14.4714 11.6964 14.4617 11.9819 14.4556 12.2662C14.4533 12.4119 14.4617 12.5493 14.4617 12.6914C14.4593 12.9589 14.4593 13.2337 14.5658 13.481C14.7085 13.8035 14.7218 14.1355 14.7363 14.4747C14.7581 14.9884 14.7218 15.5068 14.8453 16.012C14.8706 16.1315 14.8706 16.2617 14.8573 16.3859C14.8453 16.6355 14.8549 16.8804 14.8706 17.1336C14.8972 17.5935 14.9154 18.0521 14.9275 18.518C14.9372 18.7688 14.9444 19.0137 14.9916 19.2622C15.0243 19.4521 15.0267 19.648 15.0243 19.845C15.0147 20.4184 14.9723 20.9846 14.959 21.5507C14.9493 21.872 14.89 22.1897 14.8453 22.5063C14.8331 22.5923 14.8138 22.6878 14.7738 22.7631C14.6795 22.9256 14.6795 23.0975 14.6868 23.2791C14.6965 23.5968 14.717 23.9205 14.6021 24.2323C14.5778 24.31 14.573 24.4114 14.5875 24.4927C14.6868 24.9979 14.5996 25.484 14.4859 25.9738C14.4593 26.0778 14.4169 26.1769 14.4061 26.2831C14.3274 26.8243 14.3649 27.3821 14.2476 27.9232C14.2403 27.9554 14.2452 27.9961 14.2452 28.0319C14.2403 28.4738 14.233 28.9218 14.2282 29.3649C14.2282 29.4378 14.2282 29.5071 14.2379 29.5763C14.3153 30.1282 14.2947 30.68 14.2633 31.2307C14.2549 31.3907 14.2476 31.5484 14.2706 31.7072C14.3044 31.9915 14.3274 32.277 14.1931 32.5481C14.1786 32.5779 14.1689 32.6186 14.1689 32.6484C14.1387 33.137 13.9608 33.5849 13.8314 34.0448C13.8217 34.0806 13.8145 34.1177 13.8242 34.1523C13.8314 34.2012 13.8532 34.2514 13.8834 34.2932C13.9112 34.3398 14.0105 34.3291 14.0697 34.2669C14.1218 34.2191 14.1689 34.1654 14.2186 34.1117C14.2924 34.0149 14.3964 33.9886 14.5089 34.0209C14.8803 34.1117 15.2566 34.1117 15.6365 34.1225C15.9245 34.1367 16.2087 34.1177 16.5015 34.1177C16.7 34.1152 16.8984 34.1033 17.0944 34.1702C17.2129 34.212 17.3376 34.2072 17.4634 34.1857C17.6945 34.1403 17.9267 34.1272 18.1651 34.1367C18.4108 34.1367 18.6636 34.1463 18.9165 34.1225C19.15 34.0985 19.3822 34.0758 19.6157 34.0914C19.6872 34.0962 19.7597 34.0866 19.8287 34.071C20.2776 33.9516 20.7264 33.985 21.1728 34.04C21.5697 34.0866 21.9653 34.0758 22.3622 34.0579C22.5836 33.966 22.8255 33.9982 23.0566 34.0006C23.3264 34.0006 23.595 34.0209 23.8624 33.9791C23.9519 33.9623 24.0438 33.966 24.1346 33.966C24.3899 33.9791 24.6416 33.9946 24.8932 34.0054C25.2138 34.0149 25.5405 34.003 25.8478 34.1225C25.9156 34.1487 26.5447 34.1523 26.6173 34.1523C26.6669 34.1535 26.7286 34.1487 26.7685 34.1177C26.9367 33.9946 27.1302 33.9791 27.3311 33.9802C27.7279 33.9802 29.2548 33.9743 29.6516 33.966C29.7677 33.966 29.867 33.8823 29.8524 33.7629C29.8319 33.5419 29.9371 33.3424 29.9517 33.1322C29.971 32.9005 30.0412 32.6795 30.1029 32.4561C30.1319 32.3558 30.1694 32.2519 30.1743 32.1479C30.1815 31.8278 30.1815 31.5042 30.1743 31.19C30.1694 30.9547 30.1815 30.7182 30.1271 30.4936C30.0799 30.2584 30.1815 30.0385 30.1549 29.8069C30.1404 29.6635 30.1404 29.5238 30.138 29.3816C30.1319 29.2932 30.1199 29.2025 30.1247 29.1129C30.1549 28.7055 30.1622 28.297 30.1174 27.8933C30.1077 27.8384 30.1125 27.787 30.1247 27.7321C30.1972 27.3247 30.1477 26.9138 30.138 26.5066C30.1271 26.313 30.1247 26.1183 30.1343 25.9213C30.1477 25.5318 30.1743 25.1389 30.1972 24.7483C30.2239 24.2885 30.2021 23.8178 30.3872 23.3819C30.3981 23.346 30.3957 23.3102 30.4029 23.2732C30.4743 22.9614 30.6728 22.7655 30.9873 22.732C31.4338 22.6795 31.8802 22.6413 32.3315 22.5923C32.5106 22.5755 32.6884 22.5171 32.8626 22.5326C33.2619 22.5672 33.6526 22.4274 34.0471 22.5266C34.0943 22.5361 34.1584 22.523 34.208 22.5063C34.4984 22.4179 34.8226 22.4812 35.1154 22.3952C35.165 22.3821 35.2267 22.3917 35.2763 22.4107C35.5352 22.5063 35.8074 22.5039 36.0748 22.4657C36.5261 22.3952 36.975 22.4406 37.4262 22.4537C37.6718 22.4585 37.9198 22.5434 38.1703 22.5481C38.4401 22.5529 38.7087 22.4836 38.9809 22.486C39.5193 22.4908 40.0564 22.5529 40.59 22.597C40.7884 22.615 40.9821 22.6508 41.172 22.7165C41.2687 22.7535 41.3788 22.7727 41.4853 22.7846C41.9185 22.8336 42.3383 22.9459 42.7545 23.0485C43.1961 23.1597 43.1924 23.1704 43.4332 23.5693ZM76.113 35.2571C76.0996 35.2571 76.0803 35.2536 76.0682 35.2571C75.7186 35.3802 75.3689 35.4399 75.0072 35.3049C74.9128 35.2667 74.793 35.2667 74.6938 35.287C74.2086 35.3754 73.7223 35.3456 73.2371 35.3503C72.8548 35.3515 72.4773 35.318 72.1011 35.4088C71.997 35.4328 71.8857 35.4148 71.7792 35.428C71.3691 35.4566 70.9504 35.4482 70.5415 35.5438C70.4895 35.5569 70.4326 35.5641 70.3782 35.5617C70.0552 35.5569 69.7309 35.551 69.4115 35.539C69.247 35.5354 69.0861 35.5032 68.9493 35.4124C68.838 35.3384 68.717 35.318 68.5876 35.3133C68.2476 35.2942 67.9016 35.2631 67.5592 35.2392C67.2737 35.2189 67.8362 35.1855 67.5411 35.2225C67.3487 35.2476 67.1478 35.2166 66.9518 35.1951C66.803 35.1855 66.6614 35.1855 66.5296 35.2571C66.3494 35.3587 66.1582 35.379 65.9549 35.3718C65.8085 35.3635 65.6669 35.3706 65.5206 35.3718C65.3742 35.373 65.2339 35.3503 65.1068 35.2727C64.9435 35.1747 64.7668 35.1484 64.5842 35.1903C63.7118 35.3635 62.8262 35.3587 61.943 35.3456C61.5667 35.3384 61.1868 35.3503 60.8081 35.3408C60.5577 35.3384 60.3024 35.3587 60.0568 35.2894C60.0048 35.2775 59.9455 35.2727 59.8935 35.2775C59.6249 35.3037 59.3575 35.3312 59.0925 35.2571C58.974 35.2261 58.8397 35.2631 58.7127 35.2715C58.3582 35.2966 57.9939 35.3228 57.6347 35.2273C57.533 35.1987 57.4217 35.2106 57.3176 35.2201C57.1591 35.2321 56.9922 35.2452 56.8313 35.2667C56.3824 35.3276 55.9311 35.3133 55.4823 35.2822C54.9245 35.2404 54.3692 35.299 53.809 35.2775C53.6106 35.2715 53.4146 35.2775 53.2138 35.2667C53.0154 35.2596 52.8169 35.2548 52.6246 35.3228C52.5593 35.3443 52.4806 35.3587 52.4153 35.3408C52.0535 35.2667 51.6966 35.4148 51.3373 35.3635C51.0675 35.3228 50.8038 35.2727 50.5412 35.207C50.3778 35.1688 50.2242 35.1484 50.0633 35.1819C49.7233 35.2476 49.3809 35.1795 49.0385 35.2476C48.9889 35.2631 48.9297 35.2476 48.8825 35.2404C48.7022 35.207 48.5207 35.207 48.3429 35.2404C48.2727 35.2548 48.1868 35.244 48.1372 35.207C48.0005 35.1246 47.8734 35.0959 47.7306 35.1795C47.5964 35.2476 47.4524 35.2452 47.306 35.2321C47.1645 35.2166 47.0229 35.1903 46.8826 35.1747C46.4651 35.1365 46.0513 35.1198 45.64 35.1449C45.2928 35.1688 44.9577 35.1903 44.6164 35.0911C44.5487 35.072 44.4701 35.0744 44.4035 35.0911C44.101 35.1651 43.801 35.1987 43.4985 35.1019C43.4187 35.0744 43.3171 35.0864 43.2324 35.1114C43.0218 35.1724 42.8065 35.078 42.5911 35.1282C42.3842 35.1747 42.1568 35.1484 41.9463 35.1532C41.4527 35.1688 40.9748 35.0959 40.4884 35.0744C40.2549 35.0637 40.0178 35.0637 39.7891 35.1282C39.6572 35.1688 39.5012 35.1855 39.3632 35.1688C39.0051 35.1198 38.6458 35.1616 38.2864 35.1436C38.1401 35.1365 37.9985 35.1246 37.8557 35.115C37.7832 35.1079 37.7045 35.0839 37.6392 35.0959C37.3367 35.1747 37.0294 35.1042 36.7293 35.0995C36.2187 35.0911 35.7155 35.1365 35.2146 35.1926C35.0537 35.2106 34.8928 35.2404 34.7319 35.2404C34.1559 35.2369 33.5789 35.2261 33.0005 35.2189C32.8941 35.2189 32.7852 35.2225 32.6787 35.2356C32.5129 35.2571 32.3569 35.2596 32.2056 35.1699C32.1403 35.1329 32.0714 35.1509 32.0024 35.1819C31.7265 35.2942 31.4386 35.2918 31.1494 35.2667C30.9922 35.2476 30.8313 35.2261 30.6679 35.2548C30.271 35.3133 29.8766 35.2631 29.4811 35.2189C29.3515 35.2034 29.2379 35.1986 29.1108 35.2166C28.9475 35.2369 28.7769 35.2667 28.6244 35.2356C28.3304 35.1747 28.0522 35.2166 27.7666 35.2536C27.5017 35.2822 27.2295 35.2918 26.956 35.2727C26.5628 35.2452 26.1635 35.2476 25.7691 35.2966C25.3917 35.3503 25.0154 35.3097 24.6331 35.3037C24.5073 35.299 24.3802 35.2727 24.2592 35.287C23.7777 35.3324 23.2902 35.3909 22.811 35.4482C22.6283 35.471 22.4565 35.4864 22.2763 35.428C22.1891 35.3957 22.0948 35.373 22.0101 35.3921C21.7403 35.4411 21.4705 35.4088 21.2019 35.3921C20.5897 35.3503 19.9775 35.4088 19.3678 35.3957C19.2588 35.3921 19.15 35.4148 19.0399 35.4255C18.9358 35.428 18.8245 35.4495 18.718 35.428C18.4301 35.373 18.1433 35.4745 17.8578 35.4124C17.8251 35.4029 17.7888 35.4124 17.7538 35.4255C17.2953 35.5641 16.8234 35.5116 16.3576 35.5594C16.2487 35.5725 16.1349 35.5534 16.0358 35.5868C15.7877 35.6752 15.5397 35.6502 15.2869 35.6226C15.2142 35.6131 15.1453 35.5904 15.0715 35.5964C14.6868 35.6239 14.3794 35.428 14.0818 35.2321C14.0201 35.1903 13.985 35.1198 14.0056 35.0445C14.0225 34.9765 14.06 34.9108 14.0818 34.845C14.1036 34.771 14.0467 34.7005 13.9754 34.6946C13.9112 34.6886 13.8145 34.7495 13.8096 34.8044C13.8023 34.8773 13.7939 34.943 13.7963 35.0134C13.8023 35.2141 13.7721 35.4088 13.7176 35.5964C13.6777 35.7266 13.5833 35.803 13.4491 35.8365C13.4176 35.8436 13.3777 35.8484 13.3486 35.8365C13.1442 35.7516 12.9663 35.6322 12.8575 35.4363C12.7655 35.2775 12.7135 35.1042 12.7703 34.9227C12.8647 34.6133 12.8889 34.2932 12.9119 33.9791C12.9167 33.9218 12.9167 33.868 12.9312 33.819C13.08 33.1537 13.0534 32.4729 13.1417 31.8028C13.1442 31.7657 13.1478 31.7311 13.1442 31.6941C13.1006 31.1589 13.1478 30.6275 13.1599 30.0911C13.1623 29.986 13.1695 29.8761 13.1575 29.7722C13.1079 29.4366 13.0945 29.0973 13.1478 28.7593C13.1599 28.6936 13.1575 28.6207 13.1502 28.5503C13.1297 28.1931 13.1297 27.8384 13.1478 27.4812C13.1575 27.1957 13.1695 26.9139 13.241 26.6332C13.2857 26.4695 13.2736 26.2844 13.2809 26.1076C13.2809 25.9081 13.2857 25.7182 13.3559 25.5271C13.4576 25.2595 13.4442 24.9669 13.4551 24.6826C13.4648 24.4341 13.4745 24.1893 13.5386 23.9444C13.5761 23.8059 13.5736 23.6625 13.5833 23.5192C13.5979 23.2361 13.593 22.9471 13.6281 22.6675C13.6826 22.1563 13.7527 21.6451 13.7721 21.1291C13.7842 20.9332 13.8483 20.7421 13.8532 20.551C13.8617 20.3539 13.8145 20.1592 13.8023 19.9621C13.789 19.6993 13.7842 19.4306 13.7721 19.1642C13.7527 18.8453 13.7298 18.5216 13.7031 18.2063C13.6946 18.1191 13.6753 18.0295 13.6753 17.9387C13.6608 17.3701 13.6185 16.8028 13.4963 16.2438C13.4866 16.1935 13.4745 16.1363 13.4866 16.0825C13.5313 15.7839 13.5071 15.4877 13.4576 15.1831C13.4442 15.0637 13.4576 14.937 13.4672 14.8116C13.4866 14.6312 13.4938 14.4568 13.4321 14.2848C13.3898 14.1642 13.3898 14.0412 13.4055 13.917C13.4648 13.4857 13.4551 13.0629 13.3305 12.646C13.3039 12.5589 13.2712 12.4717 13.2736 12.3833C13.2906 11.9914 13.2095 11.6057 13.207 11.2138C13.2047 11.0873 13.2144 10.9618 13.2434 10.8436C13.3377 10.4232 13.3111 9.99198 13.3559 9.56794C13.3656 9.49747 13.3535 9.4222 13.3232 9.35887C13.2313 9.1618 13.2167 8.94559 13.1938 8.73777C13.1272 8.15246 13.0038 7.57916 13.0135 6.98788C13.0135 6.88036 12.9857 6.77763 12.9712 6.67019C12.9433 6.45036 12.9832 6.24372 13.0679 6.04187C13.1623 5.81011 13.42 5.68831 13.6426 5.79583C13.8289 5.88663 14.008 5.91646 14.2112 5.92603C14.4787 5.93914 14.7557 5.93435 15.011 6.02994C15.0739 6.05741 15.1598 6.06816 15.2251 6.05262C15.4235 6.01322 15.6183 6.05623 15.8143 6.05741C16.2983 6.06816 16.7871 6.09924 17.2722 6.05741C17.7042 6.02037 18.1373 6.02154 18.5668 6.0013C19.2334 5.96904 19.9001 5.97618 20.5679 5.96904C21.2176 5.96064 21.8637 5.93435 22.5133 6.01676C22.5654 6.02398 22.6223 6.03355 22.6743 6.02994C23.2151 5.96661 23.7535 6.07774 24.2967 6.0753C24.5448 6.07052 24.7976 6.07773 25.0505 6.07773C25.5018 6.07773 25.9531 6.06816 26.4007 6.06816C26.6391 6.06816 26.8677 6.06816 27.1073 6.02994C27.2089 6.01322 27.3262 6.01205 27.4255 6.03708C27.6384 6.09924 27.8537 6.07774 28.0691 6.06816C28.3547 6.05741 28.6474 6.0443 28.9305 6.07773C29.3298 6.1231 29.7278 6.11117 30.1199 6.09563C30.8022 6.06816 31.4882 6.03355 32.173 6.03708C32.5323 6.03951 32.8941 6.0753 33.2534 6.0622C33.9007 6.04187 34.5528 6.0359 35.1976 6.01676C35.4723 6.01205 35.7385 5.96904 36.0083 5.98332C36.7293 6.00483 37.4516 6.00129 38.1727 5.96661C38.4062 5.95585 38.6385 5.96904 38.8721 5.96064C39.31 5.9451 39.7347 5.96182 40.1714 5.92721C40.5646 5.89731 40.9639 5.93561 41.3607 5.9451C41.4503 5.9451 41.5422 5.96064 41.6317 5.94628C42.3323 5.85673 43.0364 5.90453 43.7381 5.8926C44.3733 5.88302 45.0024 5.87227 45.6303 5.86034C45.7223 5.85673 45.8131 5.85673 45.9025 5.8448C46.6914 5.74686 47.4875 5.76593 48.2751 5.83162C48.4022 5.8448 48.5328 5.83523 48.6501 5.80541C48.9889 5.71939 49.3289 5.71217 49.6689 5.73014C49.9544 5.74686 50.2484 5.72897 50.5339 5.72292C50.7541 5.71939 50.9658 5.71939 51.1812 5.72292C51.3252 5.72292 51.4716 5.73611 51.6131 5.73964C52.0656 5.75518 52.5193 5.77433 52.9682 5.78265C53.688 5.79583 54.4068 5.8149 55.1254 5.71696C55.4823 5.74921 55.8477 5.69428 56.2046 5.74921C56.3824 5.7755 56.5639 5.79583 56.7442 5.75518C57.0297 5.68596 57.3201 5.70142 57.6044 5.73964C58.1077 5.80541 58.6134 5.78265 59.1191 5.7624C59.2413 5.75518 59.3696 5.75879 59.4918 5.76475C59.983 5.7934 60.4633 5.82809 60.9473 5.85077C61.1626 5.85673 61.3828 5.82809 61.5969 5.80541C61.7978 5.78265 61.9901 5.7839 62.1861 5.82691C62.2902 5.85077 62.4052 5.87227 62.5092 5.86034C63.0149 5.80297 63.5182 5.85077 64.0191 5.8627C64.9217 5.8926 65.8231 5.88663 66.7256 5.84716C66.9023 5.84002 67.0886 5.83405 67.264 5.86749C67.6209 5.94157 67.137 5.90092 67.4951 5.87588C67.6403 5.86748 67.7843 5.85195 67.9282 5.85438C68.1617 5.8627 68.394 5.86034 68.6275 5.80894C68.7667 5.77551 68.913 5.76954 69.057 5.80658C69.3039 5.87227 69.5567 5.86034 69.8071 5.85438C70.0637 5.85077 70.3165 5.85195 70.5669 5.85673C70.7073 5.86034 70.8561 5.8627 70.9952 5.8926C71.2783 5.9535 71.5602 6.02037 71.8482 5.92721C72.1156 5.94871 72.3866 5.96182 72.6563 5.98458C72.8028 6.00129 72.9419 6.0013 73.0823 5.9451C73.2686 5.8627 73.4621 5.85195 73.6654 5.85195C74.003 5.85195 74.3478 5.86748 74.6938 5.81011C74.776 5.79936 74.8704 5.8149 74.9551 5.83162C75.185 5.86866 75.4136 5.91881 75.646 5.96064C75.9339 6.00726 76.2218 6.01322 76.4989 5.90453C76.7252 5.81969 76.955 5.79936 77.191 5.79583C77.3869 5.7934 77.5878 5.78626 77.7838 5.76954C77.9471 5.75518 78.1056 5.75282 78.2665 5.79936C78.3512 5.8233 78.4456 5.82809 78.5327 5.82809C78.8025 5.83523 79.0723 5.85195 79.3457 5.83162C79.8088 5.79936 79.1921 5.8149 79.653 5.72897C79.9375 5.6716 80.2299 5.65723 80.5135 5.69428C80.7924 5.73014 81.0538 5.70503 81.3239 5.68831C81.8626 5.65127 82.4069 5.63699 82.9471 5.62859C83.4509 5.6238 83.9562 5.63934 84.4623 5.64648C84.5298 5.65009 84.6109 5.63934 84.6752 5.66563C84.9255 5.75518 85.1758 5.71217 85.4189 5.66681C85.7423 5.61069 86.0664 5.60473 86.3906 5.63934C86.8443 5.68831 87.2932 5.64413 87.7373 5.60473C88.3181 5.56769 88.8949 5.57122 89.4709 5.56769C89.5424 5.56769 89.6187 5.57962 89.6886 5.57962C90.2297 5.55811 90.7716 5.63338 91.3031 5.67395C91.632 5.70142 91.9498 5.76475 92.2716 5.72292C92.2915 5.72292 91.2554 5.72292 91.2777 5.72897C91.8434 5.82691 92.4234 5.79583 92.9994 5.84002C93.5413 5.88059 94.0792 5.87227 94.6202 5.88302C94.9071 5.89017 95.2002 5.87588 95.4783 5.975C95.5419 5.99651 95.6245 6.00004 95.6889 5.9929C96.1076 5.9451 96.5183 5.975 96.9339 5.95585C97.1309 5.94636 97.3295 5.93561 97.5298 5.92603C97.6172 5.92485 97.7093 5.90453 97.7959 5.92485C98.1916 6.00483 98.5889 5.93914 98.9829 5.94628C99.3087 5.95585 99.6305 5.92485 99.9475 5.82691C100.131 5.76954 100.295 5.79583 100.469 5.88059C100.609 5.94989 100.771 5.99054 100.922 6.04187C101.096 6.10042 101.267 6.15174 101.431 6.2234C101.703 6.34167 101.823 6.66775 101.72 6.94605C101.674 7.04643 101.622 7.14076 101.584 7.23988C101.5 7.46567 101.478 7.68785 101.629 7.90046C101.762 8.0987 101.753 8.31256 101.649 8.51677C101.535 8.74852 101.5 8.98742 101.517 9.24303C101.519 9.29082 101.519 9.34929 101.502 9.39952C101.428 9.87731 101.433 10.3563 101.388 10.8353C101.381 10.9069 101.381 10.9786 101.363 11.0479C101.267 11.4468 101.19 11.847 101.165 12.2591C101.056 12.5887 101.084 12.9303 101.145 13.26C101.218 13.6004 101.209 13.9289 101.165 14.2669C101.096 14.7459 101.088 15.2249 101.1 15.7063C101.105 16.2413 101.1 16.7765 101.086 17.3092C101.084 17.5386 101.024 17.7691 101.019 17.9972C101.017 18.2265 101.056 18.4559 101.061 18.6876C101.069 19.0997 101.043 19.507 100.984 19.9119C100.918 20.4064 100.887 20.9057 100.88 21.405C100.875 21.9556 100.875 22.5099 100.793 23.0558C100.776 23.1597 100.776 23.2732 100.798 23.3723C100.838 23.5347 100.823 23.6876 100.805 23.8489C100.741 24.341 100.691 24.8391 100.661 25.3348C100.644 25.5128 100.684 25.6872 100.698 25.8639C100.711 26.0085 100.727 26.1494 100.717 26.2904C100.704 26.577 100.674 26.8589 100.741 27.142C100.76 27.2244 100.751 27.3188 100.734 27.406C100.691 27.5982 100.691 27.7941 100.691 27.9888C100.691 28.2206 100.691 28.4547 100.698 28.6852C100.711 29.3649 100.698 30.0385 100.602 30.711C100.587 30.8138 100.587 30.9213 100.587 31.0312C100.589 31.3489 100.597 31.6678 100.597 31.9855C100.597 32.0584 100.58 32.1289 100.55 32.1934C100.503 32.2985 100.491 32.388 100.552 32.4955C100.597 32.5685 100.628 32.6628 100.63 32.7464C100.642 33.137 100.684 33.5276 100.734 33.9158C100.751 34.0962 100.727 34.2717 100.672 34.4425C100.587 34.7017 100.57 34.9633 100.573 35.2321C100.582 35.6764 100.559 35.4829 100.547 35.926C100.54 36.0503 100.503 35.8866 100.429 35.9882C100.365 36.0754 100.302 36.1626 100.237 36.2521C100.114 36.4253 99.938 36.5029 99.7298 36.5029C99.6281 36.5054 99.5121 36.4934 99.4104 36.4683C99.2515 36.4289 99.0989 36.38 98.9456 36.3214C98.6405 36.2079 98.3362 36.1028 98.0089 36.0622C97.9405 36.0503 97.8627 36.0299 97.811 35.993C97.5433 35.7946 97.2255 36.1494 96.9061 36.0754C96.7694 36.0431 96.6335 36.19 96.4945 36.153C96.3356 36.1112 96.187 36.0527 96.0241 36.0335C95.8422 36.0109 95.7778 36.159 95.6205 36.0754C95.4902 36.0037 95.2376 36.0933 95.1033 36.0718C94.6846 36.018 94.273 36.018 93.8567 36.0037C93.7272 36.0013 93.6024 36.0061 93.4817 35.9786C93.1964 35.9129 92.9049 35.926 92.6164 35.9285C92.2009 35.9285 91.7893 35.9212 91.3746 35.9129C91.2324 35.9105 92.1461 35.8747 92.0142 35.8114C91.9371 35.7708 91.8561 35.7266 91.7735 35.7027C91.6646 35.6704 91.5534 35.6239 91.4564 35.6406C91.1807 35.6955 90.9154 35.6358 90.6508 35.6095C90.5284 35.5964 90.3981 35.5904 90.271 35.6179C89.7721 35.7159 89.2667 35.6549 88.763 35.6429C88.6399 35.6429 88.5143 35.6298 88.3896 35.6466C88.1171 35.6848 87.8461 35.6764 87.5792 35.6322C87.2717 35.5868 86.9666 35.5857 86.6615 35.6429C86.5964 35.6597 86.5225 35.6752 86.4462 35.6633C86.1284 35.6274 85.8042 35.6227 85.4809 35.6298C85.3768 35.6358 85.2655 35.5964 85.1638 35.5665C84.9676 35.5116 84.7745 35.4948 84.5735 35.5402C84.2843 35.6059 84.0038 35.5964 83.7313 35.4686C83.6709 35.4399 83.5899 35.4411 83.5208 35.453C83.3587 35.4889 83.2006 35.4686 83.0393 35.4662C82.553 35.453 82.0652 35.3957 81.5814 35.4686C81.4749 35.4841 81.3613 35.4745 81.2596 35.4459C81.0665 35.3921 80.8679 35.3993 80.6716 35.3957C80.3451 35.3957 80.0193 35.3909 79.6999 35.3862C79.4949 35.3862 80.3912 35.379 80.1965 35.3324C79.982 35.2822 79.7667 35.287 79.5561 35.3646C79.353 35.4399 79.14 35.4602 78.9187 35.428C78.8171 35.4124 78.7057 35.4184 78.5968 35.4363C78.0584 35.4985 77.5225 35.5617 76.9829 35.4686C76.926 35.4566 76.8764 35.4602 76.8171 35.4602C76.4421 35.4459 76.4421 35.4459 76.113 35.2571Z" fill="#231F20"/>
<path fill-rule="evenodd" clip-rule="evenodd" d="M71.3519 27.8533V27.8605C71.5285 27.8533 71.7112 27.8485 71.8879 27.839C72.2145 27.8151 72.54 27.7661 72.8472 27.661C73.0106 27.6073 73.1316 27.5129 73.2042 27.36C73.2901 27.1844 73.3772 27.0077 73.4413 26.8249C73.474 26.7437 73.4836 26.6434 73.4619 26.5645C73.4244 26.3853 73.4098 26.2133 73.474 26.0402C73.4885 25.9899 73.4885 25.935 73.4885 25.8812C73.4994 25.7463 73.4292 25.6436 73.2937 25.6006C73.0082 25.5027 72.6984 25.4692 72.4153 25.3509C72.1976 25.259 71.9689 25.2207 71.7439 25.1586C71.5285 25.1037 71.3168 25.0821 71.0991 25.1263C70.9054 25.1682 70.7094 25.173 70.5086 25.1395C70.459 25.1324 70.3997 25.1395 70.3477 25.1395C70.2364 25.1443 70.1275 25.2207 70.1069 25.321C70.0549 25.5468 69.9956 25.7702 69.969 25.9995C69.9387 26.3185 69.894 26.6338 69.8371 26.9503C69.8153 27.0542 69.8093 27.1629 69.8178 27.2681C69.825 27.3325 69.8589 27.4078 69.9061 27.4567C70.1178 27.6837 70.3756 27.8402 70.7046 27.8533C70.92 27.8617 71.1366 27.8533 71.3519 27.8533ZM74.3149 24.9066C74.31 24.9484 74.3027 25.038 74.2821 25.1228C74.2398 25.2924 74.2677 25.437 74.4213 25.5468C74.4999 25.5934 74.5181 25.6901 74.535 25.7785C74.604 26.0975 74.61 26.4176 74.5774 26.7365C74.552 26.9706 74.552 27.1856 74.6415 27.415C74.7165 27.6073 74.7504 27.8318 74.7528 28.0409C74.7613 28.3013 74.6621 28.5354 74.4406 28.6894C74.3221 28.7707 74.1878 28.828 74.0523 28.871C73.97 28.8973 73.866 28.8997 73.7861 28.871C73.5853 28.8077 73.3954 28.8137 73.2066 28.9068C72.961 29.0311 72.7009 29.0681 72.4275 29.0812C72.1722 29.0979 71.9242 29.1314 71.6713 29.1111C71.4583 29.0944 71.243 29.092 71.0349 29.0048C70.92 28.9558 70.7844 28.9594 70.6671 29.0191C70.2461 29.2425 69.8227 29.0944 69.4004 29.0179C69.2721 28.932 69.1402 28.9176 68.989 28.9379C68.7386 28.9714 68.5825 28.8316 68.4434 28.6643C68.4047 28.6261 68.3817 28.57 68.3817 28.5162C68.3817 28.3753 68.3817 28.232 68.4095 28.0922C68.4712 27.704 68.5329 27.3182 68.5184 26.9252C68.5135 26.8512 68.5063 26.7795 68.5257 26.7102C68.6418 26.2025 68.6273 25.6878 68.6345 25.173C68.6418 24.7477 68.7095 24.3225 68.8305 23.9116C68.8475 23.8507 68.8995 23.7826 68.9564 23.748C69.093 23.6536 69.254 23.6094 69.4137 23.6034C69.502 23.5974 69.6036 23.6166 69.6714 23.6656C69.842 23.7826 70.0331 23.8184 70.2291 23.8112C70.5788 23.8041 70.92 23.8519 71.2551 23.9116C71.3967 23.9379 71.5406 23.9522 71.6846 23.9689C71.8274 23.9892 71.9737 23.9892 72.1105 24.0274C72.4843 24.1242 72.8545 24.1266 73.2381 24.1039C73.5538 24.0872 73.8382 24.2031 74.114 24.3309C74.1588 24.3524 74.1927 24.4049 74.2229 24.4491C74.2918 24.5757 74.327 24.7143 74.3149 24.9066Z" fill="#231F20"/>
<path fill-rule="evenodd" clip-rule="evenodd" d="M86.2889 27.8317C86.3858 27.8389 86.4398 27.8389 86.4946 27.8484C86.8013 27.9082 87.1017 27.8401 87.402 27.797C87.5696 27.7744 87.6967 27.6514 87.7166 27.4782C87.7373 27.2106 87.8056 26.9586 87.9025 26.7041C87.9621 26.5393 87.9804 26.3565 87.9947 26.1846C88.0185 26.0329 87.9303 25.9086 87.7754 25.8608C87.4512 25.7533 87.1199 25.6686 86.7751 25.6518C86.5415 25.6387 86.3103 25.6339 86.0831 25.5515C85.9393 25.4977 85.7685 25.4906 85.6064 25.518C85.453 25.5467 85.3442 25.6387 85.3124 25.7928C85.2472 26.1189 85.2043 26.4533 85.1233 26.7818C85.0621 27.0242 85.0597 27.2751 85.0343 27.5199C85.024 27.6203 85.1138 27.7409 85.2107 27.7601C85.4904 27.8317 85.7684 27.8998 86.064 27.8484C86.1546 27.8365 86.2412 27.8329 86.2889 27.8317ZM87.7516 29.1683C87.5553 29.1348 87.3424 29.1814 87.1271 29.2101C86.7568 29.2602 86.3778 29.3284 85.9957 29.2854C85.9091 29.2782 85.8153 29.2854 85.7287 29.3033C85.6064 29.3307 85.4808 29.3368 85.3561 29.3248C85.2298 29.3153 85.1003 29.3033 84.9771 29.3307C84.7546 29.375 84.5505 29.326 84.3423 29.277C84.1738 29.234 84.0443 29.148 83.9514 29.0107C83.7925 28.7801 83.6924 28.5388 83.748 28.2558C83.7718 28.1482 83.7504 28.0443 83.6987 27.9452C83.628 27.8126 83.628 27.6752 83.6487 27.5295C83.6582 27.4782 83.663 27.422 83.6781 27.3743C83.8147 26.9777 83.8386 26.5739 83.8243 26.1642C83.8052 25.8226 83.8338 25.4846 83.9331 25.1573C83.9871 24.9698 84.0078 24.7739 84.0443 24.5816C84.1294 24.1802 84.5139 23.9008 84.9175 23.9653C85.0764 23.9891 85.2369 24.0345 85.3839 24.1038C85.5468 24.1802 85.7112 24.2376 85.8988 24.2436C85.9695 24.2436 86.0481 24.2436 86.1093 24.2722C86.5153 24.4478 86.9626 24.4168 87.3901 24.4574C87.6737 24.486 87.9645 24.4287 88.2497 24.4048C88.3189 24.3953 88.3888 24.3618 88.4531 24.332C88.5151 24.2997 88.5667 24.2543 88.6287 24.2125C88.7797 24.1182 88.9338 24.1086 89.0887 24.1814C89.2238 24.2411 89.3533 24.3068 89.4812 24.369C89.5591 24.4072 89.5964 24.5027 89.5758 24.5912C89.4812 24.916 89.3827 25.2421 89.2882 25.567C89.254 25.6853 89.2047 25.8071 89.219 25.9301C89.2397 26.1642 89.2047 26.39 89.1618 26.6194C89.1269 26.826 89.1174 27.041 89.2024 27.2488C89.2262 27.3133 89.2357 27.3862 89.2397 27.4567C89.2588 27.7242 89.3064 27.9846 89.3724 28.245C89.4669 28.6009 89.2421 28.9174 88.9394 29.0107C88.5644 29.1181 88.175 29.2101 87.7516 29.1683Z" fill="#231F20"/>
<path fill-rule="evenodd" clip-rule="evenodd" d="M53.4663 28.247C53.6623 28.1896 53.8631 28.1168 54.0761 28.0618C54.2079 28.026 54.3616 27.9841 54.4995 27.9961C54.802 28.0164 55.0561 27.8934 55.3307 27.7942C55.5436 27.7118 55.69 27.5673 55.7892 27.3654C55.9114 27.123 55.9622 26.8602 55.978 26.5974C55.9828 26.503 55.9356 26.4159 55.8606 26.3633C55.6924 26.2594 55.5195 26.1686 55.3138 26.1495C55.1553 26.1387 54.9956 26.1113 54.8298 26.0886C54.5818 26.0504 54.3362 26.0504 54.0858 26.0981C53.8728 26.1411 53.6527 26.1483 53.4385 26.1686C53.3671 26.1698 53.2981 26.1698 53.2231 26.1745C53.084 26.1889 52.9509 26.3131 52.9412 26.4529C52.9183 26.7527 52.8965 27.0537 52.8832 27.3523C52.8783 27.4072 52.8832 27.461 52.8856 27.5171C52.9037 28.0546 52.8735 28.0713 53.4663 28.247ZM51.441 27.6246C51.4459 27.3379 51.4459 27.0596 51.4556 26.7742C51.4653 26.6642 51.481 26.5616 51.4906 26.4541C51.51 26.2797 51.5378 26.1029 51.5547 25.9273C51.5875 25.5223 51.7677 25.1772 51.9939 24.8511C52.0653 24.7424 52.1791 24.6898 52.3182 24.6946C52.7525 24.7113 53.1856 24.709 53.6103 24.7663C53.7216 24.783 53.8281 24.7758 53.9297 24.7173C54.1874 24.5644 54.4802 24.5668 54.7705 24.5907C55.1916 24.6337 55.6235 24.709 56.0397 24.8308C56.1643 24.8655 56.2805 24.8714 56.4062 24.8547C56.5647 24.8344 56.7293 24.8344 56.8926 24.8308C56.9664 24.8308 57.0341 24.8403 57.1079 24.8523C57.3657 24.8976 57.4757 25.0458 57.4576 25.3062C57.4431 25.4268 57.408 25.5559 57.4335 25.6705C57.4951 25.9141 57.4407 26.1339 57.3294 26.3394C57.2217 26.5377 57.2 26.7431 57.2 26.9582C57.2023 27.3857 57.1926 27.8134 57.2072 28.2386C57.2193 28.536 57.0632 28.702 56.8176 28.8179C56.7716 28.8394 56.7196 28.8609 56.6676 28.8645C56.5079 28.8812 56.3518 28.9218 56.2006 28.9839C56.1014 29.0317 55.9877 29.0257 55.8812 29.0341C55.321 29.0747 54.7802 29.1882 54.26 29.396C53.8728 29.5537 53.459 29.6086 53.0453 29.5716C52.9352 29.5608 52.8264 29.5644 52.7247 29.5429C52.5045 29.4987 52.2964 29.4987 52.081 29.5764C52.023 29.599 51.9395 29.5943 51.8717 29.5848C51.7363 29.568 51.6237 29.4987 51.5875 29.3662C51.5028 29.0771 51.4156 28.788 51.4229 28.4763C51.4265 28.1944 51.4229 27.9089 51.4229 27.6246H51.441Z" fill="#231F20"/>
<path fill-rule="evenodd" clip-rule="evenodd" d="M86.0926 17.4817H86.1022V17.7504C86.1069 17.8568 86.1069 17.9595 86.1117 18.067C86.1276 18.3071 86.2587 18.4564 86.5018 18.5113C86.6409 18.5424 86.7823 18.5723 86.9237 18.5138C87.1112 18.4456 87.3075 18.4277 87.5061 18.4193C87.719 18.4062 87.9351 18.3776 88.1504 18.362C88.3308 18.3513 88.4555 18.2617 88.5342 18.1124C88.6987 17.8269 88.7797 17.5175 88.7408 17.1902C88.7177 16.9597 88.7201 16.7328 88.7503 16.5023C88.7606 16.4521 88.763 16.3948 88.7479 16.347C88.7304 16.2992 88.6987 16.2515 88.6542 16.2227C88.6113 16.1977 88.5501 16.1797 88.5 16.1822C88.2077 16.2037 87.9288 16.1726 87.6523 16.0938C87.5601 16.0651 87.4751 16.0794 87.3821 16.1045C87.1613 16.1678 86.9356 16.2335 86.702 16.2431C86.4327 16.2515 86.0926 16.5883 86.0926 16.8988C86.0974 17.0911 86.0926 17.2847 86.0926 17.4817ZM88.562 19.7285C88.4675 19.7202 88.3729 19.7202 88.2839 19.7106C88.2315 19.707 88.1798 19.695 88.1274 19.6867C87.6737 19.6234 87.2288 19.7524 86.7823 19.7655C86.3405 19.7763 85.9194 19.836 85.523 20.0188C85.4856 20.0367 85.4523 20.0486 85.4165 20.063C85.2369 20.1191 85.0097 20.0486 84.8897 19.8874C84.8286 19.8001 84.788 19.6987 84.7316 19.6079C84.6109 19.412 84.595 19.2232 84.6871 19.001C84.8286 18.675 84.8429 18.3106 84.8826 17.9583C84.8897 17.8568 84.8635 17.7445 84.8309 17.6454C84.7459 17.3671 84.7197 17.0899 84.7388 16.8033C84.7555 16.5369 84.7642 16.2682 84.788 16.0018C84.8031 15.8047 84.8707 15.622 84.9748 15.4523C85.1503 15.1812 85.3911 15.0056 85.7129 14.9602C85.84 14.9411 85.956 14.9232 86.0736 14.8598C86.2889 14.744 86.5225 14.738 86.7616 14.7655C86.9173 14.7858 87.0826 14.7989 87.2383 14.8467C87.518 14.9303 87.8009 14.9375 88.0885 14.9458C88.5398 14.9673 88.9879 15.0056 89.4415 14.9829C89.5464 14.9805 89.6576 14.9913 89.7641 15.008C90.0223 15.0403 90.2353 15.168 90.4029 15.3723C90.5133 15.5073 90.5475 15.6625 90.4855 15.8226C90.4236 15.9874 90.3489 16.1535 90.2655 16.3099C90.1216 16.5465 90.0597 16.8033 90.0342 17.0696C90.0001 17.3861 90.0025 17.7063 89.9898 18.0264C89.9898 18.1124 90.008 18.2032 90.0025 18.288C89.9898 18.4528 90.0049 18.6057 90.0764 18.7586C90.1359 18.8971 90.0962 19.0369 89.9898 19.1527C89.9556 19.197 89.9182 19.2316 89.8785 19.2722C89.5067 19.6378 89.5067 19.6378 88.9855 19.6867C88.8449 19.6987 88.6987 19.7106 88.562 19.7285Z" fill="#231F20"/>
<path fill-rule="evenodd" clip-rule="evenodd" d="M72.9611 17.8713C73.1451 17.851 73.3277 17.839 73.4996 17.8152C73.5685 17.802 73.6375 17.7686 73.6919 17.7244C73.8468 17.593 73.9653 17.4389 73.9775 17.2263C73.9823 17.0531 74.0077 16.874 74.0247 16.6971C74.0416 16.4738 73.9484 16.3209 73.7367 16.2337C73.554 16.1573 73.3677 16.0832 73.1814 16.0235C73.0604 15.9852 72.9358 15.9626 72.8123 15.947C72.6164 15.9243 72.4204 15.9017 72.2219 15.9017C72.0235 15.8969 71.8227 15.9088 71.6255 15.9267C71.4065 15.9554 71.2649 16.088 71.2153 16.2958C71.1488 16.61 71.0992 16.9229 71.0496 17.2394C71.0351 17.3242 71.0544 17.4174 71.0689 17.501C71.0798 17.5786 71.1343 17.6456 71.1984 17.6551C71.4634 17.7041 71.7296 17.7387 72.0018 17.7722C72.1058 17.7841 72.2219 17.7722 72.3212 17.802C72.5329 17.8653 72.7482 17.8653 72.9611 17.8713ZM74.2969 19.2223C74.1069 19.196 73.9484 19.2175 73.7912 19.2545C73.4499 19.3393 73.11 19.3357 72.7773 19.2115C72.6019 19.1434 72.43 19.1303 72.2473 19.1578C72.0163 19.196 71.7912 19.1995 71.5602 19.0873C71.4936 19.0526 71.3847 19.0658 71.3 19.0825C71.0278 19.1338 70.7641 19.0873 70.4991 19.0084C70.3285 18.9583 70.1591 18.9033 69.9885 18.846C69.6764 18.7445 69.4755 18.4841 69.5021 18.164C69.5227 17.8642 69.5252 17.5584 69.6243 17.2681C69.6462 17.2179 69.6643 17.169 69.6643 17.114C69.7163 16.6733 69.795 16.2373 69.8844 15.8025C69.9111 15.6831 69.8821 15.5529 69.8772 15.4298C69.8772 15.2662 69.9172 15.1109 70.0115 14.976C70.0974 14.8601 70.1725 14.7383 70.2692 14.6319C70.3781 14.5113 70.5136 14.4396 70.6999 14.4564C70.8367 14.4707 70.9806 14.442 71.127 14.4301C71.2153 14.4253 71.3146 14.3966 71.3968 14.4122C71.744 14.4862 72.1106 14.4815 72.4603 14.5376C72.678 14.5722 72.8874 14.6069 73.1027 14.6069C73.2854 14.6069 73.4621 14.6296 73.623 14.7239C73.7343 14.7884 73.8565 14.8159 73.9823 14.8159C74.1517 14.8207 74.2969 14.8756 74.4457 14.9568C74.6501 15.0739 74.8558 15.1814 75.053 15.2925C75.1329 15.3379 75.2055 15.3928 75.2745 15.4537C75.4656 15.6257 75.5128 15.8347 75.416 16.0832C75.4051 16.1166 75.393 16.1513 75.3785 16.1823C75.1898 16.5275 75.1849 16.899 75.2176 17.2717C75.237 17.4497 75.2745 17.6253 75.2962 17.802C75.3192 17.9597 75.3361 18.1198 75.3386 18.2786C75.3458 18.3682 75.3361 18.453 75.3192 18.5438C75.2539 18.969 74.9514 19.1864 74.5401 19.2223C74.4481 19.2354 74.3598 19.2223 74.2969 19.2223Z" fill="#231F20"/>
<path fill-rule="evenodd" clip-rule="evenodd" d="M56.8878 16.6879C56.8732 16.6031 56.8635 16.5016 56.8478 16.3953C56.8309 16.32 56.7813 16.2638 56.7196 16.234C56.6373 16.2006 56.5502 16.1731 56.4619 16.1576C56.3566 16.148 56.243 16.148 56.1389 16.1516C55.7058 16.1624 55.2714 16.1672 54.8467 16.0572C54.7705 16.037 54.6592 16.0417 54.5818 16.068C54.2744 16.1934 53.9902 16.3487 53.9999 16.7441C54.0022 16.8145 53.9793 16.8886 53.9575 16.9542C53.8885 17.1777 53.8982 17.4094 53.9055 17.6387C53.9055 17.8979 54.0168 18.0663 54.2793 18.1595C54.4487 18.2168 54.5769 18.2109 54.7427 18.1595C55.1819 18.021 55.6005 17.7952 56.0893 17.8191C56.1618 17.8226 56.2259 17.7844 56.2998 17.7761C56.4934 17.7522 56.6277 17.6554 56.7196 17.4823C56.7837 17.3568 56.8478 17.2326 56.8575 17.0833C56.8624 16.9603 56.8732 16.8361 56.8878 16.6879ZM52.5395 18.6086C52.6388 18.0436 52.6182 17.4727 52.6605 16.9029C52.6605 16.8361 52.6678 16.7608 52.6557 16.6927C52.577 16.2961 52.6605 15.9139 52.7355 15.5293C52.7597 15.4086 52.7803 15.2868 52.8117 15.1661C52.9061 14.8293 53.1214 14.6095 53.459 14.5116C53.5111 14.4972 53.5776 14.4961 53.6199 14.5152C53.8728 14.6502 54.1378 14.6489 54.4063 14.637C54.5576 14.6311 54.6931 14.6489 54.8225 14.7266C54.8842 14.7636 54.9544 14.7887 55.021 14.8054C55.2 14.8353 55.3779 14.8676 55.5545 14.8736C55.7154 14.8759 55.8884 14.8676 56.0396 14.8222C56.4692 14.6908 56.8926 14.7481 57.3197 14.8425C57.6319 14.9166 57.8992 15.3011 57.852 15.6129C57.8423 15.6858 57.8194 15.7539 57.8 15.8255C57.7807 15.9139 57.7904 16.0118 57.8617 16.068C58.123 16.2901 58.1775 16.584 58.1496 16.891C58.1195 17.2636 58.1024 17.6339 58.1727 18.0018C58.1993 18.1249 58.1848 18.2551 58.1871 18.378C58.1896 18.5692 58.1146 18.7209 57.9609 18.8391C57.8617 18.9156 57.7625 18.9944 57.6694 19.0745C57.5205 19.1999 57.3512 19.2405 57.166 19.1975C56.9543 19.1437 56.7414 19.1341 56.5284 19.1246C56.1618 19.1139 55.8122 19.2226 55.465 19.2942C55.1795 19.3468 54.9024 19.4233 54.6266 19.4901C54.5153 19.5188 54.4063 19.5295 54.2999 19.5045C54.0881 19.4495 53.8728 19.465 53.6599 19.5009C53.3501 19.5475 53.0924 19.4519 52.8795 19.2274C52.8166 19.164 52.7525 19.1043 52.6883 19.0446C52.5637 18.924 52.5069 18.777 52.5395 18.6086Z" fill="#231F20"/>
<path fill-rule="evenodd" clip-rule="evenodd" d="M21.3124 18.0136C21.3596 18.4186 21.3475 18.6992 21.3293 18.9835C21.3221 19.1053 21.3402 19.2319 21.3693 19.3514C21.3995 19.4589 21.4854 19.5365 21.6028 19.5473C21.835 19.5772 22.071 19.5795 22.2888 19.4672C22.5997 19.3001 22.936 19.2678 23.2833 19.3287C23.4296 19.3562 23.5687 19.3311 23.7067 19.2988C23.8059 19.2785 23.8615 19.2045 23.8858 19.1137C23.9003 19.0492 23.9027 18.974 23.8954 18.9047C23.8688 18.6407 23.8555 18.3755 23.8434 18.1067C23.8313 17.8452 23.7466 17.5884 23.6994 17.3244C23.6849 17.2587 23.6849 17.1822 23.6752 17.1142C23.645 16.9099 23.4152 16.7152 23.2143 16.7522C22.8549 16.8275 22.5005 16.8263 22.1532 16.7081C21.9742 16.6531 21.7939 16.6758 21.6221 16.7296C21.4261 16.7857 21.3148 16.9266 21.3124 17.1177C21.3051 17.457 21.3124 17.795 21.3124 18.0136ZM20.0602 19.9498C20.0904 19.6046 20.1521 19.2511 20.1328 18.8975C20.117 18.5642 20.0651 18.2298 20.0529 17.8918C20.0432 17.6099 20.0057 17.3292 19.921 17.0545C19.8545 16.8406 19.8666 16.6292 19.9441 16.425C19.9961 16.2709 20.0432 16.1227 20.0747 15.9651C20.0977 15.8755 20.1594 15.7991 20.2465 15.774C20.4195 15.7131 20.5708 15.6127 20.7377 15.5542C21.1164 15.43 21.5084 15.4085 21.9028 15.5232C22.0093 15.5518 22.1109 15.6008 22.2125 15.6092C22.5912 15.6366 22.9663 15.6557 23.3449 15.676C23.3824 15.676 23.4224 15.6701 23.4514 15.6617C23.6522 15.6044 23.8434 15.676 24.0369 15.6904C24.3298 15.7214 24.4859 15.8707 24.6044 16.1144C24.7217 16.3581 24.8331 16.5982 24.8282 16.8705C24.8258 17.0724 24.8923 17.2635 24.9492 17.445C25.0714 17.8189 25.1126 18.2107 25.1948 18.5882C25.2117 18.6586 25.2117 18.7326 25.1996 18.8019C25.1645 19.0145 25.1948 19.2212 25.2372 19.4326C25.282 19.656 25.2686 19.8912 25.2638 20.1194C25.2614 20.1863 25.2142 20.258 25.1694 20.3105C25.0629 20.4551 24.9093 20.5566 24.7435 20.6187C24.6637 20.6498 24.5645 20.6701 24.4785 20.6509C24.2136 20.5889 23.945 20.5937 23.6752 20.5889C23.5506 20.5876 23.4224 20.5876 23.2953 20.5721C23.028 20.5363 22.7606 20.5649 22.4895 20.5889C22.3613 20.6044 22.244 20.6414 22.1435 20.7214C22.031 20.8194 21.8931 20.8516 21.7443 20.866C21.6403 20.8755 21.5302 20.9077 21.4261 20.9077C21.2228 20.9077 21.0377 20.9532 20.8684 21.069C20.8284 21.1013 20.7692 21.1132 20.7171 21.1287C20.584 21.1706 20.4098 21.1156 20.3312 21.0069C20.2683 20.9221 20.2139 20.8265 20.1521 20.7381C20.0929 20.6498 20.0626 20.5447 20.0602 20.4383C20.0529 20.2795 20.0602 20.1182 20.0602 19.9498Z" fill="#231F20"/>
<path fill-rule="evenodd" clip-rule="evenodd" d="M39.4985 16.9697H39.4863V16.5433C39.4863 16.5063 39.4863 16.4717 39.4815 16.4358C39.4633 16.2005 39.3497 16.0739 39.1185 16.0536C39.0229 16.0488 38.9359 16.0464 38.8439 16.0417C38.6262 16.0321 38.418 15.9915 38.2196 15.8971C38.17 15.8756 38.1204 15.8505 38.0708 15.835C37.6909 15.7012 37.1259 15.9676 37.0981 16.4836C37.0787 16.7834 37.0787 17.0832 37.0714 17.389C37.069 17.6386 37.1404 17.8811 37.19 18.1236C37.1997 18.1869 37.2469 18.2585 37.2916 18.3052C37.438 18.4485 37.6195 18.5225 37.8324 18.4974C37.9039 18.4891 37.9764 18.4747 38.043 18.4532C38.4156 18.329 38.7894 18.2024 39.1633 18.0734C39.3303 18.0113 39.427 17.8811 39.4464 17.7115C39.473 17.469 39.4815 17.217 39.4985 16.9697ZM40.7628 15.8923C40.701 16.3725 40.718 16.8479 40.8547 17.3185C40.8741 17.4022 40.8813 17.4953 40.8813 17.5861C40.8692 17.8512 40.8994 18.1129 40.9733 18.3756C41.035 18.6121 40.9866 18.8355 40.793 19.0087C40.7579 19.0445 40.7156 19.0839 40.6781 19.1246C40.5813 19.2344 40.4555 19.3001 40.3115 19.3252C39.8651 19.3885 39.4162 19.459 38.9734 19.5259C38.7919 19.5557 38.6213 19.5868 38.4471 19.656C38.2111 19.7493 37.9716 19.8185 37.7114 19.8006C37.5651 19.7935 37.4283 19.7731 37.3061 19.68C37.1876 19.5844 37.046 19.5773 36.8972 19.6155C36.6722 19.6728 36.4713 19.6298 36.2899 19.4722C36.2136 19.4029 36.1096 19.3646 36.0177 19.3049C35.9233 19.2392 35.8615 19.1436 35.8543 19.0374C35.8446 18.8606 35.8446 18.6814 35.864 18.507C35.8858 18.3075 35.899 18.1188 35.864 17.9217C35.8446 17.8345 35.8446 17.745 35.847 17.6553C35.8616 17.4033 35.8361 17.1596 35.7648 16.9136C35.7152 16.7452 35.6982 16.5672 35.7152 16.3857C35.737 16.0834 35.7648 15.7836 35.7999 15.4802C35.8168 15.3011 35.8809 15.1351 35.9802 14.9834C36.0914 14.8113 36.2281 14.6907 36.4496 14.6669C36.6674 14.6465 36.8731 14.5677 37.0884 14.5557C37.3013 14.5486 37.5155 14.5999 37.7357 14.6298C37.8397 14.6429 37.9534 14.6394 38.0527 14.6776C38.4398 14.8353 38.8391 14.7516 39.231 14.7612C39.2807 14.7612 39.3423 14.754 39.3872 14.7301C39.6279 14.5976 39.8699 14.631 40.1179 14.7278C40.2171 14.766 40.3284 14.7708 40.43 14.8066C40.6309 14.8818 40.7628 15.0407 40.7628 15.2486C40.7579 15.46 40.7628 15.6774 40.7628 15.8923Z" fill="#231F20"/>
<path fill-rule="evenodd" clip-rule="evenodd" d="M22.4444 27.7663C22.7468 27.7352 23.0469 27.6994 23.3542 27.6695C23.4486 27.6576 23.5102 27.5955 23.5502 27.5059C23.5998 27.4079 23.6324 27.3028 23.6118 27.1953C23.5151 26.782 23.451 26.3628 23.4364 25.9376C23.4364 25.805 23.3348 25.7106 23.2126 25.6664C23.1461 25.639 23.0735 25.6246 23.0021 25.6175C22.6282 25.5768 22.2507 25.5338 21.8769 25.5063C21.7136 25.4956 21.5515 25.5063 21.3905 25.5255C21.2369 25.5398 21.1256 25.6342 21.0905 25.7859C21.0336 26.0296 20.9598 26.2684 20.9392 26.5145C20.9126 26.8525 20.9538 27.1894 21.1208 27.4928C21.1849 27.6134 21.2914 27.6839 21.4256 27.6839C21.6785 27.6743 21.929 27.691 22.1721 27.7459C22.2628 27.7675 22.3524 27.7603 22.4444 27.7663ZM19.7718 27.4701C19.7645 27.0782 19.7718 26.6901 19.7318 26.3006C19.6968 25.9483 19.7149 25.5923 19.8286 25.2436C19.8879 25.0584 19.9303 24.8649 19.9725 24.6774C20.0077 24.5209 20.1044 24.4289 20.2472 24.3692C20.3271 24.3322 20.4094 24.2928 20.4879 24.2522C20.5703 24.2116 20.655 24.1889 20.7457 24.2056C21.157 24.2689 21.5745 24.2271 21.9858 24.2617C22.0729 24.2725 22.1697 24.2593 22.2532 24.288C22.4347 24.3513 22.6053 24.3477 22.7722 24.2725C22.7892 24.2629 22.811 24.2593 22.8267 24.2593C23.2695 24.3071 23.7256 24.2116 24.1551 24.4063C24.3559 24.4994 24.4842 24.6822 24.4672 24.9139C24.46 25.0202 24.4358 25.1241 24.4322 25.2316C24.4273 25.3164 24.4273 25.418 24.4648 25.4944C24.604 25.8301 24.6257 26.186 24.6608 26.536C24.6778 26.7677 24.7225 26.9887 24.8024 27.212C24.9016 27.4736 24.9488 27.7567 25.0722 28.0207C25.1242 28.1234 25.1194 28.2631 25.1242 28.385C25.1314 28.4937 25.0951 28.594 25.0298 28.686C25.0081 28.7099 24.9899 28.7434 24.9682 28.7732C24.7225 29.11 24.4878 29.2068 24.0862 29.0754C23.9095 29.018 23.7389 29.0038 23.5599 29.0109C23.4158 29.0133 23.2719 29.0109 23.1231 29.0109C22.9126 29.0109 22.6948 29.0002 22.4794 29.018C22.229 29.0408 21.9809 29.0408 21.7281 29.0264C21.4402 29.0109 21.1546 29.0312 20.8727 28.9452C20.7614 28.907 20.6695 28.9834 20.5726 29.0312C20.3912 29.1184 20.2231 29.0873 20.0718 28.9631C19.9556 28.87 19.8661 28.7649 19.8117 28.6299C19.75 28.477 19.7173 28.3253 19.7318 28.1605C19.7463 27.9287 19.7596 27.6982 19.7718 27.4701Z" fill="#231F20"/>
<path fill-rule="evenodd" clip-rule="evenodd" d="M101.024 -2.82822C100.989 -2.04827 100.953 -1.2659 100.926 -0.48352C100.918 -0.366426 100.91 -0.250588 100.899 -0.13475C100.875 0.0611389 100.873 0.270212 100.616 0.321539C100.394 0.364546 100.11 0.25946 100.003 0.0659256C99.926 -0.078558 99.8569 -0.241012 99.822 -0.401114C99.7505 -0.677053 99.7369 -0.972064 99.6392 -1.23961C99.4271 -1.85835 99.2968 -2.49381 99.1816 -3.13759C99.1355 -3.39085 99.0187 -3.62974 98.9194 -3.87099C98.8598 -4.01312 98.7462 -4.06688 98.5952 -4.01312C98.5428 -3.99641 98.4959 -3.97255 98.4482 -3.95222C97.4686 -3.60102 96.5017 -3.2236 95.5109 -2.90466C94.8483 -2.69088 94.1618 -2.55353 93.4793 -2.39586C93.1273 -2.31346 93.0161 -2.44719 93.0018 -2.80915C92.9899 -3.20924 93.1178 -3.48039 93.4626 -3.71333C93.9965 -4.07167 94.5066 -4.47302 94.9921 -4.89344C95.4926 -5.33302 95.9542 -5.82156 96.4405 -6.27667C96.6192 -6.44266 96.8274 -6.58126 97.0284 -6.72456C97.1166 -6.78546 97.2183 -6.81654 97.2978 -6.88702C97.4519 -7.01361 97.4614 -7.1617 97.3001 -7.28241C97.0753 -7.45318 96.8298 -7.61446 96.5676 -7.72316C96.3833 -7.7996 96.2649 -7.88561 96.1775 -8.07193C96.1139 -8.21523 95.994 -8.34661 95.8724 -8.45892C95.5609 -8.73721 95.2376 -9.00483 94.9158 -9.2759C94.7839 -9.3846 94.6608 -9.49808 94.5217 -9.60081C94.2635 -9.78956 94.1769 -10.2315 94.3819 -10.4501C94.4462 -10.5218 94.5924 -10.5576 94.6981 -10.548C94.8951 -10.5373 95.089 -10.4836 95.2845 -10.4453C96.1632 -10.2554 97.0356 -10.0583 97.8857 -9.76092C98.1114 -9.68087 98.3712 -9.65222 98.6167 -9.64861C98.8995 -9.64626 99.0211 -9.7657 99.1029 -10.0285C99.4819 -11.1942 99.6877 -12.4054 99.9086 -13.6059C99.9682 -13.9092 100.063 -14.1864 100.256 -14.4276C100.394 -14.5985 100.573 -14.6618 100.786 -14.5913C100.994 -14.5208 101.123 -14.3799 101.111 -14.1565C101.072 -13.3897 101.377 -12.6682 101.407 -11.9145C101.428 -11.5287 101.572 -11.1524 101.634 -10.769C101.672 -10.5122 101.684 -10.2506 101.684 -9.99141C101.684 -9.65575 101.743 -9.57335 102.09 -9.58174C102.499 -9.58174 102.905 -9.60325 103.317 -9.60921C103.734 -9.61039 104.158 -9.60325 104.58 -9.59485C105.171 -9.59124 105.772 -9.62711 106.358 -9.56377C106.853 -9.51245 107.332 -9.3237 107.731 -9.00483C107.882 -8.88059 107.899 -8.7635 107.756 -8.64405C107.205 -8.20213 106.776 -7.63832 106.117 -7.30744C105.396 -6.93835 104.713 -6.48206 104.009 -6.076C103.851 -5.98755 103.671 -5.93622 103.499 -5.8765C103.362 -5.83114 103.208 -5.82274 103.072 -5.76662C102.712 -5.6161 102.69 -5.37838 103.012 -5.14074C103.033 -5.1252 103.065 -5.1168 103.076 -5.09655C103.385 -4.56139 104.004 -4.34761 104.377 -3.86982C104.543 -3.65478 104.786 -3.50308 104.994 -3.32155C105.08 -3.24393 105.167 -3.16506 105.245 -3.07551C105.443 -2.82822 105.386 -2.64669 105.071 -2.56068C104.781 -2.48424 104.493 -2.5296 104.222 -2.65148C103.548 -2.94649 102.879 -3.26661 102.199 -3.54012C101.935 -3.64764 101.639 -3.6715 101.352 -3.71097C101.171 -3.73483 101.086 -3.62378 101.081 -3.45293C101.072 -3.24393 101.06 -3.03486 101.052 -2.82822H101.024Z" fill="#F9A739"/>
</g>
<defs>
<clipPath id="clip0">
<rect width="117" height="38" fill="white"/>
</clipPath>
</defs>
</svg>
